<svg width="998" height="998" viewBox="0 0 998 998" fill="none" xmlns="http://www.w3.org/2000/svg">
<path d="M722.891 912.272C821.674 912.272 901.753 902.63 901.753 890.735C901.753 878.841 821.674 869.198 722.891 869.198C624.109 869.198 544.03 878.841 544.03 890.735C544.03 902.63 624.109 912.272 722.891 912.272Z" fill="#EBEBEB"/>
<path d="M904.208 839.418L802.911 839.897L701.594 840.076L499 840.416L296.406 840.076L195.089 839.897L93.7921 839.418L195.089 838.919L296.406 838.739L499 838.42L701.594 838.739L802.911 838.919L904.208 839.418Z" fill="#263238"/>
<path d="M561.974 543.151C566.019 543.151 569.299 539.872 569.299 535.826C569.299 531.781 566.019 528.501 561.974 528.501C557.928 528.501 554.648 531.781 554.648 535.826C554.648 539.872 557.928 543.151 561.974 543.151Z" fill="white"/>
<path d="M673.73 543.151C677.776 543.151 681.055 539.872 681.055 535.826C681.055 531.781 677.776 528.501 673.73 528.501C669.684 528.501 666.405 531.781 666.405 535.826C666.405 539.872 669.684 543.151 673.73 543.151Z" fill="white"/>
<path d="M785.486 543.151C789.532 543.151 792.811 539.872 792.811 535.826C792.811 531.781 789.532 528.501 785.486 528.501C781.44 528.501 778.161 531.781 778.161 535.826C778.161 539.872 781.44 543.151 785.486 543.151Z" fill="white"/>
<path d="M406.805 455.587C489.02 535.966 601.155 722.692 615.806 751.813C625.786 771.594 522.433 826.424 517.703 811.993C511.715 793.51 405.827 597.523 380.577 487.104C369.519 438.741 390.198 439.36 406.805 455.587Z" fill="#F7A9A0"/>
<path d="M512.493 798.4C516.345 808.26 529.619 850.296 538.441 855.346C547.263 860.396 592.712 858.34 615.646 857.861C638.58 857.382 642.952 850.895 642.413 843.011C641.874 835.126 593.71 834.627 593.71 834.627C593.71 834.627 658.321 851.673 674.648 854.288C690.975 856.903 728.321 865.585 733.43 852.072C735.746 845.965 725.446 840.096 725.446 840.096C725.446 840.096 741.175 844.328 743.41 836.504C746.065 827.601 733.53 822.991 733.53 822.991C733.53 822.991 743.35 824.767 743.41 817.542C743.59 801.434 682.293 794.787 682.293 794.787C682.293 794.787 729.578 816.603 730.796 803.43C732.512 785.186 636.165 767.242 626.026 759.518C619.381 754.139 613.808 747.557 609.598 740.117L512.493 798.4Z" fill="#F7A9A0"/>
<path d="M642.113 846.983C642.231 845.872 642.082 844.75 641.68 843.709C641.277 842.667 640.632 841.737 639.798 840.995C638.121 839.511 636.204 838.323 634.129 837.482C629.857 835.747 625.434 834.411 620.916 833.49C611.814 831.494 602.533 829.957 593.251 827.761C602.784 827.418 612.322 828.29 621.634 830.356C626.385 831.341 630.974 832.987 635.267 835.246C637.483 836.41 639.434 838.021 640.996 839.977C641.76 840.954 642.264 842.11 642.459 843.335C642.655 844.561 642.536 845.816 642.113 846.983Z" fill="#263238"/>
<path d="M725.307 840.116C718.66 838.639 712.113 836.903 705.566 835.166C699.019 833.43 692.512 831.554 685.985 829.737L666.504 824.069C660.017 822.192 653.51 820.316 646.944 818.52C653.728 819.109 660.463 820.163 667.103 821.673C673.77 823.051 680.337 824.807 686.884 826.643C693.43 828.48 699.878 830.635 706.285 832.811C712.692 834.987 719.079 837.382 725.307 840.116Z" fill="#263238"/>
<path d="M662.133 802.133C668.378 802.407 674.596 803.134 680.736 804.308C686.89 805.41 692.98 806.843 698.979 808.6C704.984 810.333 710.888 812.399 716.664 814.787C722.451 817.132 728.067 819.88 733.47 823.011C727.482 821.015 721.714 819.019 715.805 817.123C709.897 815.226 704.009 813.37 698.081 811.693C692.153 810.017 686.105 808.34 680.117 806.723C674.129 805.107 668.201 803.65 662.133 802.133Z" fill="#263238"/>
<path d="M671.275 786.604C691.493 787.931 711.081 794.173 728.34 804.787C718.76 801.614 709.458 798.22 699.937 795.266C690.416 792.312 680.935 789.478 671.275 786.604Z" fill="#263238"/>
<path d="M613.69 737.642L492.593 810.376C492.593 810.376 392.793 562.054 379.899 497.004C367.004 431.954 390.477 429.679 428.182 469.739C472.274 516.605 613.69 737.642 613.69 737.642Z" fill="#FFC727"/>
<path d="M491.016 779.777C500.118 775.426 508.681 769.797 517.303 764.508C525.926 759.218 534.249 754.109 542.693 748.819C559.698 738.181 577.104 727.861 593.391 716.105C593.455 716.046 593.498 715.967 593.511 715.881C593.523 715.794 593.506 715.706 593.461 715.631C593.417 715.556 593.348 715.499 593.266 715.469C593.184 715.439 593.094 715.438 593.012 715.466C574.888 724.468 557.623 735.426 540.397 746.025C531.774 751.348 523.218 756.797 514.729 762.372C506.358 767.513 498.282 773.117 490.537 779.159C490.218 779.458 490.677 779.957 491.016 779.777Z" fill="#263238"/>
<path d="M491.595 756.684C490.257 757.204 489.102 758.109 488.278 759.285C487.454 760.461 486.997 761.855 486.964 763.29C486.98 764.245 486.752 765.188 486.301 766.03C485.851 766.872 485.192 767.584 484.389 768.101C483.504 768.67 482.486 769 481.435 769.059C480.278 769.258 479.08 769.418 477.882 769.737C480.238 770.137 482.613 771.075 485.347 770.017C486.662 769.457 487.784 768.522 488.572 767.33C489.36 766.138 489.779 764.74 489.779 763.31C489.791 762.367 490.048 761.443 490.524 760.628C490.999 759.813 491.678 759.135 492.493 758.66C493.399 758.111 494.429 757.801 495.487 757.761C496.665 757.562 497.862 757.402 499.04 757.103C496.665 756.684 494.409 755.765 491.595 756.684ZM566.106 664.468C565.377 665.13 564.79 665.933 564.382 666.829C563.973 667.724 563.752 668.694 563.73 669.678C563.746 670.63 563.52 671.571 563.074 672.413C562.627 673.254 561.974 673.968 561.175 674.488C560.281 675.054 559.258 675.384 558.201 675.446C557.044 675.646 555.846 675.806 554.649 676.125C557.024 676.524 559.379 677.462 562.114 676.404C563.43 675.847 564.553 674.913 565.341 673.72C566.129 672.527 566.548 671.128 566.545 669.698C566.536 668.598 566.886 667.526 567.543 666.644L566.106 664.468ZM481.615 655.965C480.267 656.495 479.111 657.418 478.295 658.614C477.48 659.81 477.044 661.224 477.044 662.672C477.056 663.626 476.826 664.568 476.376 665.409C475.926 666.25 475.27 666.963 474.469 667.482C473.582 668.048 472.565 668.378 471.515 668.44C470.337 668.64 469.16 668.8 467.962 669.119C470.318 669.518 472.673 670.456 475.427 669.399C476.742 668.84 477.862 667.905 478.646 666.712C479.431 665.519 479.846 664.12 479.838 662.692C479.861 661.751 480.121 660.83 480.596 660.017C481.071 659.203 481.744 658.524 482.553 658.041C483.461 657.498 484.49 657.189 485.547 657.143C486.745 656.943 487.942 656.784 489.1 656.484C486.685 655.965 484.409 655.047 481.615 655.965ZM481.116 570.137C479.801 569.595 478.354 569.456 476.96 569.741C475.566 570.025 474.289 570.719 473.292 571.734C472.606 572.391 471.764 572.862 470.845 573.103C469.927 573.344 468.962 573.347 468.042 573.111C467.019 572.854 466.083 572.33 465.328 571.595C464.33 570.896 463.332 570.197 462.314 569.599C463.711 571.595 464.669 573.85 467.324 575.147C468.635 575.756 470.101 575.951 471.526 575.709C472.952 575.467 474.27 574.798 475.308 573.79C475.966 573.1 476.791 572.591 477.704 572.311C478.616 572.031 479.585 571.991 480.517 572.193C481.548 572.403 482.502 572.893 483.272 573.61C484.25 574.289 485.268 575.008 486.266 575.606C484.828 573.63 483.83 571.275 481.036 570.117L481.116 570.137ZM435.687 525.587C435.127 524.279 434.194 523.166 433.005 522.385C431.816 521.604 430.423 521.19 429 521.196C428.048 521.186 427.116 520.928 426.293 520.449C425.471 519.969 424.787 519.284 424.31 518.461C423.772 517.554 423.482 516.521 423.471 515.467C423.212 514.269 423.092 513.112 422.753 511.914C422.394 514.269 421.435 516.565 422.394 519.379C422.896 520.717 423.789 521.874 424.956 522.699C426.123 523.525 427.511 523.981 428.94 524.01C430.427 523.993 431.862 524.557 432.94 525.583C434.017 526.608 434.652 528.013 434.709 529.499C434.948 530.696 435.068 531.854 435.388 533.052C435.787 530.736 436.765 528.321 435.687 525.567V525.587ZM595.048 743.27C594.502 741.957 593.575 740.836 592.387 740.054C591.199 739.271 589.804 738.862 588.381 738.879C587.433 738.86 586.506 738.601 585.686 738.126C584.866 737.651 584.179 736.977 583.69 736.165C583.161 735.231 582.867 734.183 582.832 733.111C582.593 731.993 582.473 730.795 582.173 729.598C581.754 731.953 580.796 734.229 581.754 737.023C582.251 738.369 583.145 739.532 584.318 740.359C585.49 741.186 586.886 741.637 588.321 741.654C589.279 741.642 590.225 741.876 591.067 742.334C591.909 742.792 592.62 743.458 593.131 744.268C593.733 745.126 594.08 746.136 594.129 747.183C594.249 747.861 594.349 748.52 594.469 749.179L595.187 748.74C595.718 746.94 595.669 745.02 595.048 743.251V743.27ZM532.214 620.756C531.665 619.444 530.738 618.325 529.551 617.543C528.363 616.76 526.969 616.35 525.547 616.365C524.599 616.347 523.671 616.089 522.851 615.614C522.03 615.139 521.344 614.463 520.856 613.65C520.31 612.724 520.014 611.672 519.998 610.596C519.758 609.459 519.639 608.281 519.339 607.083C518.92 609.439 517.962 611.714 518.92 614.509C519.417 615.854 520.311 617.018 521.484 617.845C522.656 618.672 524.052 619.123 525.487 619.139C526.974 619.152 528.4 619.731 529.475 620.758C530.551 621.785 531.194 623.183 531.275 624.668C531.495 625.866 531.635 627.063 531.934 628.201C532.333 625.866 533.311 623.51 532.214 620.756ZM429.639 618.281C429.087 616.972 428.158 615.856 426.972 615.074C425.785 614.293 424.393 613.881 422.972 613.89C422.023 613.878 421.093 613.622 420.272 613.147C419.45 612.671 418.765 611.992 418.282 611.175C417.738 610.255 417.442 609.21 417.424 608.141C417.184 607.004 417.064 605.806 416.765 604.608C416.254 606.415 415.979 608.28 415.946 610.157C416.009 610.802 416.143 611.438 416.346 612.053C416.563 612.675 416.873 613.26 417.264 613.79C417.926 614.667 418.778 615.383 419.756 615.885C420.735 616.386 421.814 616.659 422.913 616.684C424.396 616.697 425.82 617.273 426.894 618.296C427.969 619.319 428.615 620.712 428.701 622.193C428.92 623.391 429.06 624.588 429.36 625.726C429.759 623.411 430.737 621.035 429.639 618.261V618.281ZM529.938 717.901C529.387 716.595 528.462 715.482 527.279 714.7C526.096 713.919 524.709 713.505 523.291 713.51C522.346 713.493 521.421 713.235 520.603 712.76C519.786 712.285 519.103 711.608 518.621 710.796C518.069 709.884 517.76 708.846 517.723 707.782C517.523 706.624 517.363 705.426 517.044 704.249C516.665 706.584 515.727 708.879 516.665 711.694C517.169 713.035 518.069 714.192 519.245 715.012C520.421 715.832 521.818 716.275 523.251 716.285C524.207 716.29 525.146 716.531 525.985 716.987C526.825 717.443 527.538 718.1 528.062 718.899C528.649 719.774 528.968 720.8 528.98 721.853C529.259 723.011 529.379 724.169 529.679 725.366C530.098 723.031 531.056 720.656 529.938 717.881V717.901ZM381.236 477.503C379.854 476.853 378.291 476.691 376.805 477.044C376.805 477.922 376.985 478.8 377.084 479.719C378.179 479.322 379.365 479.252 380.498 479.519C381.521 479.79 382.46 480.312 383.232 481.036C384.21 481.695 385.128 482.453 386.186 483.032C384.869 481.036 383.911 478.84 381.236 477.503Z" fill="white"/>
<path opacity="0.1" d="M544.01 779.458L492.593 810.376C492.593 810.376 392.793 562.054 379.899 497.004C373.651 465.527 375.907 448.741 384.23 444.37L544.01 779.458Z" fill="black"/>
<path d="M441.336 839.817H121.756C117.105 834.328 178.702 543.311 309.101 451.795C350.498 422.753 403.531 434.888 412.374 470.617C450.078 623.151 445.587 834.927 441.336 839.817Z" fill="#FFC727"/>
<path d="M325.108 512.293C323.769 512.806 322.612 513.706 321.787 514.88C320.962 516.053 320.506 517.446 320.478 518.88C320.499 519.836 320.274 520.781 319.822 521.624C319.371 522.466 318.71 523.178 317.903 523.69C317.02 524.264 316.001 524.595 314.949 524.649C313.791 524.868 312.594 525.008 311.396 525.347C313.751 525.726 316.126 526.684 318.861 525.607C320.179 525.062 321.308 524.141 322.107 522.959C322.906 521.777 323.339 520.386 323.352 518.96C323.363 518.016 323.619 517.091 324.095 516.276C324.57 515.461 325.25 514.783 326.067 514.309C326.962 513.753 327.987 513.444 329.041 513.411C330.238 513.192 331.436 513.052 332.613 512.752C330.178 512.293 327.923 511.355 325.108 512.293ZM302.254 667.143C300.918 667.642 299.762 668.531 298.936 669.695C298.11 670.859 297.653 672.243 297.624 673.67C297.645 674.627 297.423 675.573 296.98 676.421C296.537 677.269 295.886 677.991 295.089 678.52C294.194 679.086 293.171 679.416 292.115 679.478C290.937 679.678 289.779 679.838 288.582 680.157C290.917 680.536 293.272 681.494 296.047 680.416C297.349 679.851 298.457 678.916 299.234 677.728C300.011 676.539 300.422 675.15 300.418 673.73C300.446 672.787 300.711 671.867 301.189 671.054C301.667 670.241 302.342 669.562 303.152 669.079C304.061 668.524 305.102 668.22 306.166 668.201C307.364 667.981 308.502 667.822 309.699 667.522C307.384 667.143 305.069 666.185 302.254 667.143ZM441.515 813.39C440.633 813.982 439.603 814.314 438.541 814.348C437.363 814.588 436.206 814.707 435.008 815.047C437.344 815.426 439.699 816.404 442.473 815.346C442.852 815.2 443.213 815.012 443.551 814.787C443.551 813.47 443.651 812.093 443.691 810.675C443.264 811.784 442.504 812.733 441.515 813.39ZM246.845 784.747C245.498 785.236 244.332 786.125 243.504 787.295C242.676 788.465 242.226 789.861 242.215 791.294C242.228 792.249 241.999 793.191 241.549 794.032C241.099 794.874 240.442 795.587 239.64 796.105C238.763 796.694 237.741 797.032 236.686 797.083C235.508 797.302 234.33 797.442 233.153 797.781C235.448 798.16 237.823 799.119 240.598 798.041C241.907 797.482 243.022 796.55 243.803 795.361C244.584 794.171 244.997 792.777 244.989 791.354C245.017 790.409 245.28 789.485 245.754 788.666C246.228 787.847 246.898 787.159 247.704 786.663C248.63 786.12 249.683 785.83 250.757 785.825C251.915 785.566 253.073 785.446 254.25 785.147C251.915 784.747 249.64 783.769 246.845 784.747ZM389.32 555.746C387.975 556.246 386.814 557.14 385.987 558.312C385.161 559.484 384.708 560.879 384.689 562.313C384.711 563.269 384.485 564.214 384.034 565.057C383.583 565.899 382.921 566.611 382.114 567.123C381.249 567.707 380.242 568.045 379.2 568.101C378.002 568.301 376.805 568.461 375.647 568.76C377.963 569.179 380.338 570.137 383.072 569.02C384.387 568.477 385.511 567.555 386.3 566.371C387.089 565.187 387.508 563.796 387.503 562.373C387.509 561.423 387.763 560.49 388.239 559.668C388.715 558.845 389.397 558.161 390.218 557.682C391.137 557.178 392.164 556.904 393.212 556.884C394.37 556.644 395.567 556.525 396.725 556.205C394.39 555.746 392.134 554.888 389.32 555.746ZM143.293 790.855C141.948 791.355 140.787 792.249 139.96 793.421C139.134 794.593 138.681 795.988 138.662 797.422C138.678 798.377 138.45 799.32 137.999 800.161C137.548 801.003 136.89 801.716 136.087 802.232C135.204 802.806 134.185 803.136 133.133 803.19C131.976 803.43 130.778 803.55 129.62 803.869C131.916 804.268 134.271 805.246 137.045 804.168C138.354 803.61 139.47 802.678 140.251 801.488C141.032 800.299 141.444 798.905 141.437 797.482C141.467 796.537 141.73 795.614 142.204 794.795C142.678 793.977 143.347 793.288 144.151 792.791C145.075 792.24 146.129 791.944 147.205 791.933C148.363 791.693 149.54 791.534 150.738 791.234C148.363 790.855 146.107 789.937 143.293 790.855ZM192.494 667.103C191.15 667.603 189.988 668.497 189.162 669.669C188.335 670.841 187.883 672.236 187.864 673.67C187.879 674.625 187.651 675.568 187.2 676.409C186.75 677.251 186.092 677.964 185.289 678.48C184.405 679.054 183.386 679.384 182.335 679.438C181.177 679.678 179.979 679.798 178.822 680.117C181.117 680.516 183.472 681.494 186.247 680.416C187.556 679.858 188.671 678.926 189.452 677.736C190.233 676.547 190.646 675.153 190.638 673.73C190.666 672.784 190.929 671.861 191.403 671.042C191.877 670.223 192.547 669.535 193.353 669.039C194.277 668.488 195.33 668.192 196.406 668.181C197.564 667.941 198.742 667.782 199.939 667.482C197.604 667.123 195.309 666.185 192.494 667.123V667.103ZM430.777 708.7C429.432 709.199 428.27 710.094 427.444 711.266C426.617 712.438 426.165 713.833 426.146 715.267C426.162 716.221 425.934 717.164 425.483 718.006C425.032 718.848 424.374 719.561 423.571 720.077C422.688 720.651 421.669 720.981 420.617 721.035C419.459 721.275 418.262 721.394 417.104 721.714C419.399 722.113 421.755 723.091 424.529 722.013C425.838 721.455 426.953 720.522 427.735 719.333C428.516 718.143 428.928 716.75 428.92 715.326C428.949 714.381 429.212 713.457 429.686 712.638C430.159 711.82 430.829 711.132 431.635 710.636C432.559 710.085 433.613 709.789 434.689 709.778C435.847 709.538 437.024 709.378 438.222 709.079C435.847 708.72 433.591 707.782 430.777 708.72V708.7ZM259.32 627.463C258.003 626.922 256.555 626.787 255.161 627.075C253.767 627.363 252.491 628.061 251.496 629.079C250.804 629.733 249.958 630.202 249.037 630.442C248.117 630.683 247.15 630.688 246.227 630.457C245.202 630.193 244.265 629.663 243.512 628.92C242.534 628.241 241.516 627.522 240.498 626.924C241.895 628.92 242.853 631.155 245.508 632.472C246.821 633.081 248.289 633.275 249.715 633.029C251.141 632.783 252.459 632.108 253.492 631.095C254.155 630.405 254.984 629.898 255.9 629.622C256.816 629.345 257.788 629.31 258.721 629.518C259.744 629.725 260.69 630.208 261.456 630.916C262.454 631.614 263.452 632.333 264.45 632.912C263.013 631.015 262.035 628.74 259.32 627.482V627.463ZM388.382 777.163C387.059 776.64 385.612 776.519 384.22 776.813C382.829 777.108 381.555 777.806 380.557 778.819C379.87 779.467 379.031 779.932 378.117 780.169C377.203 780.406 376.243 780.409 375.328 780.176C374.285 779.94 373.331 779.414 372.573 778.66C371.595 778.001 370.577 777.262 369.579 776.664C370.957 778.66 371.955 780.875 374.569 782.192C375.883 782.798 377.35 782.991 378.775 782.745C380.201 782.499 381.518 781.826 382.553 780.815C383.218 780.129 384.048 779.625 384.964 779.352C385.88 779.08 386.851 779.047 387.783 779.258C388.814 779.44 389.766 779.927 390.517 780.656C391.535 781.314 392.513 782.073 393.511 782.652C392.114 780.795 391.096 778.44 388.382 777.242V777.163ZM384.39 649.838C383.064 649.31 381.613 649.182 380.216 649.469C378.818 649.756 377.535 650.446 376.525 651.454C375.844 652.111 375.005 652.582 374.09 652.823C373.174 653.064 372.213 653.067 371.296 652.832C370.271 652.564 369.331 652.043 368.561 651.315C367.563 650.656 366.565 649.898 365.567 649.319C366.965 651.315 367.923 653.53 370.557 654.848C371.869 655.462 373.338 655.659 374.766 655.413C376.193 655.166 377.511 654.489 378.541 653.47C379.204 652.792 380.026 652.291 380.934 652.016C381.841 651.74 382.803 651.698 383.731 651.894C384.776 652.11 385.742 652.607 386.525 653.331C387.503 653.989 388.521 654.728 389.499 655.327C388.022 653.47 387.044 651.115 384.33 649.918L384.39 649.838ZM193.951 826.783C192.635 826.24 191.186 826.104 189.791 826.392C188.397 826.68 187.12 827.379 186.127 828.4C185.441 829.05 184.602 829.515 183.687 829.752C182.773 829.99 181.813 829.991 180.897 829.757C179.868 829.503 178.924 828.979 178.163 828.24C177.145 827.562 176.167 826.843 175.169 826.244C176.546 828.24 177.504 830.496 180.159 831.813C181.46 832.397 182.907 832.577 184.312 832.332C185.717 832.086 187.017 831.426 188.043 830.436C188.71 829.752 189.54 829.249 190.455 828.973C191.369 828.697 192.339 828.658 193.273 828.859C194.313 829.048 195.276 829.533 196.047 830.256C197.065 830.935 198.043 831.653 199.041 832.252C197.604 830.336 196.666 827.941 193.951 826.783ZM206.466 582.153C206.147 582.752 205.847 583.351 205.548 583.97C206.455 584.205 207.29 584.657 207.983 585.287C209.001 585.986 209.979 586.704 210.957 587.283C209.918 585.221 208.373 583.456 206.466 582.153ZM307.823 753.809C306.506 753.269 305.058 753.134 303.664 753.422C302.27 753.71 300.994 754.408 299.999 755.426C299.313 756.076 298.474 756.543 297.56 756.784C296.646 757.025 295.686 757.031 294.769 756.803C293.736 756.542 292.788 756.019 292.015 755.286C290.997 754.588 290.019 753.869 289.041 753.29C290.398 755.286 291.356 757.522 294.011 758.839C295.311 759.431 296.759 759.616 298.166 759.37C299.573 759.125 300.873 758.459 301.895 757.462C302.95 756.417 304.366 755.816 305.851 755.782C307.336 755.749 308.778 756.286 309.879 757.282C310.897 757.981 311.875 758.7 312.873 759.278C311.516 757.282 310.538 754.927 307.823 753.749V753.809ZM316.266 454.11C315.858 453.151 315.242 452.295 314.462 451.604C313.681 450.914 312.757 450.406 311.755 450.118C310.877 450.677 309.979 451.276 309.101 451.894L308.322 452.453C308.723 452.534 309.131 452.574 309.54 452.573C310.488 452.562 311.425 452.791 312.262 453.237C313.099 453.684 313.81 454.334 314.33 455.128C314.928 456.007 315.26 457.039 315.288 458.102C315.548 459.26 315.667 460.457 315.967 461.615C316.366 459.18 317.364 456.824 316.266 454.05V454.11ZM246.865 717.881C246.298 716.578 245.364 715.469 244.176 714.689C242.989 713.909 241.6 713.493 240.179 713.49C239.237 713.468 238.317 713.207 237.503 712.732C236.69 712.258 236.01 711.584 235.528 710.776C234.976 709.864 234.667 708.826 234.63 707.762C234.43 706.604 234.271 705.406 233.971 704.229C233.592 706.564 232.634 708.859 233.592 711.674C234.092 713.011 234.985 714.165 236.153 714.984C237.322 715.804 238.711 716.25 240.139 716.265C241.097 716.266 242.041 716.506 242.884 716.963C243.727 717.419 244.443 718.078 244.969 718.879C245.543 719.763 245.873 720.782 245.927 721.833C246.127 722.991 246.286 724.149 246.606 725.346C246.985 723.031 247.943 720.656 246.865 717.881ZM264.21 562.074C263.654 560.763 262.723 559.646 261.533 558.865C260.342 558.083 258.948 557.672 257.524 557.682C256.577 557.673 255.649 557.418 254.83 556.942C254.011 556.466 253.33 555.786 252.853 554.968C252.305 554.057 252.008 553.017 251.995 551.954C251.755 550.796 251.636 549.599 251.296 548.401C250.917 550.796 249.959 553.052 250.917 555.866C251.419 557.209 252.314 558.369 253.486 559.195C254.657 560.021 256.051 560.475 257.484 560.497C258.436 560.481 259.377 560.707 260.219 561.154C261.06 561.6 261.774 562.253 262.294 563.052C262.872 563.926 263.203 564.939 263.252 565.986C263.492 567.183 263.612 568.381 263.931 569.539C264.33 567.243 265.308 564.868 264.21 562.074ZM422.034 515.687C421.874 516.922 421.996 518.178 422.393 519.359C422.532 519.763 422.713 520.151 422.932 520.517C422.653 518.96 422.354 517.283 422.034 515.687ZM332.074 601.175C331.511 599.864 330.571 598.748 329.374 597.97C328.176 597.192 326.776 596.786 325.348 596.804C324.397 596.78 323.467 596.515 322.646 596.033C321.826 595.552 321.141 594.869 320.657 594.049C320.126 593.141 319.844 592.108 319.839 591.055C319.56 589.878 319.44 588.7 319.12 587.503C318.761 589.878 317.803 592.173 318.761 594.968C319.253 596.309 320.141 597.469 321.306 598.296C322.471 599.123 323.86 599.577 325.288 599.598C326.24 599.584 327.181 599.811 328.022 600.258C328.863 600.704 329.577 601.356 330.098 602.153C330.697 603.025 331.029 604.051 331.057 605.107C331.296 606.305 331.416 607.463 331.755 608.66C332.154 606.345 333.132 603.91 332.074 601.175ZM429.639 618.261C429.086 616.952 428.158 615.836 426.972 615.054C425.785 614.273 424.393 613.861 422.972 613.87C422.023 613.858 421.093 613.602 420.272 613.127C419.45 612.651 418.765 611.972 418.282 611.155C417.738 610.235 417.442 609.19 417.423 608.121C417.184 606.984 417.064 605.786 416.765 604.588C416.346 606.944 415.388 609.219 416.346 612.033C416.847 613.376 417.743 614.537 418.914 615.363C420.086 616.189 421.479 616.642 422.912 616.664C424.396 616.677 425.819 617.253 426.894 618.276C427.969 619.299 428.615 620.692 428.701 622.173C428.92 623.371 429.06 624.568 429.36 625.706C429.759 623.411 430.737 621.035 429.639 618.261ZM317.983 836.563C317.435 835.251 316.507 834.132 315.32 833.35C314.132 832.568 312.738 832.158 311.316 832.172C310.373 832.148 309.451 831.884 308.638 831.406C307.824 830.927 307.145 830.25 306.665 829.438C306.114 828.526 305.805 827.489 305.767 826.424C305.568 825.266 305.408 824.069 305.089 822.911C304.689 825.226 303.771 827.542 304.689 830.336C305.199 831.68 306.102 832.839 307.281 833.661C308.46 834.484 309.859 834.932 311.296 834.947C312.249 834.951 313.187 835.19 314.026 835.643C314.865 836.095 315.579 836.747 316.106 837.542C316.558 838.225 316.845 839.004 316.945 839.817H318.482C318.574 838.708 318.403 837.594 317.983 836.563ZM188.862 762.472C188.313 761.16 187.386 760.041 186.199 759.259C185.011 758.476 183.617 758.066 182.195 758.081C181.27 758.046 180.368 757.779 179.573 757.304C178.778 756.83 178.115 756.164 177.644 755.366C177.081 754.46 176.771 753.419 176.746 752.352C176.526 751.195 176.387 749.997 176.067 748.839C175.668 751.155 174.75 753.47 175.668 756.264C176.175 757.61 177.078 758.77 178.257 759.593C179.436 760.416 180.837 760.863 182.275 760.875C183.228 760.88 184.165 761.119 185.004 761.571C185.843 762.024 186.558 762.676 187.085 763.47C187.658 764.351 187.976 765.373 188.003 766.424C188.283 767.582 188.402 768.759 188.682 769.957C189.001 767.622 189.959 765.266 188.862 762.472ZM357.064 717.861C356.51 716.554 355.581 715.439 354.395 714.658C353.209 713.877 351.818 713.464 350.398 713.47C349.456 713.45 348.535 713.19 347.721 712.715C346.907 712.24 346.228 711.566 345.747 710.756C345.185 709.849 344.874 708.808 344.849 707.742C344.629 706.584 344.49 705.386 344.17 704.209C343.771 706.544 342.853 708.839 343.771 711.654C344.279 712.997 345.183 714.155 346.362 714.974C347.542 715.794 348.942 716.237 350.378 716.245C351.333 716.25 352.272 716.491 353.112 716.947C353.951 717.404 354.664 718.06 355.188 718.859C355.767 719.738 356.085 720.762 356.106 721.813C356.386 722.971 356.506 724.129 356.785 725.326C357.284 723.031 358.162 720.656 357.064 717.881V717.861ZM381.236 477.503C379.924 476.895 378.459 476.699 377.033 476.941C375.608 477.184 374.289 477.853 373.252 478.86C372.209 479.925 370.794 480.542 369.304 480.583C367.815 480.624 366.368 480.085 365.268 479.08C364.27 478.401 363.272 477.643 362.254 477.084C363.631 479.08 364.649 481.355 367.364 482.553C368.681 483.091 370.129 483.224 371.522 482.936C372.916 482.648 374.192 481.952 375.188 480.936C375.87 480.28 376.708 479.808 377.624 479.567C378.539 479.326 379.501 479.323 380.418 479.559C381.465 479.806 382.433 480.314 383.232 481.036C384.21 481.695 385.128 482.453 386.186 483.032C384.869 481.036 383.911 478.84 381.236 477.503Z" fill="white"/>
<path d="M391.216 502.333C373.851 502.333 351.396 470.776 344.929 447.862C344.51 446.286 363.192 391.795 365.767 380.617C366.286 378.302 432.074 413.851 432.074 413.851C432.074 413.851 419.759 435.687 415.388 455.208C415.028 456.844 408.002 502.233 391.216 502.333Z" fill="#F7A9A0"/>
<path d="M432.074 413.831C432.074 413.831 419.759 435.687 415.368 455.208C415.368 455.607 414.829 458.441 413.97 462.533C381.316 451.755 364.789 426.385 357.045 409.1C361.037 396.745 364.729 385.148 365.767 380.617C366.306 378.322 432.074 413.831 432.074 413.831Z" fill="#263238"/>
<path d="M472.254 294.57C472.254 294.57 491.515 311.316 488.042 335.408C484.569 359.5 471.415 381.595 469.06 382.094C466.705 382.593 472.254 294.57 472.254 294.57Z" fill="#263238"/>
<path d="M375.048 294.091C359.08 315.508 347.104 389.479 358.641 411.056C375.448 442.354 415.308 458.96 445.048 436.026C473.87 413.751 487.902 317.085 473.791 296.186C453.092 265.468 398.581 262.454 375.048 294.091Z" fill="#F7A9A0"/>
<path d="M453.331 368.102C453.331 367.923 453.651 368.442 453.611 368.641C452.174 373.551 451.375 379.42 455.447 382.214C455.567 382.214 455.447 382.533 455.327 382.474C450.058 380.318 451.196 372.533 453.331 368.102Z" fill="#263238"/>
<path d="M459.08 364.07C467.184 365.488 463.731 381.635 456.226 380.298C448.721 378.961 452.274 362.873 459.08 364.07Z" fill="#263238"/>
<path d="M409.18 405.567C410.018 407.044 410.717 408.98 412.453 409.659C414.287 410.154 416.204 410.263 418.082 409.978C418.122 409.972 418.162 409.978 418.198 409.997C418.233 410.017 418.261 410.047 418.277 410.084C418.293 410.12 418.296 410.161 418.286 410.2C418.276 410.239 418.254 410.273 418.222 410.298C417.239 411.072 416.063 411.564 414.821 411.718C413.579 411.873 412.319 411.686 411.176 411.176C410.255 410.62 409.519 409.804 409.061 408.831C408.602 407.858 408.443 406.771 408.601 405.707C408.561 405.328 408.96 405.348 409.18 405.567Z" fill="#263238"/>
<path d="M440.358 389.44C440.358 389.44 439.659 397.104 438.821 400.617C438.821 400.937 428.98 397.763 417.883 398.821C416.226 398.98 416.545 397.683 418.521 397.044C422.513 395.787 427.403 394.749 436.485 396.865C436.964 395.947 437.383 385.028 437.942 385.128C440.608 386.007 443.145 387.235 445.487 388.781C447.483 372.813 446.825 356.725 449 340.877C449.023 340.764 449.084 340.663 449.173 340.59C449.263 340.517 449.374 340.477 449.489 340.477C449.604 340.477 449.716 340.517 449.805 340.59C449.894 340.663 449.955 340.764 449.978 340.877C451.815 357.723 449.978 376.126 448.361 392.633C448.222 394.689 441.635 390.358 440.358 389.44Z" fill="#263238"/>
<path d="M427.244 352.653C424.968 352.953 422.833 352.833 420.577 352.913C418.002 352.913 415.986 353.312 413.711 351.875C413.135 351.407 412.725 350.766 412.541 350.047C412.358 349.328 412.411 348.569 412.693 347.883C414.17 344.969 417.284 344.11 420.358 343.891C423.45 343.566 426.554 344.405 429.06 346.246C429.59 346.703 429.978 347.302 430.179 347.972C430.38 348.642 430.386 349.356 430.195 350.029C430.004 350.702 429.625 351.306 429.102 351.771C428.579 352.236 427.935 352.542 427.244 352.653Z" fill="#263238"/>
<path d="M467.882 344.53C465.91 343.5 463.998 342.361 462.154 341.116C459.978 339.779 458.162 338.941 456.964 336.526C456.716 335.802 456.717 335.016 456.967 334.293C457.216 333.57 457.7 332.95 458.342 332.534C461.156 330.917 464.329 331.875 466.924 333.372C469.69 334.798 471.824 337.203 472.912 340.118C473.126 340.795 473.139 341.519 472.948 342.203C472.758 342.886 472.372 343.499 471.838 343.967C471.305 344.435 470.647 344.737 469.944 344.837C469.242 344.937 468.525 344.83 467.882 344.53Z" fill="#263238"/>
<path d="M409.38 360.318C410.916 359.919 412.505 359.757 414.09 359.839C415.725 359.924 417.339 360.247 418.881 360.797C420.492 361.417 421.974 362.331 423.252 363.492C424.561 364.771 425.57 366.326 426.206 368.042L427.364 371.156L424.21 370.378C421.99 369.812 419.714 369.497 417.424 369.44C415.041 369.319 412.667 369.821 410.537 370.897C412.135 368.746 414.516 367.311 417.164 366.905C419.774 366.413 422.457 366.46 425.048 367.044L423.152 369.26C422.092 366.777 420.21 364.733 417.823 363.472C415.159 362.054 412.32 360.994 409.38 360.318Z" fill="#263238"/>
<path d="M416.845 374.729C419.325 374.456 421.76 373.866 424.09 372.973C424.629 372.693 426.765 371.495 426.705 370.977C426.611 369.704 426.349 368.448 425.927 367.244C426.681 368.372 427.197 369.642 427.443 370.977C427.209 371.658 426.826 372.278 426.322 372.792C425.818 373.307 425.205 373.702 424.529 373.951C422.087 374.907 419.429 375.177 416.845 374.729Z" fill="#263238"/>
<path d="M432.254 398.561C432.254 398.561 425.487 405.966 418.801 406.106C411.116 406.266 411.136 399.38 419.958 396.625C424.569 395.208 432.254 398.561 432.254 398.561Z" fill="#263238"/>
<path d="M418.821 406.086C421.716 405.87 424.488 404.823 426.805 403.072C425.587 400.537 422.314 397.483 413.671 400.757C412.174 403.511 413.97 406.206 418.821 406.086Z" fill="#FF99BA"/>
<path d="M359.979 363.571C368.282 367.563 382.254 342.913 386.605 333.272C390.458 324.789 397.583 297.105 398.302 295.248C399.02 293.392 432.473 325.887 455.367 322.793C478.262 319.699 495.906 302.254 497.603 293.113C499.299 283.971 475.647 256.526 452.234 251.755C428.821 246.985 392.354 272.115 392.354 272.115C392.354 272.115 405.148 260.817 404.949 259.7C404.749 258.582 388.581 262.354 384.15 272.773C384.15 272.773 389.22 259.62 388.142 259.181C387.064 258.741 373.432 268.622 374.769 277.863C374.769 277.863 359.28 287.644 356.047 300.458C352.813 313.272 350.238 358.881 359.979 363.571Z" fill="#263238"/>
<path d="M471.655 320.578C464.509 322.574 457.324 325.009 449.699 324.849C441.575 324.689 433.731 321.436 426.645 317.484C419.554 313.402 413.176 308.191 407.763 302.055C402.953 296.705 398.921 290.538 393.671 285.608C392.374 284.39 390.338 286.246 391.036 287.723C397.903 302.414 411.955 315.947 426.386 323.053C441.575 330.538 457.124 329.24 471.615 320.777C471.795 320.717 471.775 320.558 471.655 320.578Z" fill="#263238"/>
<path d="M369.579 359.739C369.579 359.739 361.316 331.795 349.16 334.051C337.005 336.306 337.943 372.993 348.502 381.515C349.781 382.702 351.287 383.617 352.929 384.206C354.571 384.795 356.316 385.046 358.057 384.944C359.799 384.841 361.502 384.387 363.063 383.61C364.625 382.832 366.013 381.746 367.144 380.418L369.579 359.739Z" fill="#F7A9A0"/>
<path d="M349.699 344.569C349.661 344.557 349.619 344.559 349.582 344.573C349.544 344.587 349.512 344.614 349.492 344.649C349.471 344.683 349.462 344.724 349.468 344.763C349.473 344.803 349.491 344.841 349.52 344.869C356.825 351.116 358.661 360.438 359.06 369.599C357.603 365.607 354.749 362.773 349.56 364.37C349.28 364.37 349.38 364.869 349.56 364.889C351.204 364.916 352.799 365.45 354.128 366.418C355.457 367.387 356.455 368.741 356.985 370.298C357.844 372.889 358.42 375.566 358.701 378.282C358.861 379.16 360.358 379.22 360.358 378.282V378.082C364.25 367.404 360.897 349.52 349.699 344.569Z" fill="#263238"/>
<path d="M439.38 417.603C433.051 429.131 427.767 441.201 423.591 453.671C422.593 456.845 421.695 460.018 420.996 463.152C420.996 463.272 420.996 463.571 420.837 464.05C420.837 464.23 420.837 464.449 420.717 464.689C420.477 465.966 420.118 467.942 419.619 470.377C419.61 470.504 419.61 470.63 419.619 470.757C419.611 470.803 419.611 470.85 419.619 470.896C419.629 470.844 419.629 470.789 419.619 470.737C408.721 448.59 403.729 424.003 405.128 399.36L409.799 401.815L413.012 403.511L416.146 405.168L418.96 406.645L420.637 407.523L423.332 408.96L426.026 410.398L428.541 411.735L430.857 412.972L439.38 417.603Z" fill="#F7A9A0"/>
<path d="M439.38 417.583C433.051 429.111 427.767 441.181 423.591 453.651C422.593 456.825 421.695 459.998 420.996 463.132C420.996 463.252 420.996 463.551 420.837 464.03C420.837 464.21 420.837 464.429 420.717 464.669C420.477 465.946 420.118 467.922 419.619 470.357C419.628 470.477 419.628 470.597 419.619 470.717C408.721 448.57 403.729 423.983 405.128 399.34L409.799 401.795C410.877 402.354 411.955 402.913 413.012 403.491L416.146 405.148L418.96 406.625L420.657 407.543L423.352 408.98C424.296 409.459 425.195 409.938 426.046 410.417L428.561 411.755L430.877 412.992L439.38 417.583Z" fill="#263238"/>
<path d="M483.631 286.266C483.631 286.266 504.848 304.709 500.996 331.236C497.144 357.763 482.693 382.074 480.118 382.633C477.543 383.192 483.631 286.266 483.631 286.266Z" fill="#263238"/>
<path d="M484.669 376.885C478.242 405.028 467.503 431.296 453.671 441.974C445.037 448.783 434.558 452.844 423.591 453.631C419.843 453.888 416.079 453.774 412.354 453.292C406.483 435.963 404.003 417.666 405.048 399.4C405.726 387.663 407.837 376.053 411.336 364.829C413.169 358.961 415.369 353.215 417.923 347.623C417.629 346.741 417.672 345.781 418.042 344.929C418.616 343.8 419.485 342.848 420.557 342.174C424.786 333.889 429.82 326.04 435.587 318.741C436.725 317.264 437.903 315.827 439.1 314.43C439.739 313.671 440.398 312.933 441.096 312.194C452.174 299.771 465.323 289.364 479.958 281.436C481.786 283.378 483.467 285.453 484.988 287.644L485.308 288.123C488.122 292.294 489.918 299.24 490.777 307.943C492.633 326.166 490.298 352.234 484.669 376.885Z" fill="#F7A9A0"/>
<path d="M462.793 367.264C462.793 367.064 463.152 367.623 463.092 367.843C461.515 373.252 460.637 379.719 465.088 382.773C465.228 382.873 465.088 383.152 464.968 383.072C459.18 380.677 460.437 372.114 462.793 367.264Z" fill="#263238"/>
<path d="M469.06 362.793C477.982 364.35 474.19 382.114 465.906 380.757C457.623 379.4 461.615 361.476 469.06 362.793Z" fill="#263238"/>
<path d="M414.07 408.481C414.988 410.118 415.767 412.234 417.683 412.972C419.696 413.531 421.806 413.654 423.871 413.332C423.916 413.32 423.964 413.325 424.006 413.346C424.049 413.367 424.082 413.401 424.101 413.444C424.12 413.487 424.124 413.535 424.111 413.581C424.098 413.626 424.069 413.665 424.03 413.691C422.944 414.524 421.652 415.047 420.292 415.205C418.932 415.364 417.554 415.151 416.306 414.589C415.296 413.981 414.489 413.088 413.985 412.023C413.481 410.958 413.302 409.767 413.471 408.601C413.491 408.222 413.93 408.222 414.07 408.481Z" fill="#263238"/>
<path d="M448.521 390.717C448.521 390.717 447.723 399.16 446.825 403.032C446.725 403.392 435.966 399.879 423.771 401.036C421.934 401.196 422.274 399.779 424.449 399.04C428.801 397.643 434.25 396.505 444.29 398.841C444.809 397.823 445.268 385.807 445.886 385.907C448.819 386.863 451.612 388.205 454.19 389.899C456.345 372.354 455.667 354.609 458.062 337.164C458.062 337.021 458.119 336.884 458.22 336.783C458.321 336.682 458.458 336.625 458.601 336.625C458.744 336.625 458.881 336.682 458.982 336.783C459.083 336.884 459.14 337.021 459.14 337.164C461.136 355.727 459.14 375.967 457.363 394.15C457.084 396.505 449.898 391.735 448.521 390.717Z" fill="#263238"/>
<path d="M434.05 350.198C431.615 350.428 429.17 350.528 426.725 350.498C423.891 350.498 421.655 350.937 419.18 349.36C418.569 348.93 418.125 348.302 417.923 347.583C417.629 346.701 417.672 345.742 418.042 344.889C418.616 343.76 419.485 342.808 420.557 342.134C422.389 341.107 424.445 340.545 426.545 340.498C429.953 340.147 433.369 341.08 436.126 343.112C436.744 343.607 437.2 344.274 437.438 345.028C437.676 345.783 437.684 346.591 437.462 347.351C437.239 348.11 436.796 348.786 436.189 349.293C435.581 349.8 434.837 350.115 434.05 350.198Z" fill="#263238"/>
<path d="M478.821 341.316C476.651 340.182 474.545 338.93 472.513 337.563C470.098 336.086 468.022 335.168 466.805 332.494C466.536 331.705 466.537 330.849 466.808 330.062C467.079 329.274 467.604 328.599 468.302 328.142C471.395 326.346 474.789 327.404 477.763 329.061C480.812 330.618 483.169 333.259 484.369 336.466C484.62 337.213 484.644 338.018 484.438 338.778C484.232 339.539 483.805 340.222 483.212 340.741C482.618 341.259 481.885 341.591 481.103 341.693C480.322 341.795 479.528 341.664 478.821 341.316Z" fill="#263238"/>
<path d="M414.39 358.641C417.851 357.771 421.495 357.959 424.849 359.18C426.632 359.859 428.27 360.868 429.679 362.154C431.134 363.591 432.246 365.338 432.932 367.264L434.21 370.677L430.737 369.819C428.283 369.225 425.775 368.884 423.252 368.801C420.628 368.668 418.015 369.219 415.667 370.398C417.427 368.013 420.048 366.409 422.972 365.927C425.839 365.371 428.791 365.426 431.635 366.086L429.459 368.641C428.279 365.905 426.203 363.652 423.571 362.254C420.675 360.668 417.59 359.454 414.39 358.641Z" fill="#263238"/>
<path d="M422.633 374.509C425.372 374.207 428.058 373.536 430.617 372.513C431.216 372.234 433.551 370.897 433.491 370.517C433.389 369.108 433.101 367.719 432.633 366.386C433.452 367.636 434.021 369.032 434.31 370.497C434.048 371.246 433.624 371.927 433.069 372.493C432.513 373.059 431.84 373.495 431.096 373.771C428.395 374.785 425.469 375.04 422.633 374.509Z" fill="#263238"/>
<path d="M439.579 400.777C439.579 400.777 432.134 408.921 424.769 409.08C416.306 409.26 416.326 401.655 426.026 398.641C431.136 397.044 439.579 400.777 439.579 400.777Z" fill="#263238"/>
<path d="M424.789 409.06C428.011 408.824 431.098 407.674 433.691 405.747C432.334 402.933 428.741 399.579 419.22 403.192C417.483 406.226 419.459 409.18 424.789 409.06Z" fill="#FF99BA"/>
<path d="M511.535 284.67C510.597 289.799 505.068 297.324 496.525 303.911C494.692 305.349 492.78 306.682 490.796 307.903C488.015 309.668 485.099 311.21 482.074 312.514C476.661 314.922 470.936 316.554 465.068 317.364C457.663 318.362 449.26 315.987 441.116 312.174C452.189 299.76 465.331 289.36 479.958 281.436C488.178 276.956 496.824 273.306 505.766 270.538C509.918 276.246 512.134 281.436 511.535 284.67Z" fill="#263238"/>
<path d="M483.032 315.109L481.914 315.747C467.024 324.091 451.176 325.548 435.607 318.701C436.745 317.224 437.922 315.787 439.12 314.39C445.276 317.511 452.025 319.287 458.92 319.6C466.904 319.759 474.429 317.384 481.934 315.208L482.952 314.909C483.032 314.869 483.032 315.049 483.032 315.109Z" fill="#263238"/>
<path d="M441.245 682.459L480.251 694.622L517.919 573.833L478.913 561.669L441.245 682.459Z" fill="#EBEBEB"/>
<path d="M599.758 242.554C567.14 232.382 532.237 232.111 499.465 241.776C466.693 251.44 437.522 270.605 415.642 296.848C393.762 323.091 380.156 355.233 376.543 389.209C372.931 423.186 379.474 457.47 395.347 487.727C411.219 517.984 435.708 542.855 465.715 559.194C495.723 575.534 529.901 582.608 563.93 579.523C597.958 576.437 630.306 563.33 656.885 541.86C683.464 520.389 703.08 491.519 713.251 458.9C720.007 437.243 722.43 414.467 720.383 391.873C718.335 369.278 711.857 347.309 701.318 327.219C690.779 307.128 676.385 289.311 658.96 274.784C641.534 260.257 621.417 249.305 599.758 242.554ZM685.327 450.138C676.889 477.238 660.603 501.227 638.53 519.071C616.456 536.914 589.587 547.811 561.32 550.382C533.054 552.953 504.659 547.083 479.729 533.515C454.798 519.947 434.452 499.29 421.262 474.157C408.073 449.024 402.634 420.544 405.632 392.32C408.631 364.095 419.933 337.394 438.108 315.593C456.284 293.792 480.517 277.872 507.741 269.845C534.966 261.818 563.96 262.045 591.056 270.498C627.383 281.831 657.722 307.129 675.4 340.828C693.079 374.527 696.649 413.867 685.327 450.198V450.138Z" fill="#455A64"/>
<path d="M387.184 820.575L446.166 838.959L501.315 662.093L442.334 643.71L387.184 820.575Z" fill="#263238"/>
<g opacity="0.3">
<path d="M411.356 364.789C402.91 391.886 402.69 420.878 410.723 448.1C418.757 475.322 434.682 499.55 456.486 517.72C478.29 535.89 504.993 547.186 533.217 550.179C561.441 553.172 589.919 547.727 615.048 534.534C640.178 521.341 660.831 500.992 674.395 476.06C687.958 451.129 693.824 422.735 691.249 394.47C688.674 366.204 677.775 339.337 659.93 317.267C642.085 295.196 618.095 278.913 590.996 270.478C554.667 259.17 515.335 262.753 481.648 280.438C447.961 298.124 422.677 328.465 411.356 364.789Z" fill="white"/>
<path d="M404.829 404.869C404.204 442.681 418.509 479.215 444.641 506.55C470.773 533.886 506.627 549.819 544.429 550.896L404.829 404.869Z" fill="#EBEBEB"/>
<path d="M480.218 281.197L671.415 481.315C677.291 471.541 681.981 461.102 685.387 450.218C689.31 437.751 691.48 424.799 691.834 411.735L550.696 264.031C526.12 263.615 501.85 269.526 480.218 281.197Z" fill="#EBEBEB"/>
<path d="M416.306 351.296L598.421 541.914C607.229 538.612 615.698 534.468 623.71 529.539L429.779 326.546C424.455 334.315 419.941 342.608 416.306 351.296Z" fill="#EBEBEB"/>
<path d="M463.611 291.695L660.157 497.443C661.255 496.086 662.333 494.729 663.371 493.331L467.763 288.701C466.425 289.66 465.068 290.638 463.611 291.695Z" fill="#EBEBEB"/>
<path d="M597.882 272.793L685.127 364.11C683.85 360.118 682.353 355.967 680.676 352.015L609.718 277.743C605.912 275.934 601.967 274.284 597.882 272.793Z" fill="#EBEBEB"/>
</g>
<path d="M643.151 438.182C643.151 438.002 643.151 437.823 643.311 437.643C643.969 435.048 642.752 440.218 643.111 438.461C643.55 436.465 643.969 434.29 644.309 432.174C645.479 424.801 646.033 417.343 645.965 409.879C645.965 408.821 645.965 407.883 645.965 406.725C645.965 406.386 646.085 409.22 645.965 406.964C645.965 406.306 645.965 405.667 645.846 404.968C645.706 402.493 645.466 400.018 645.167 397.543C644.528 392.1 643.528 386.706 642.173 381.396C641.834 380.138 641.474 378.881 641.115 377.603C640.656 375.907 641.754 379.599 641.015 377.264C640.756 376.505 640.516 375.767 640.277 375.008C639.299 372.174 638.281 369.38 637.023 366.625C635.766 363.871 634.329 360.637 632.792 357.883C632.093 356.565 631.355 355.268 630.596 353.891C629.299 351.675 631.215 354.789 630.197 353.232C629.698 352.494 629.219 351.735 628.74 350.977C624.235 344.345 619.094 338.168 613.391 332.534C613.271 332.414 612.233 331.416 613.091 332.234C613.95 333.053 612.612 331.815 612.473 331.655L609.818 329.3C608.081 327.803 606.325 326.346 604.528 324.929C600.716 321.955 596.744 319.2 592.652 316.605C587.962 313.631 587.303 306.506 590.437 302.234C592.083 300.082 594.498 298.649 597.177 298.236C599.855 297.823 602.59 298.462 604.808 300.019C630.756 316.446 651.135 340.817 660.257 370.318C666.382 390.161 668.065 411.109 665.187 431.675C664.581 436.283 663.66 440.845 662.432 445.328C660.975 450.517 653.969 453.312 649.179 451.316C646.671 450.291 644.652 448.343 643.538 445.873C642.424 443.403 642.3 440.601 643.191 438.042L643.151 438.182Z" fill="white"/>
<path d="M631.814 466.585C631.102 468.457 630.961 470.497 631.409 472.449C631.857 474.401 632.875 476.176 634.332 477.549C635.79 478.922 637.622 479.832 639.597 480.164C641.572 480.495 643.601 480.233 645.427 479.411C647.253 478.589 648.794 477.244 649.855 475.545C650.916 473.847 651.449 471.872 651.387 469.87C651.325 467.869 650.671 465.931 649.506 464.301C648.342 462.672 646.721 461.424 644.848 460.717C643.607 460.245 642.285 460.023 640.958 460.063C639.631 460.102 638.325 460.403 637.114 460.948C635.904 461.494 634.812 462.272 633.903 463.239C632.993 464.206 632.284 465.343 631.814 466.585Z" fill="white"/>
<path d="M281.436 469.26C166.127 547.643 75.5287 725.486 116.467 754.688C153.852 781.294 324.57 803.43 381.076 802.312C397.683 801.973 412.094 663.83 394.35 664.149C372.893 664.548 249.48 652.373 247.404 651.774C242.973 650.476 303.292 542.393 329.959 493.252C367.264 424.669 324.709 439.819 281.436 469.26Z" fill="#F7A9A0"/>
<path d="M546.645 700.596C549.199 714.109 536.665 720.835 536.665 720.835C536.665 720.835 544.329 728.7 544.349 739.258C544.349 751.334 525.447 756.684 525.447 756.684C529.167 762.92 530.92 770.134 530.477 777.382C529.319 788.959 510.976 797.063 510.976 797.063C511.227 804.681 508.726 812.135 503.93 818.061C490.497 833.37 459.779 828.36 440.218 825.366C420.657 822.372 368.003 795.586 357.444 791.434L375.567 665.686C375.567 665.686 467.064 654.149 489.559 660.915C508.481 666.664 543.77 685.367 546.645 700.596Z" fill="#F7A9A0"/>
<path d="M536.066 718.56C517.383 707.642 496.485 702.871 475.886 696.903C475.798 696.896 475.71 696.919 475.637 696.969C475.564 697.02 475.511 697.094 475.488 697.18C475.464 697.265 475.471 697.356 475.507 697.437C475.544 697.518 475.607 697.583 475.687 697.622C496.246 703.311 515.387 713.011 535.567 719.578C535.634 719.611 535.706 719.63 535.78 719.635C535.855 719.639 535.929 719.629 536 719.605C536.07 719.581 536.135 719.543 536.191 719.494C536.247 719.445 536.292 719.385 536.325 719.318C536.358 719.252 536.377 719.179 536.382 719.105C536.387 719.03 536.377 718.956 536.353 718.885C536.328 718.815 536.291 718.75 536.242 718.694C536.192 718.638 536.133 718.593 536.066 718.56Z" fill="#263238"/>
<path d="M525.247 754.907C520.8 752.85 516.103 751.381 511.275 750.536C506.179 749.338 501.069 748.221 495.946 747.183C485.687 745.187 475.387 743.29 465.028 741.754C464.569 741.754 464.349 742.372 464.829 742.472C475.048 744.468 485.248 746.783 495.367 749.298C500.437 750.549 505.494 751.88 510.537 753.29C515.215 754.819 520.048 755.823 524.948 756.284C525.105 756.27 525.253 756.207 525.371 756.103C525.489 755.998 525.57 755.859 525.604 755.706C525.637 755.552 525.62 755.392 525.556 755.248C525.492 755.104 525.384 754.985 525.247 754.907Z" fill="#263238"/>
<path d="M510.537 796.903C506.884 794.727 501.774 794.388 497.643 793.65C492.959 792.811 488.301 791.94 483.671 791.035C474.309 789.238 464.948 787.442 455.727 785.306C455.248 785.206 455.048 785.925 455.527 786.025C464.968 788.24 474.369 790.556 483.83 792.691C488.461 793.729 493.118 794.741 497.802 795.725C501.794 796.564 506.625 798.081 510.677 797.382C510.724 797.352 510.761 797.307 510.781 797.254C510.801 797.202 510.803 797.144 510.787 797.09C510.772 797.036 510.739 796.988 510.693 796.954C510.648 796.921 510.593 796.903 510.537 796.903Z" fill="#263238"/>
<path d="M250.438 647.423C249.36 646.205 309.38 542.493 336.126 486.924C362.873 431.356 335.108 428.681 281.895 466.545C224.889 507.124 107.784 628.74 98.5026 743.39C95.5286 780.536 358.741 810.795 358.741 810.795L370.597 657.762C370.597 657.762 252.095 649.299 250.438 647.423Z" fill="#FFC727"/>
<path d="M357.064 717.881C356.51 716.574 355.581 715.46 354.395 714.678C353.209 713.897 351.818 713.484 350.398 713.49C349.456 713.47 348.535 713.21 347.721 712.735C346.907 712.26 346.228 711.586 345.747 710.776C345.185 709.869 344.874 708.828 344.849 707.762C344.629 706.604 344.49 705.406 344.17 704.229C343.771 706.564 342.853 708.859 343.771 711.674C344.279 713.017 345.183 714.175 346.362 714.994C347.542 715.814 348.942 716.257 350.378 716.265C351.333 716.27 352.272 716.511 353.112 716.967C353.951 717.424 354.664 718.08 355.188 718.879C355.767 719.758 356.085 720.782 356.106 721.834C356.386 722.991 356.506 724.149 356.785 725.346C357.284 723.031 358.162 720.656 357.064 717.881ZM149.041 639.359C148.493 638.047 147.566 636.928 146.378 636.145C145.191 635.363 143.797 634.953 142.375 634.968C141.434 634.943 140.514 634.682 139.701 634.207C138.888 633.733 138.208 633.061 137.724 632.253C137.381 631.717 137.144 631.121 137.025 630.497C136.566 631.295 136.127 632.093 135.688 632.892C135.679 632.971 135.679 633.052 135.688 633.131C136.193 634.478 137.095 635.64 138.275 636.463C139.455 637.287 140.856 637.733 142.295 637.742C143.248 637.747 144.185 637.986 145.024 638.438C145.863 638.891 146.578 639.543 147.105 640.337C147.678 641.218 147.996 642.24 148.023 643.291C148.303 644.469 148.423 645.626 148.722 646.824C149.201 644.488 150.139 642.133 149.041 639.359ZM188.961 762.492C188.413 761.18 187.486 760.061 186.298 759.279C185.111 758.496 183.717 758.086 182.295 758.101C181.35 758.08 180.427 757.818 179.613 757.339C178.799 756.861 178.121 756.181 177.644 755.366C177.081 754.46 176.771 753.419 176.746 752.352C176.526 751.195 176.387 749.997 176.067 748.839C175.668 751.155 174.75 753.47 175.668 756.265C176.175 757.61 177.078 758.77 178.257 759.593C179.436 760.416 180.837 760.863 182.275 760.875C183.228 760.88 184.165 761.119 185.004 761.572C185.843 762.024 186.558 762.676 187.085 763.47C187.658 764.351 187.976 765.374 188.003 766.424C188.283 767.582 188.402 768.759 188.682 769.957C189.001 767.622 189.959 765.266 188.862 762.472L188.961 762.492ZM264.21 562.074C263.654 560.763 262.723 559.646 261.533 558.865C260.342 558.083 258.948 557.672 257.524 557.682C256.577 557.673 255.649 557.418 254.83 556.942C254.011 556.466 253.33 555.786 252.853 554.968C252.305 554.057 252.008 553.017 251.995 551.954C251.755 550.796 251.636 549.599 251.296 548.401C250.917 550.796 249.959 553.052 250.917 555.866C251.419 557.209 252.314 558.369 253.486 559.195C254.657 560.021 256.051 560.475 257.484 560.497C258.436 560.481 259.377 560.707 260.219 561.154C261.06 561.6 261.774 562.254 262.294 563.052C262.872 563.926 263.203 564.939 263.252 565.986C263.492 567.183 263.612 568.381 263.931 569.539C264.33 567.243 265.308 564.868 264.21 562.074ZM246.865 717.881C246.298 716.579 245.364 715.469 244.176 714.689C242.989 713.909 241.6 713.493 240.179 713.49C239.237 713.468 238.317 713.207 237.503 712.732C236.69 712.258 236.01 711.584 235.528 710.776C234.976 709.864 234.667 708.827 234.63 707.762C234.43 706.604 234.271 705.406 233.971 704.229C233.592 706.564 232.634 708.859 233.592 711.674C234.092 713.011 234.985 714.165 236.153 714.984C237.322 715.804 238.711 716.25 240.139 716.265C241.097 716.266 242.041 716.506 242.884 716.963C243.727 717.419 244.443 718.078 244.969 718.879C245.543 719.763 245.873 720.782 245.927 721.834C246.127 722.991 246.286 724.149 246.606 725.346C246.985 723.031 247.943 720.656 246.865 717.881ZM316.266 454.05C315.706 452.745 314.772 451.636 313.582 450.861C312.392 450.087 310.999 449.682 309.58 449.699H308.861L305.747 451.336C306.877 452.073 308.191 452.48 309.54 452.513C310.488 452.502 311.425 452.731 312.262 453.177C313.099 453.624 313.81 454.274 314.33 455.068C314.928 455.947 315.26 456.979 315.288 458.042C315.548 459.2 315.667 460.397 315.967 461.555C316.366 459.18 317.364 456.825 316.266 454.05ZM307.823 753.75C306.506 753.209 305.058 753.074 303.664 753.362C302.27 753.65 300.994 754.348 299.999 755.366C299.313 756.016 298.474 756.483 297.56 756.724C296.646 756.965 295.686 756.971 294.769 756.744C293.736 756.482 292.788 755.96 292.015 755.227C290.997 754.528 290.019 753.809 289.041 753.231C290.398 755.227 291.356 757.462 294.011 758.779C295.311 759.371 296.759 759.556 298.166 759.311C299.573 759.065 300.873 758.4 301.895 757.402C302.95 756.357 304.366 755.756 305.851 755.723C307.336 755.689 308.778 756.226 309.879 757.223C310.897 757.921 311.875 758.64 312.873 759.219C311.516 757.282 310.538 754.927 307.823 753.75ZM205.887 581.854C204.57 581.316 203.122 581.183 201.729 581.471C200.336 581.759 199.059 582.455 198.063 583.471C197.378 584.123 196.54 584.59 195.625 584.831C194.711 585.072 193.751 585.078 192.834 584.848C191.802 584.588 190.858 584.057 190.099 583.311C189.081 582.632 188.103 581.914 187.105 581.315C188.482 583.311 189.44 585.547 192.095 586.864C193.408 587.472 194.876 587.666 196.302 587.42C197.728 587.174 199.046 586.5 200.079 585.487C200.745 584.802 201.575 584.297 202.49 584.021C203.405 583.746 204.375 583.707 205.309 583.91C206.344 584.111 207.305 584.595 208.083 585.307C209.101 586.006 210.079 586.724 211.057 587.303C209.58 585.387 208.602 583.012 205.887 581.854ZM136.467 710.197C135.149 709.662 133.702 709.53 132.309 709.818C130.916 710.105 129.64 710.8 128.642 711.814C127.957 712.465 127.119 712.933 126.204 713.174C125.29 713.415 124.33 713.421 123.413 713.191C122.383 712.936 121.439 712.413 120.678 711.674C119.66 710.975 118.682 710.257 117.684 709.678C119.061 711.674 120.019 713.909 122.674 715.227C123.974 715.818 125.422 716.004 126.829 715.758C128.236 715.512 129.536 714.847 130.558 713.85C131.227 713.168 132.056 712.665 132.971 712.39C133.885 712.114 134.854 712.074 135.788 712.273C136.819 712.486 137.776 712.968 138.562 713.67C139.58 714.368 140.558 715.087 141.536 715.666C140.179 713.73 139.181 711.374 136.467 710.197ZM259.32 627.483C258.003 626.942 256.555 626.807 255.161 627.095C253.767 627.383 252.491 628.081 251.496 629.099C250.804 629.753 249.958 630.222 249.037 630.462C248.117 630.703 247.15 630.708 246.227 630.477C245.202 630.213 244.265 629.683 243.512 628.94C242.534 628.261 241.516 627.542 240.498 626.944C241.895 628.94 242.853 631.175 245.508 632.493C246.821 633.101 248.289 633.295 249.715 633.049C251.141 632.803 252.458 632.129 253.492 631.115C254.155 630.425 254.984 629.918 255.9 629.642C256.816 629.365 257.788 629.33 258.721 629.538C259.022 629.595 259.317 629.681 259.6 629.798L260.518 628.121C260.143 627.865 259.742 627.651 259.32 627.483ZM192.494 667.123C191.15 667.623 189.988 668.517 189.162 669.689C188.335 670.861 187.883 672.256 187.864 673.69C187.879 674.645 187.651 675.588 187.2 676.429C186.75 677.271 186.092 677.984 185.289 678.5C184.405 679.074 183.386 679.404 182.335 679.458C181.177 679.698 179.979 679.818 178.822 680.137C181.117 680.536 183.472 681.514 186.247 680.436C187.556 679.878 188.671 678.946 189.452 677.756C190.233 676.567 190.646 675.173 190.638 673.75C190.666 672.804 190.929 671.881 191.403 671.062C191.877 670.243 192.547 669.555 193.353 669.059C194.277 668.508 195.33 668.212 196.406 668.201C197.564 667.961 198.742 667.802 199.939 667.502C197.604 667.123 195.309 666.185 192.494 667.123ZM255.488 492.293C254.142 492.791 252.979 493.684 252.152 494.857C251.325 496.03 250.874 497.426 250.857 498.86C250.859 500.35 250.284 501.782 249.253 502.857C248.223 503.932 246.816 504.567 245.328 504.629C244.171 504.868 242.973 504.988 241.815 505.307C244.111 505.707 246.466 506.685 249.241 505.607C250.551 505.051 251.668 504.119 252.449 502.929C253.231 501.739 253.642 500.344 253.632 498.92C253.664 497.975 253.928 497.053 254.402 496.235C254.875 495.417 255.543 494.728 256.346 494.23C257.27 493.679 258.324 493.382 259.4 493.371C260.558 493.132 261.735 492.992 262.913 492.693C260.638 492.293 258.362 491.375 255.488 492.293ZM246.765 784.747C245.418 785.236 244.252 786.125 243.424 787.295C242.597 788.466 242.147 789.861 242.135 791.294C242.157 792.091 242 792.882 241.676 793.61L244.37 794.089C244.743 793.226 244.927 792.294 244.909 791.354C244.938 790.409 245.201 789.485 245.674 788.666C246.148 787.847 246.818 787.159 247.624 786.664C248.55 786.12 249.604 785.83 250.678 785.825C251.835 785.566 252.993 785.446 254.171 785.147C251.915 784.747 249.64 783.769 246.845 784.747H246.765ZM302.174 667.143C300.838 667.642 299.682 668.531 298.856 669.695C298.031 670.859 297.573 672.244 297.544 673.67C297.565 674.627 297.344 675.573 296.9 676.421C296.457 677.269 295.806 677.992 295.009 678.52C294.115 679.086 293.091 679.416 292.035 679.478C290.857 679.678 289.699 679.838 288.502 680.157C290.837 680.536 293.192 681.494 295.967 680.417C297.269 679.851 298.377 678.916 299.154 677.728C299.931 676.54 300.342 675.15 300.338 673.73C300.366 672.787 300.631 671.867 301.109 671.054C301.587 670.241 302.263 669.562 303.073 669.079C303.981 668.524 305.022 668.22 306.087 668.201C307.284 667.981 308.422 667.822 309.619 667.522C307.384 667.143 305.069 666.185 302.254 667.143H302.174ZM320.538 517.623C321.176 516.405 321.815 515.208 322.414 514.01C321.49 515.023 320.867 516.274 320.617 517.623H320.538ZM314.869 524.649C313.711 524.868 312.514 525.008 311.316 525.347C312.889 525.735 314.491 525.989 316.106 526.106C316.446 525.427 316.805 524.748 317.164 524.11C316.463 524.417 315.713 524.6 314.949 524.649H314.869Z" fill="white"/>
<path d="M198.602 649.099C203.632 649.798 341.476 654.369 370.517 658.86C370.977 658.86 371.036 657.363 370.517 657.303C280.698 645.327 203.672 645.826 197.644 646.265C190.538 646.704 189.201 647.802 198.602 649.099Z" fill="#263238"/>
<path d="M251.296 648.96C251.296 648.68 273.252 608.66 275.608 606.465C277.963 604.269 283.292 599.099 285.588 596.684C290.159 591.774 294.41 586.704 298.801 581.595C299.16 581.175 298.542 580.577 298.182 580.976C293.671 585.766 288.721 590.177 283.791 594.489L276.406 600.796C276.226 600.916 297.444 561.535 300.897 554.529C301.156 554.01 300.618 553.67 300.298 554.07C295.568 560.736 252.394 639.399 247.085 647.982C247.085 648.041 248.682 648.5 251.296 648.96Z" fill="#263238"/>
<path d="M142.674 771.214C185.089 783.789 349.3 808.979 357.783 810.376C357.941 807.355 358.375 804.355 359.08 801.414C359.08 801.095 359.799 801.055 359.819 801.414C360.165 805.603 360.285 809.807 360.178 814.009C360.178 814.707 198.502 792.612 142.614 771.634C142.375 771.534 142.415 771.135 142.674 771.214Z" fill="#263238"/>
<path d="M324.31 794.987C326.037 784.508 327.236 773.949 327.903 763.35C328.888 752.971 329.799 742.592 330.637 732.213C332.314 711.275 334.53 690.297 334.849 669.179C334.849 669.078 334.809 668.982 334.738 668.911C334.667 668.84 334.57 668.8 334.47 668.8C334.369 668.8 334.273 668.84 334.202 668.911C334.13 668.982 334.091 669.078 334.091 669.179C330.318 690.037 328.681 711.374 326.845 732.472C325.927 743.051 325.155 753.643 324.53 764.248C323.606 774.494 323.259 784.783 323.492 795.067C323.512 795.466 324.21 795.406 324.31 794.987Z" fill="#263238"/>
<path d="M833.649 720.257C833.686 744.17 826.115 767.476 812.033 786.803C800.646 802.482 785.426 814.976 767.829 823.089C750.232 831.202 730.848 834.662 711.53 833.139C692.213 831.616 673.61 825.161 657.502 814.391C641.394 803.621 628.319 788.896 619.53 771.627C610.741 754.358 606.532 735.122 607.305 715.76C608.078 696.399 613.807 677.559 623.945 661.046C634.083 644.532 648.289 630.897 665.205 621.445C682.12 611.993 701.179 607.042 720.556 607.063C723.643 607.063 726.717 607.183 729.777 607.423C747.304 608.81 764.263 614.279 779.298 623.391C794.429 632.605 807.203 645.221 816.603 660.237C827.817 678.242 833.725 699.045 833.649 720.257Z" fill="#455A64"/>
<path d="M744.887 773.689C743.47 777.502 745.845 777.681 746.005 779.238C746.165 780.795 746.005 783.829 741.414 788.44C736.823 793.051 729.199 792.073 727.602 793.989C726.005 795.905 723.33 803.969 719.618 806.663C715.905 809.358 715.187 807.781 709.798 808.879C704.408 809.977 700.277 816.983 698.7 820.296C697.123 823.609 699.019 829.178 695.207 829.338C691.394 829.498 689.658 821.254 686.165 816.823C683.153 812.827 681.19 808.14 680.456 803.19C679.359 797.941 681.095 787.003 680.456 782.731C679.818 778.46 668.48 770.755 664.289 765.606C660.097 760.456 654.468 749.917 654.788 746.424C655.26 743.036 656.949 739.936 659.538 737.702C661.434 736.264 660.636 735.486 660.955 734.209C661.275 732.931 662.951 732.632 663.191 731.035C663.43 729.438 662.233 724.708 660.636 723.909C659.039 723.111 657.941 725.805 657.003 725.326C656.065 724.847 653.191 721.534 652.093 721.215C650.995 720.895 651.295 723.211 649.698 720.257C648.101 717.302 647.323 709.638 646.065 708.281C644.808 706.923 643.83 710.516 640.836 708.281C637.842 706.045 636.544 701.794 635.287 701.155C634.029 700.516 632.273 701.315 630.956 698.78C629.638 696.245 632.113 691.634 630.956 692.113C629.798 692.592 627.343 696.245 626.724 692.752C626.105 689.259 629.878 677.522 629.259 671.195C628.736 664.509 630.89 657.89 635.247 652.792C635.247 652.792 635.866 649.319 636.504 647.083C637.143 644.848 650.776 635.985 652.353 633.45C653.016 632.034 653.396 630.502 653.47 628.94C672.895 614.638 696.394 606.942 720.516 606.984C723.603 606.984 726.677 607.103 729.738 607.343C729.828 607.494 729.935 607.635 730.057 607.762C731.414 609.518 732.911 610.616 736.923 612.113C740.935 613.61 741.893 615.486 741.035 617.063C740.658 617.722 740.101 618.26 739.429 618.613C738.758 618.967 737.999 619.122 737.243 619.059C735.646 619.159 734.169 618.321 732.472 619.379C730.775 620.437 729.099 626.145 726.883 626.464C724.668 626.784 720.756 621.375 719.897 619.798C719.039 618.221 721.893 614.828 720.516 613.251C719.139 611.674 716.943 611.974 713.35 611.654C709.758 611.335 701.374 612.712 701.714 614.089C702.053 615.467 713.989 613.87 714.308 616.624C714.628 619.379 705.526 624.029 703.949 623.61C702.372 623.191 700.237 620.437 697.961 620.117C695.686 619.798 693.73 621.694 692.273 621.914C690.816 622.133 689.079 620.337 686.863 620.756C684.648 621.175 684.109 623.071 682.871 623.81C681.634 624.548 678.879 624.548 678.64 626.245C678.4 627.942 682.133 628.9 683.071 629.938C684.009 630.975 681.913 634.608 682.871 635.347C683.83 636.085 689.738 630.896 691.215 629.638C692.692 628.381 693.969 622.872 697.203 622.971C700.436 623.071 701.434 628.46 702.472 628.959C703.51 629.458 705.865 627.682 709.358 628.421C712.851 629.159 715.346 636.784 715.905 639.099C716.464 641.415 718.021 643.75 716.744 644.708C715.466 645.666 709.778 644.069 709.039 642.592C708.301 641.115 712.831 638.9 712.532 638.361C711.9 637.933 711.171 637.669 710.412 637.592C709.652 637.516 708.886 637.629 708.181 637.922C706.823 638.76 706.185 640.476 704.708 640.896C703.231 641.315 699.319 636.904 698.261 638.141C697.203 639.379 699.319 643.431 700.376 644.389C701.434 645.347 705.326 645.866 705.646 646.923C705.965 647.981 703.011 650.297 699.418 650.097C695.826 649.898 692.871 647.143 691.434 648.301C689.997 649.458 690.796 652.532 689.838 653.59C688.879 654.648 683.71 653.91 681.175 656.644C678.64 659.379 677.482 663.51 674.947 665.846C672.412 668.181 671.235 665.207 667.862 668.48C664.488 671.754 663.87 679.059 663.87 681.594C663.87 684.129 663.87 686.145 663.011 685.826C661.817 684.79 661.002 683.385 660.696 681.834C660.377 680.456 661.434 678.121 661.434 677.283C661.434 676.444 656.564 672.113 653.71 671.674C650.856 671.235 648.321 673.67 646.205 675.267C644.089 676.864 640.217 676.644 638.92 678.021C637.622 679.398 636.484 691.554 637.542 694.408C638.6 697.263 639.977 697.263 643.351 695.786C646.724 694.309 644.828 691.454 646.844 692.073C647.75 692.412 648.53 693.02 649.08 693.816C649.629 694.612 649.922 695.557 649.918 696.524C649.918 698.221 645.926 702.233 646.425 703.39C646.924 704.548 650.417 703.191 652.133 703.71C653.85 704.229 654.668 705.287 654.129 709.698C653.59 714.109 653.91 717.402 656.444 718.839C658.979 720.277 660.436 716.843 661.514 717.243C662.592 717.642 664.209 720.257 665.806 720.097C667.403 719.937 666.584 718.52 669.598 717.562C672.612 716.604 671.594 715.985 672.133 714.069C672.239 713.582 672.449 713.124 672.747 712.724C673.045 712.325 673.426 711.994 673.863 711.754C674.299 711.514 674.782 711.37 675.279 711.332C675.776 711.294 676.276 711.363 676.744 711.534C678.74 712.492 677.363 713.909 677.522 715.526C677.682 717.143 681.335 717.263 684.189 718.221C687.043 719.179 688.62 718.221 694.328 720.217C700.037 722.213 700.317 727.821 702.732 728.779C705.147 729.738 713.051 728.141 718.7 732.272C724.348 736.404 722.811 744.009 725.666 746.244C728.52 748.48 739.139 751.474 743.27 752.232C747.402 752.991 748.021 750.236 751.354 750.955C754.688 751.674 756.584 752.712 757.702 757.302C758.719 761.414 746.324 769.877 744.887 773.689Z" fill="#FFC727"/>
<path d="M659.698 692.612C659.798 693.51 662.452 693.889 665.686 695.686C668.919 697.482 670.017 702.772 671.674 702.652C673.331 702.532 672.832 700.117 673.47 699.498C673.759 699.319 673.998 699.069 674.163 698.773C674.328 698.476 674.415 698.141 674.415 697.802C674.415 697.462 674.328 697.128 674.163 696.831C673.998 696.534 673.759 696.284 673.47 696.105C671.774 694.728 670.117 691.774 667.043 691.355C663.969 690.935 663.411 689.658 662.053 689.758C661.699 689.757 661.35 689.835 661.03 689.985C660.709 690.136 660.427 690.356 660.201 690.628C659.976 690.901 659.814 691.221 659.727 691.564C659.64 691.907 659.63 692.265 659.698 692.612Z" fill="#FFC727"/>
<path d="M677.143 701.494C676.664 702.792 677.143 703.71 680.516 704.568C683.889 705.426 687.083 703.71 686.025 703.031C684.967 702.352 683.371 702.652 684.029 701.494C684.688 700.337 684.448 698.64 681.694 698.959C678.939 699.279 677.562 700.337 677.143 701.494Z" fill="#FFC727"/>
<path d="M688.979 701.853C687.822 702.033 687.183 704.029 688.341 705.306C689.498 706.584 689.498 706.364 690.876 705.306C692.253 704.249 694.369 703.73 693.85 702.672C693.331 701.614 690.137 701.694 688.979 701.853Z" fill="#FFC727"/>
<path d="M698.181 706.185C698.7 704.588 701.354 706.185 702.512 707.841C702.969 708.773 703.206 709.798 703.206 710.835C703.206 711.873 702.969 712.897 702.512 713.829C701.873 715.646 701.454 717.821 699.977 716.903C698.5 715.985 700.077 713.53 699.857 712.033C699.638 710.536 697.742 707.482 698.181 706.185Z" fill="#FFC727"/>
<path d="M743.73 618.001C743.171 619.319 745.726 619.798 747.223 620.636C748.72 621.475 749.857 622.013 750.716 620.636C750.869 620.327 750.952 619.988 750.957 619.643C750.963 619.298 750.892 618.956 750.748 618.642C750.605 618.329 750.393 618.051 750.128 617.829C749.863 617.608 749.553 617.449 749.219 617.363C748.061 617.043 744.268 616.764 743.73 618.001Z" fill="#FFC727"/>
<path d="M763.71 630.357C764.688 631.395 766.344 631.215 767.522 632.692C768.7 634.169 768.26 636.684 769.737 637.442C771.214 638.201 772.272 637.442 772.372 636.385C772.472 635.327 770.256 632.692 770.476 632.153C770.696 631.614 773.53 632.892 774.169 634.488C774.807 636.085 773.53 638.281 775.027 638.72C776.524 639.159 776.185 637.243 776.823 636.724C777.462 636.205 778.819 636.524 778.719 635.247C778.212 633.297 777.101 631.558 775.546 630.277C774.17 629.09 772.547 628.224 770.795 627.742C769.837 627.471 768.833 627.408 767.849 627.556C766.864 627.704 765.923 628.06 765.087 628.6C763.909 629.618 763.111 629.738 763.71 630.357Z" fill="#FFC727"/>
<path d="M809.438 650.277C809.379 650.709 809.166 651.106 808.839 651.395C806.624 652.991 803.969 647.403 800.855 646.424C797.741 645.446 796.424 641.454 795.785 642.313C795.147 643.171 795.366 644.309 794.408 645.686C793.45 647.063 792.073 646.744 791.454 649.399C790.835 652.053 794.408 656.903 793.57 658.48C792.731 660.057 791.574 659.538 789.957 659.438C788.34 659.339 788.6 660.796 786.384 660.177C784.169 659.558 786.065 656.784 782.572 653.51C779.079 650.237 777.921 649.518 778.58 648.121C779.238 646.724 778.26 644.528 779.837 644.309C781.414 644.089 782.692 646.424 783.829 647.063C784.967 647.702 786.264 645.806 786.364 644.109C786.464 642.413 782.672 640.117 781.294 638.78C779.917 637.442 779.817 632.792 780.356 631.734C780.895 630.676 782.472 631.095 782.891 628.78C783.131 627.403 780.895 625.127 779.139 623.47C790.753 630.532 801.014 639.61 809.438 650.277Z" fill="#FFC727"/>
<path d="M825.226 745.047C825.546 741.674 823.849 741.454 825.546 735.227C826.061 732.765 826.053 730.223 825.524 727.765C824.994 725.306 823.954 722.986 822.472 720.955C821.214 719.578 818.48 719.997 816.244 721.374C814.009 722.752 815.605 723.81 814.128 724.328C812.651 724.847 811.174 724.009 809.797 724.129C808.42 724.249 807.142 727.702 804.188 727.602C801.234 727.502 799.338 723.271 797.103 720.257C794.867 717.243 790.336 715.346 788.859 711.654C787.382 707.961 790.236 702.233 789.598 697.901C788.959 693.57 786.125 694.528 785.606 692.093C785.087 689.658 786.025 690.816 786.763 688.5C787.502 686.185 785.925 684.907 787.402 680.895C788.879 676.884 791.534 674.907 790.895 673.071C790.256 671.235 788.26 668.301 788.14 666.205C788.021 664.109 790.136 664.209 794.128 661.235C798.12 658.261 799.198 658.48 802.272 659.538C804.473 660.352 806.736 660.987 809.039 661.434C810.835 661.754 813.27 666.404 814.009 666.205C814.747 666.005 814.847 664.608 815.166 662.612C815.368 661.733 815.827 660.934 816.484 660.317C828.409 679.452 834.354 701.71 833.558 724.243C832.761 746.775 825.26 768.558 812.013 786.803C822.811 770.456 824.907 748.5 825.226 745.047Z" fill="#FFC727"/>
<path d="M590.916 720.257C590.916 731.794 591.415 743.59 594.588 754.867L595.566 759.139L596.944 763.29L599.758 771.634L603.371 779.618C603.99 780.935 604.548 782.312 605.227 783.61L607.403 787.442C613.212 797.749 620.39 807.223 628.74 815.606L635.207 821.693C637.323 823.689 639.818 825.386 642.113 827.242C646.826 830.87 651.759 834.203 656.884 837.222C659.458 838.679 662.173 839.917 664.868 841.214L668.86 843.21C670.217 843.829 671.634 844.288 673.011 844.847L681.355 847.981L689.977 850.296L694.289 851.434L698.7 852.152L707.522 853.569L716.444 854.108L720.915 854.368C722.392 854.368 723.889 854.368 725.366 854.208L734.308 853.829C737.283 853.51 740.296 852.991 743.171 852.571C749.07 851.609 754.904 850.276 760.636 848.579C763.47 847.681 766.244 846.583 769.059 845.585L773.27 844.049C774.648 843.47 775.985 842.791 777.262 842.152L785.346 838.28L793.011 833.649C795.587 832.133 798.055 830.439 800.396 828.58C802.751 826.743 805.226 825.067 807.482 823.11C812.015 819.222 816.295 815.049 820.296 810.616C828.385 801.817 835.211 791.935 840.576 781.254L844.388 773.171C845.546 770.416 846.384 767.562 847.462 764.787L848.959 760.576C849.418 759.159 849.717 757.682 850.096 756.244L852.252 747.582C854.42 735.898 855.104 723.988 854.288 712.133C852.624 688.546 844.534 665.864 830.896 646.547C817.258 627.23 798.593 612.016 776.923 602.552C797.429 613.204 814.796 629.029 827.302 648.46C839.684 667.648 846.783 689.763 847.881 712.572C848.268 723.853 847.337 735.14 845.106 746.205L842.931 754.368C842.532 755.726 842.252 757.103 841.793 758.36L840.296 762.352C839.278 764.967 838.4 767.662 837.262 770.216L833.55 777.781C832.32 780.305 830.926 782.745 829.378 785.087C827.861 787.442 826.584 789.977 824.867 792.192C821.635 796.786 818.094 801.154 814.268 805.266C810.49 809.413 806.45 813.314 802.172 816.943C800.037 818.779 797.701 820.336 795.466 822.033L792.093 824.548C790.955 825.366 789.717 826.025 788.54 826.763C750.815 851.553 699.758 852.871 659.898 831.574C649.959 826.133 640.728 819.49 632.413 811.793C624.056 804.009 616.779 795.142 610.776 785.426L608.461 781.833C607.722 780.616 607.143 779.298 606.465 778.041L602.473 770.416L599.299 762.432L597.722 758.44L596.545 754.308C595.766 751.554 594.928 748.799 594.209 746.005L592.672 737.502C592.413 736.085 592.113 734.668 591.894 733.251L591.535 728.939L590.916 720.257Z" fill="#263238"/>
<path d="M765.925 617.802L781.234 625.087L792.053 592.772L784.168 589.02L765.925 617.802Z" fill="#263238"/>
<path d="M710.476 890.775H726.923V850.496H710.476V890.775Z" fill="#263238"/>
<path d="M658.421 890.735H778.979V875.785H658.421V890.735Z" fill="#263238"/>
<path d="M169.959 253.851C171.31 266.779 176.226 279.077 184.159 289.373C192.092 299.67 202.73 307.559 214.886 312.161C227.042 316.763 240.238 317.897 253.001 315.435C265.764 312.974 277.592 307.015 287.164 298.222L322.254 303.392L304.689 273.053C308.722 263.175 310.448 252.508 309.738 241.863C309.027 231.217 305.898 220.874 300.589 211.62C295.279 202.366 287.929 194.445 279.098 188.459C270.266 182.473 260.186 178.58 249.623 177.077C239.061 175.573 228.294 176.498 218.143 179.781C207.992 183.064 198.723 188.62 191.042 196.024C183.361 203.429 177.469 212.487 173.816 222.512C170.163 232.536 168.844 243.261 169.959 253.871V253.851Z" fill="white"/>
<path d="M190.957 195.927C198.595 188.38 207.869 182.694 218.06 179.312C228.251 175.93 239.085 174.942 249.72 176.426C260.424 177.837 270.664 181.674 279.66 187.644C288.644 193.692 296.148 201.688 301.616 211.037C307.074 220.431 310.301 230.954 311.048 241.793C311.796 252.632 310.044 263.497 305.927 273.552V272.354L323.352 302.753L324.649 304.989L322.115 304.61L287.045 299.22L287.883 298.961C278.126 307.783 266.108 313.719 253.173 316.107C249.971 316.699 246.727 317.032 243.472 317.105C227.11 317.842 211.002 312.852 197.923 302.993C195.325 301.063 192.851 298.969 190.518 296.725C188.241 294.424 186.108 291.984 184.131 289.42C173.616 275.707 168.502 258.61 169.761 241.375C171.019 224.141 178.562 207.968 190.957 195.927ZM184.331 289.26C186.314 291.8 188.447 294.219 190.718 296.506C193.052 298.718 195.525 300.778 198.123 302.673C203.278 306.542 208.983 309.617 215.049 311.795C221.068 314.034 227.369 315.424 233.772 315.927C236.968 316.156 240.176 316.156 243.372 315.927C246.571 315.781 249.753 315.394 252.893 314.769C265.481 312.214 277.107 306.201 286.466 297.404L286.825 297.085H287.304L322.434 301.995L321.176 303.851L303.512 273.572L303.172 273.013L303.432 272.374C307.332 262.683 309.016 252.242 308.362 241.815C307.628 231.427 304.565 221.338 299.4 212.295C294.152 203.231 286.993 195.419 278.422 189.4C269.78 183.428 259.887 179.51 249.5 177.943C239.063 176.363 228.404 177.168 218.322 180.299C207.604 183.637 197.857 189.529 189.92 197.468C181.982 205.406 176.091 215.154 172.753 225.872C169.415 236.59 168.73 247.959 170.757 259.001C172.784 270.042 177.463 280.427 184.39 289.26H184.331Z" fill="#263238"/>
<path d="M242.195 256.207V263.592C242.214 264.328 242.083 265.061 241.81 265.745C241.537 266.43 241.127 267.051 240.606 267.572C240.085 268.093 239.464 268.503 238.779 268.776C238.095 269.049 237.362 269.18 236.626 269.161C235.149 269.161 233.732 268.574 232.688 267.53C231.644 266.485 231.057 265.069 231.057 263.592V251.795C231.057 251.676 231.177 251.676 231.177 251.556C231.177 251.436 231.057 251.436 231.057 251.336C231.097 249.872 231.697 248.479 232.733 247.443C233.768 246.407 235.162 245.808 236.626 245.768C238.339 245.835 240.049 245.557 241.652 244.948C243.255 244.339 244.718 243.412 245.954 242.224C247.191 241.036 248.174 239.61 248.846 238.032C249.518 236.455 249.864 234.758 249.864 233.043C249.864 231.328 249.518 229.631 248.846 228.054C248.174 226.476 247.191 225.05 245.954 223.862C244.718 222.674 243.255 221.747 241.652 221.138C240.049 220.529 238.339 220.251 236.626 220.319C234.418 220.31 232.246 220.882 230.329 221.979C228.413 223.076 226.819 224.658 225.708 226.566C225.337 227.21 224.841 227.773 224.25 228.222C223.659 228.672 222.984 228.999 222.264 229.185C221.545 229.371 220.796 229.412 220.061 229.305C219.326 229.198 218.62 228.945 217.983 228.562C217.348 228.199 216.791 227.712 216.346 227.131C215.9 226.55 215.575 225.886 215.39 225.178C215.204 224.47 215.161 223.732 215.263 223.008C215.366 222.283 215.612 221.586 215.987 220.957C217.959 217.496 220.762 214.581 224.144 212.476C227.526 210.372 231.38 209.144 235.356 208.903C239.332 208.663 243.305 209.419 246.916 211.101C250.527 212.783 253.661 215.34 256.034 218.538C258.408 221.737 259.947 225.478 260.511 229.421C261.075 233.364 260.646 237.386 259.264 241.122C257.882 244.858 255.59 248.19 252.596 250.817C249.601 253.444 245.999 255.283 242.115 256.167L242.195 256.207ZM242.195 281.097V283.093C242.214 283.829 242.083 284.562 241.81 285.246C241.537 285.931 241.127 286.552 240.606 287.073C240.085 287.594 239.464 288.004 238.779 288.277C238.095 288.55 237.362 288.681 236.626 288.662C235.149 288.662 233.732 288.075 232.688 287.03C231.644 285.986 231.057 284.57 231.057 283.093V281.097C231.078 279.626 231.671 278.222 232.711 277.182C233.751 276.142 235.155 275.548 236.626 275.528C237.359 275.52 238.087 275.658 238.766 275.935C239.446 276.212 240.063 276.622 240.581 277.141C241.1 277.66 241.51 278.277 241.787 278.956C242.064 279.635 242.203 280.363 242.195 281.097Z" fill="#FFC727"/>
</svg>
