<svg width="807" height="923" viewBox="0 0 807 923" fill="none" xmlns="http://www.w3.org/2000/svg">
<line x1="370" y1="-1.74846e-07" x2="370" y2="874" stroke="#FFC727" stroke-width="8"/>
<path fill-rule="evenodd" clip-rule="evenodd" d="M243 137.421V121.5H241.311C240.714 121.5 240.142 121.263 239.72 120.841C239.298 120.419 239.061 119.847 239.061 119.25C239.061 118.653 239.298 118.081 239.72 117.659C240.142 117.237 240.714 117 241.311 117H268.686C269.283 117 269.855 117.237 270.277 117.659C270.699 118.081 270.936 118.653 270.936 119.25C270.936 119.847 270.699 120.419 270.277 120.841C269.855 121.263 269.283 121.5 268.686 121.5H267V137.421L282.375 165.324C285.267 170.574 281.469 177 275.478 177H234.522C228.528 177 224.733 170.574 227.622 165.324L243 137.421ZM262.5 121.5H247.5V138C247.5 138.38 247.404 138.753 247.221 139.086L240.381 151.5H269.619L262.779 139.086C262.596 138.753 262.5 138.38 262.5 138V121.5ZM231.567 167.496L237.9 156H272.1L278.433 167.496C278.716 168.01 278.861 168.589 278.852 169.175C278.843 169.762 278.682 170.336 278.383 170.841C278.085 171.346 277.66 171.765 277.151 172.056C276.641 172.347 276.065 172.5 275.478 172.5H234.522C233.935 172.5 233.359 172.347 232.849 172.056C232.34 171.765 231.915 171.346 231.617 170.841C231.318 170.336 231.157 169.762 231.148 169.175C231.14 168.589 231.284 168.01 231.567 167.496Z" fill="#FFC727"/>
<g clip-path="url(#clip0_19_310)">
<path d="M240 746C242.373 746 244.693 745.296 246.667 743.978C248.64 742.659 250.178 740.785 251.087 738.592C251.995 736.399 252.232 733.987 251.769 731.659C251.306 729.331 250.164 727.193 248.485 725.515C246.807 723.836 244.669 722.694 242.341 722.231C240.013 721.768 237.601 722.005 235.408 722.913C233.215 723.822 231.341 725.36 230.022 727.333C228.704 729.307 228 731.627 228 734C228 737.183 229.264 740.235 231.515 742.485C233.765 744.736 236.817 746 240 746Z" fill="#FFC727"/>
<path d="M264 752C265.78 752 267.52 751.472 269 750.483C270.48 749.494 271.634 748.089 272.315 746.444C272.996 744.8 273.174 742.99 272.827 741.244C272.48 739.498 271.623 737.895 270.364 736.636C269.105 735.377 267.502 734.52 265.756 734.173C264.01 733.826 262.2 734.004 260.556 734.685C258.911 735.366 257.506 736.52 256.517 738C255.528 739.48 255 741.22 255 743C255 745.387 255.948 747.676 257.636 749.364C259.324 751.052 261.613 752 264 752Z" fill="#FFC727"/>
<path d="M276 773C276.796 773 277.559 772.684 278.121 772.121C278.684 771.559 279 770.796 279 770C278.998 767.196 278.209 764.449 276.725 762.071C275.24 759.692 273.119 757.777 270.601 756.543C268.083 755.31 265.27 754.806 262.481 755.09C259.691 755.374 257.037 756.434 254.82 758.15C251.882 755.223 248.142 753.232 244.073 752.427C240.005 751.623 235.789 752.041 231.958 753.629C228.126 755.218 224.851 757.905 222.545 761.352C220.239 764.8 219.006 768.853 219 773C219 773.796 219.316 774.559 219.879 775.121C220.441 775.684 221.204 776 222 776H258C258.796 776 259.559 775.684 260.121 775.121C260.684 774.559 261 773.796 261 773" fill="#FFC727"/>
</g>
<path d="M84.5157 236V230.148H83.0337V234.518H69.7717V210.882H72.9257V209.4H65.5917V210.882H68.2137V234.518H65.5917V236H84.5157ZM94.6374 222.966C95.6254 222.966 96.512 223.245 97.2974 223.802C98.108 224.334 98.7414 225.031 99.1974 225.892C97.4747 226.576 95.752 227.26 94.0294 227.944C92.332 228.603 90.622 229.274 88.8994 229.958C88.722 229.097 88.7347 228.261 88.9374 227.45C89.14 226.614 89.4947 225.867 90.0014 225.208C90.5334 224.524 91.192 223.979 91.9774 223.574C92.788 223.169 93.6747 222.966 94.6374 222.966ZM99.6154 234.29L98.6654 233.15C98.1334 233.657 97.5254 234.049 96.8414 234.328C96.1574 234.607 95.4227 234.746 94.6374 234.746C93.4467 234.746 92.3827 234.442 91.4454 233.834C90.508 233.226 89.8114 232.428 89.3554 231.44C91.3314 230.629 93.2947 229.844 95.2454 229.084C97.2214 228.324 99.1974 227.551 101.173 226.766C100.92 226.006 100.591 225.309 100.185 224.676C99.78 224.017 99.3114 223.46 98.7794 223.004C98.222 222.497 97.5887 222.117 96.8794 221.864C96.17 221.585 95.4227 221.446 94.6374 221.446C93.5987 221.446 92.6234 221.649 91.7114 222.054C90.8247 222.434 90.0394 222.953 89.3554 223.612C88.6714 224.271 88.1394 225.056 87.7594 225.968C87.3794 226.88 87.1894 227.843 87.1894 228.856C87.1894 229.895 87.3794 230.857 87.7594 231.744C88.1394 232.631 88.6714 233.416 89.3554 234.1C90.0394 234.784 90.8247 235.316 91.7114 235.696C92.6234 236.076 93.5987 236.266 94.6374 236.266C95.6254 236.266 96.5374 236.089 97.3734 235.734C98.2094 235.379 98.9567 234.898 99.6154 234.29ZM121.747 236V234.518H118.935V221.75H117.681C117.63 222.307 117.592 222.877 117.567 223.46C117.541 224.017 117.529 224.562 117.529 225.094C117.098 224.106 116.351 223.257 115.287 222.548C114.223 221.813 112.943 221.446 111.449 221.446C110.385 221.446 109.397 221.649 108.485 222.054C107.598 222.434 106.813 222.953 106.129 223.612C105.445 224.296 104.913 225.094 104.533 226.006C104.153 226.918 103.963 227.868 103.963 228.856C103.963 229.895 104.153 230.857 104.533 231.744C104.913 232.631 105.445 233.416 106.129 234.1C106.813 234.784 107.598 235.316 108.485 235.696C109.397 236.076 110.385 236.266 111.449 236.266C112.209 236.266 112.918 236.165 113.577 235.962C114.261 235.759 114.869 235.481 115.401 235.126C115.907 234.797 116.338 234.429 116.693 234.024C117.073 233.593 117.351 233.15 117.529 232.694C117.529 233.023 117.529 233.327 117.529 233.606C117.529 233.859 117.529 234.138 117.529 234.442V236H121.747ZM111.449 222.966C112.259 222.966 113.019 223.118 113.729 223.422C114.438 223.701 115.071 224.106 115.629 224.638C116.161 225.17 116.579 225.803 116.883 226.538C117.212 227.247 117.377 228.02 117.377 228.856C117.377 229.692 117.212 230.477 116.883 231.212C116.579 231.921 116.148 232.542 115.591 233.074C115.059 233.606 114.438 234.024 113.729 234.328C113.019 234.607 112.259 234.746 111.449 234.746C110.638 234.746 109.891 234.607 109.207 234.328C108.523 234.049 107.915 233.657 107.383 233.15C106.8 232.618 106.344 231.985 106.015 231.25C105.685 230.515 105.521 229.717 105.521 228.856C105.521 228.045 105.66 227.285 105.939 226.576C106.243 225.867 106.661 225.246 107.193 224.714C107.699 224.157 108.32 223.726 109.055 223.422C109.789 223.118 110.587 222.966 111.449 222.966ZM131.744 236V234.518H128.932V228.21C128.932 227.425 129.097 226.703 129.426 226.044C129.755 225.36 130.211 224.803 130.794 224.372C131.301 223.941 131.883 223.612 132.542 223.384C133.226 223.131 133.948 223.004 134.708 223.004L134.784 221.446C134.201 221.471 133.619 221.573 133.036 221.75C132.479 221.927 131.934 222.181 131.402 222.51C130.845 222.839 130.338 223.257 129.882 223.764C129.451 224.245 129.097 224.803 128.818 225.436C128.793 225.005 128.78 224.727 128.78 224.6C128.78 224.473 128.767 224.195 128.742 223.764L128.628 221.75H124.638V223.232H127.374V234.518H124.41V236H131.744ZM144.769 236V234.518H141.957V228.21C141.957 227.45 142.109 226.753 142.413 226.12C142.743 225.487 143.186 224.929 143.743 224.448C144.25 223.992 144.858 223.637 145.567 223.384C146.277 223.131 147.024 223.004 147.809 223.004C148.873 223.055 149.671 223.384 150.203 223.992C150.761 224.575 151.065 225.284 151.115 226.12V234.518H148.151V236H155.485V234.518H152.673V225.702C152.623 224.435 152.192 223.409 151.381 222.624C150.571 221.839 149.469 221.446 148.075 221.446C146.657 221.446 145.39 221.813 144.275 222.548C143.161 223.283 142.35 224.245 141.843 225.436C141.818 225.005 141.793 224.625 141.767 224.296C141.742 223.941 141.717 223.549 141.691 223.118L141.653 221.75H137.663V223.232H140.399V234.518H137.435V236H144.769ZM187.319 236V234.518H184.507V221.75H183.253C183.202 222.307 183.164 222.877 183.139 223.46C183.114 224.017 183.101 224.562 183.101 225.094C182.67 224.106 181.923 223.257 180.859 222.548C179.795 221.813 178.516 221.446 177.021 221.446C175.957 221.446 174.969 221.649 174.057 222.054C173.17 222.434 172.385 222.953 171.701 223.612C171.017 224.296 170.485 225.094 170.105 226.006C169.725 226.918 169.535 227.868 169.535 228.856C169.535 229.895 169.725 230.857 170.105 231.744C170.485 232.631 171.017 233.416 171.701 234.1C172.385 234.784 173.17 235.316 174.057 235.696C174.969 236.076 175.957 236.266 177.021 236.266C177.781 236.266 178.49 236.165 179.149 235.962C179.833 235.759 180.441 235.481 180.973 235.126C181.48 234.797 181.91 234.429 182.265 234.024C182.645 233.593 182.924 233.15 183.101 232.694C183.101 233.023 183.101 233.327 183.101 233.606C183.101 233.859 183.101 234.138 183.101 234.442V236H187.319ZM177.021 222.966C177.832 222.966 178.592 223.118 179.301 223.422C180.01 223.701 180.644 224.106 181.201 224.638C181.733 225.17 182.151 225.803 182.455 226.538C182.784 227.247 182.949 228.02 182.949 228.856C182.949 229.692 182.784 230.477 182.455 231.212C182.151 231.921 181.72 232.542 181.163 233.074C180.631 233.606 180.01 234.024 179.301 234.328C178.592 234.607 177.832 234.746 177.021 234.746C176.21 234.746 175.463 234.607 174.779 234.328C174.095 234.049 173.487 233.657 172.955 233.15C172.372 232.618 171.916 231.985 171.587 231.25C171.258 230.515 171.093 229.717 171.093 228.856C171.093 228.045 171.232 227.285 171.511 226.576C171.815 225.867 172.233 225.246 172.765 224.714C173.272 224.157 173.892 223.726 174.627 223.422C175.362 223.118 176.16 222.966 177.021 222.966ZM189.982 236H194.2V234.442C194.2 234.138 194.2 233.859 194.2 233.606C194.2 233.327 194.2 233.023 194.2 232.694C194.352 233.15 194.618 233.593 194.998 234.024C195.378 234.429 195.834 234.797 196.366 235.126C196.873 235.481 197.456 235.759 198.114 235.962C198.798 236.165 199.52 236.266 200.28 236.266C201.319 236.266 202.294 236.076 203.206 235.696C204.118 235.316 204.916 234.784 205.6 234.1C206.259 233.416 206.778 232.631 207.158 231.744C207.564 230.857 207.766 229.895 207.766 228.856C207.766 227.843 207.564 226.88 207.158 225.968C206.778 225.056 206.259 224.271 205.6 223.612C204.916 222.953 204.118 222.434 203.206 222.054C202.294 221.649 201.319 221.446 200.28 221.446C199.546 221.446 198.849 221.547 198.19 221.75C197.532 221.953 196.936 222.219 196.404 222.548C195.872 222.903 195.429 223.295 195.074 223.726C194.72 224.131 194.466 224.549 194.314 224.98C194.34 224.6 194.352 224.309 194.352 224.106C194.352 223.878 194.352 223.574 194.352 223.194V207.5H190.134V208.982H192.794V234.518H189.982V236ZM200.28 222.966C201.091 222.966 201.851 223.118 202.56 223.422C203.27 223.701 203.89 224.093 204.422 224.6C204.98 225.132 205.41 225.765 205.714 226.5C206.018 227.235 206.17 228.02 206.17 228.856C206.17 229.692 206.018 230.465 205.714 231.174C205.41 231.883 205.005 232.504 204.498 233.036C203.941 233.568 203.308 233.986 202.598 234.29C201.889 234.594 201.116 234.746 200.28 234.746C199.47 234.746 198.71 234.607 198 234.328C197.291 234.024 196.67 233.606 196.138 233.074C195.581 232.542 195.138 231.921 194.808 231.212C194.504 230.477 194.352 229.692 194.352 228.856C194.352 228.045 194.492 227.285 194.77 226.576C195.074 225.867 195.492 225.246 196.024 224.714C196.556 224.157 197.177 223.726 197.886 223.422C198.621 223.118 199.419 222.966 200.28 222.966ZM223.274 234.1C223.932 233.416 224.452 232.631 224.832 231.744C225.237 230.857 225.44 229.895 225.44 228.856C225.44 227.843 225.237 226.88 224.832 225.968C224.452 225.056 223.932 224.258 223.274 223.574C222.59 222.915 221.779 222.396 220.842 222.016C219.93 221.611 218.954 221.408 217.916 221.408C216.877 221.408 215.902 221.611 214.99 222.016C214.078 222.396 213.292 222.915 212.634 223.574C211.95 224.258 211.418 225.056 211.038 225.968C210.658 226.88 210.468 227.843 210.468 228.856C210.468 229.895 210.658 230.87 211.038 231.782C211.418 232.669 211.95 233.441 212.634 234.1C213.292 234.784 214.065 235.316 214.952 235.696C215.864 236.076 216.852 236.266 217.916 236.266C218.954 236.266 219.93 236.076 220.842 235.696C221.779 235.316 222.59 234.784 223.274 234.1ZM213.736 232.998C213.204 232.491 212.786 231.883 212.482 231.174C212.178 230.465 212.026 229.692 212.026 228.856C212.026 228.045 212.178 227.285 212.482 226.576C212.786 225.867 213.204 225.233 213.736 224.676C214.268 224.144 214.888 223.726 215.598 223.422C216.307 223.118 217.067 222.966 217.878 222.966C218.688 222.966 219.448 223.118 220.158 223.422C220.892 223.726 221.526 224.144 222.058 224.676C222.615 225.233 223.046 225.879 223.35 226.614C223.654 227.323 223.806 228.071 223.806 228.856C223.806 229.692 223.654 230.465 223.35 231.174C223.046 231.883 222.615 232.491 222.058 232.998C221.526 233.555 220.892 233.986 220.158 234.29C219.448 234.594 218.688 234.746 217.878 234.746C217.067 234.746 216.307 234.594 215.598 234.29C214.888 233.986 214.268 233.555 213.736 232.998ZM241.736 232.314V234.024L241.812 236H245.878V234.632H243.18V221.75H238.81V223.232H241.622V229.54C241.622 230.3 241.457 231.009 241.128 231.668C240.824 232.301 240.406 232.833 239.874 233.264C239.316 233.745 238.683 234.113 237.974 234.366C237.29 234.619 236.555 234.746 235.77 234.746C234.706 234.695 233.895 234.379 233.338 233.796C232.806 233.188 232.514 232.466 232.464 231.63V221.75H228.094V223.232H230.906V232.048C230.956 233.315 231.387 234.341 232.198 235.126C233.008 235.911 234.11 236.304 235.504 236.304C236.897 236.304 238.151 235.949 239.266 235.24C240.406 234.505 241.229 233.53 241.736 232.314ZM256.521 236V234.518H253.405V223.27H257.813V221.75H253.405V212.478H251.847V221.75H248.541V223.27H251.847V236H256.521ZM289.667 236V234.518H286.855V221.75H285.601C285.55 222.307 285.512 222.877 285.487 223.46C285.461 224.017 285.449 224.562 285.449 225.094C285.018 224.106 284.271 223.257 283.207 222.548C282.143 221.813 280.863 221.446 279.369 221.446C278.305 221.446 277.317 221.649 276.405 222.054C275.518 222.434 274.733 222.953 274.049 223.612C273.365 224.296 272.833 225.094 272.453 226.006C272.073 226.918 271.883 227.868 271.883 228.856C271.883 229.895 272.073 230.857 272.453 231.744C272.833 232.631 273.365 233.416 274.049 234.1C274.733 234.784 275.518 235.316 276.405 235.696C277.317 236.076 278.305 236.266 279.369 236.266C280.129 236.266 280.838 236.165 281.497 235.962C282.181 235.759 282.789 235.481 283.321 235.126C283.827 234.797 284.258 234.429 284.613 234.024C284.993 233.593 285.271 233.15 285.449 232.694C285.449 233.023 285.449 233.327 285.449 233.606C285.449 233.859 285.449 234.138 285.449 234.442V236H289.667ZM279.369 222.966C280.179 222.966 280.939 223.118 281.649 223.422C282.358 223.701 282.991 224.106 283.549 224.638C284.081 225.17 284.499 225.803 284.803 226.538C285.132 227.247 285.297 228.02 285.297 228.856C285.297 229.692 285.132 230.477 284.803 231.212C284.499 231.921 284.068 232.542 283.511 233.074C282.979 233.606 282.358 234.024 281.649 234.328C280.939 234.607 280.179 234.746 279.369 234.746C278.558 234.746 277.811 234.607 277.127 234.328C276.443 234.049 275.835 233.657 275.303 233.15C274.72 232.618 274.264 231.985 273.935 231.25C273.605 230.515 273.441 229.717 273.441 228.856C273.441 228.045 273.58 227.285 273.859 226.576C274.163 225.867 274.581 225.246 275.113 224.714C275.619 224.157 276.24 223.726 276.975 223.422C277.709 223.118 278.507 222.966 279.369 222.966ZM39.6775 261.232H42.4515V259.75H35.8015V261.232H38.0435C37.1062 263.081 36.1688 264.918 35.2315 266.742C34.2942 268.566 33.4455 270.327 32.6855 272.024C31.8495 270.225 30.9755 268.427 30.0635 266.628C29.1515 264.829 28.2268 263.031 27.2895 261.232H29.7975V259.75H22.7675V261.232H25.6935C26.8588 263.537 28.0242 265.817 29.1895 268.072C30.3548 270.327 31.5202 272.594 32.6855 274.874C33.8508 272.594 35.0162 270.327 36.1815 268.072C37.3468 265.817 38.5122 263.537 39.6775 261.232ZM62.8913 274V272.518H60.0793V259.75H58.8253C58.7747 260.307 58.7367 260.877 58.7113 261.46C58.686 262.017 58.6733 262.562 58.6733 263.094C58.2427 262.106 57.4953 261.257 56.4313 260.548C55.3673 259.813 54.088 259.446 52.5933 259.446C51.5293 259.446 50.5413 259.649 49.6293 260.054C48.7427 260.434 47.9573 260.953 47.2733 261.612C46.5893 262.296 46.0573 263.094 45.6773 264.006C45.2973 264.918 45.1073 265.868 45.1073 266.856C45.1073 267.895 45.2973 268.857 45.6773 269.744C46.0573 270.631 46.5893 271.416 47.2733 272.1C47.9573 272.784 48.7427 273.316 49.6293 273.696C50.5413 274.076 51.5293 274.266 52.5933 274.266C53.3533 274.266 54.0627 274.165 54.7213 273.962C55.4053 273.759 56.0133 273.481 56.5453 273.126C57.052 272.797 57.4827 272.429 57.8373 272.024C58.2173 271.593 58.496 271.15 58.6733 270.694C58.6733 271.023 58.6733 271.327 58.6733 271.606C58.6733 271.859 58.6733 272.138 58.6733 272.442V274H62.8913ZM52.5933 260.966C53.404 260.966 54.164 261.118 54.8733 261.422C55.5827 261.701 56.216 262.106 56.7733 262.638C57.3053 263.17 57.7233 263.803 58.0273 264.538C58.3567 265.247 58.5213 266.02 58.5213 266.856C58.5213 267.692 58.3567 268.477 58.0273 269.212C57.7233 269.921 57.2927 270.542 56.7353 271.074C56.2033 271.606 55.5827 272.024 54.8733 272.328C54.164 272.607 53.404 272.746 52.5933 272.746C51.7827 272.746 51.0353 272.607 50.3513 272.328C49.6673 272.049 49.0593 271.657 48.5273 271.15C47.9447 270.618 47.4887 269.985 47.1593 269.25C46.83 268.515 46.6653 267.717 46.6653 266.856C46.6653 266.045 46.8047 265.285 47.0833 264.576C47.3873 263.867 47.8053 263.246 48.3373 262.714C48.844 262.157 49.4647 261.726 50.1993 261.422C50.934 261.118 51.732 260.966 52.5933 260.966ZM72.8886 274V272.518H70.0766V266.21C70.0766 265.425 70.2413 264.703 70.5706 264.044C70.8999 263.36 71.3559 262.803 71.9386 262.372C72.4453 261.941 73.0279 261.612 73.6866 261.384C74.3706 261.131 75.0926 261.004 75.8526 261.004L75.9286 259.446C75.3459 259.471 74.7633 259.573 74.1806 259.75C73.6233 259.927 73.0786 260.181 72.5466 260.51C71.9893 260.839 71.4826 261.257 71.0266 261.764C70.5959 262.245 70.2413 262.803 69.9626 263.436C69.9373 263.005 69.9246 262.727 69.9246 262.6C69.9246 262.473 69.9119 262.195 69.8866 261.764L69.7726 259.75H65.7826V261.232H68.5186V272.518H65.5546V274H72.8886ZM85.914 274V272.518H83.064V259.75H78.58V261.232H81.506V272.518H78.58V274H85.914ZM83.558 254.696C83.558 254.341 83.4313 254.05 83.178 253.822C82.9247 253.569 82.6333 253.442 82.304 253.442C82 253.442 81.7213 253.569 81.468 253.822C81.2147 254.05 81.088 254.341 81.088 254.696C81.088 255.051 81.2147 255.355 81.468 255.608C81.7213 255.836 82 255.95 82.304 255.95C82.6333 255.95 82.9247 255.836 83.178 255.608C83.4313 255.355 83.558 255.051 83.558 254.696ZM96.0104 260.966C96.9984 260.966 97.8851 261.245 98.6704 261.802C99.4811 262.334 100.114 263.031 100.57 263.892C98.8478 264.576 97.1251 265.26 95.4024 265.944C93.7051 266.603 91.9951 267.274 90.2724 267.958C90.0951 267.097 90.1078 266.261 90.3104 265.45C90.5131 264.614 90.8678 263.867 91.3744 263.208C91.9064 262.524 92.5651 261.979 93.3504 261.574C94.1611 261.169 95.0478 260.966 96.0104 260.966ZM100.988 272.29L100.038 271.15C99.5064 271.657 98.8984 272.049 98.2144 272.328C97.5304 272.607 96.7958 272.746 96.0104 272.746C94.8198 272.746 93.7558 272.442 92.8184 271.834C91.8811 271.226 91.1844 270.428 90.7284 269.44C92.7044 268.629 94.6678 267.844 96.6184 267.084C98.5944 266.324 100.57 265.551 102.546 264.766C102.293 264.006 101.964 263.309 101.558 262.676C101.153 262.017 100.684 261.46 100.152 261.004C99.5951 260.497 98.9618 260.117 98.2524 259.864C97.5431 259.585 96.7958 259.446 96.0104 259.446C94.9718 259.446 93.9964 259.649 93.0844 260.054C92.1978 260.434 91.4124 260.953 90.7284 261.612C90.0444 262.271 89.5124 263.056 89.1324 263.968C88.7524 264.88 88.5624 265.843 88.5624 266.856C88.5624 267.895 88.7524 268.857 89.1324 269.744C89.5124 270.631 90.0444 271.416 90.7284 272.1C91.4124 272.784 92.1978 273.316 93.0844 273.696C93.9964 274.076 94.9718 274.266 96.0104 274.266C96.9984 274.266 97.9104 274.089 98.7464 273.734C99.5824 273.379 100.33 272.898 100.988 272.29ZM113.316 274V272.518H110.2V261.27H114.608V259.75H110.2V250.478H108.642V259.75H105.336V261.27H108.642V274H113.316ZM126.785 283.5V282.018H124.353C126.076 278.522 127.798 275.064 129.521 271.644C131.244 268.199 132.966 264.728 134.689 261.232H137.463V259.75H130.813V261.232H133.017C132.054 263.157 131.092 265.07 130.129 266.97C129.192 268.87 128.305 270.745 127.469 272.594C126.582 270.694 125.658 268.807 124.695 266.932C123.758 265.057 122.82 263.157 121.883 261.232H124.315V259.75H117.285V261.232H120.211C121.275 263.411 122.339 265.564 123.403 267.692C124.467 269.82 125.544 271.948 126.633 274.076C125.974 275.393 125.303 276.711 124.619 278.028C123.96 279.345 123.314 280.675 122.681 282.018H119.451V283.5H126.785ZM164.344 272.1C165.003 271.416 165.522 270.631 165.902 269.744C166.307 268.857 166.51 267.895 166.51 266.856C166.51 265.843 166.307 264.88 165.902 263.968C165.522 263.056 165.003 262.258 164.344 261.574C163.66 260.915 162.849 260.396 161.912 260.016C161 259.611 160.025 259.408 158.986 259.408C157.947 259.408 156.972 259.611 156.06 260.016C155.148 260.396 154.363 260.915 153.704 261.574C153.02 262.258 152.488 263.056 152.108 263.968C151.728 264.88 151.538 265.843 151.538 266.856C151.538 267.895 151.728 268.87 152.108 269.782C152.488 270.669 153.02 271.441 153.704 272.1C154.363 272.784 155.135 273.316 156.022 273.696C156.934 274.076 157.922 274.266 158.986 274.266C160.025 274.266 161 274.076 161.912 273.696C162.849 273.316 163.66 272.784 164.344 272.1ZM154.806 270.998C154.274 270.491 153.856 269.883 153.552 269.174C153.248 268.465 153.096 267.692 153.096 266.856C153.096 266.045 153.248 265.285 153.552 264.576C153.856 263.867 154.274 263.233 154.806 262.676C155.338 262.144 155.959 261.726 156.668 261.422C157.377 261.118 158.137 260.966 158.948 260.966C159.759 260.966 160.519 261.118 161.228 261.422C161.963 261.726 162.596 262.144 163.128 262.676C163.685 263.233 164.116 263.879 164.42 264.614C164.724 265.323 164.876 266.071 164.876 266.856C164.876 267.692 164.724 268.465 164.42 269.174C164.116 269.883 163.685 270.491 163.128 270.998C162.596 271.555 161.963 271.986 161.228 272.29C160.519 272.594 159.759 272.746 158.948 272.746C158.137 272.746 157.377 272.594 156.668 272.29C155.959 271.986 155.338 271.555 154.806 270.998ZM176.498 274V272.518H173.04V261.27H177.79V259.75H173.04V254.278C173.04 253.138 173.205 252.125 173.534 251.238C173.863 250.351 174.319 249.591 174.902 248.958C175.459 248.325 176.118 247.843 176.878 247.514C177.663 247.185 178.487 247.007 179.348 246.982V245.5C178.233 245.551 177.195 245.779 176.232 246.184C175.295 246.564 174.471 247.121 173.762 247.856C173.053 248.591 172.495 249.503 172.09 250.592C171.685 251.681 171.482 252.923 171.482 254.316V259.75H169.164V261.27H171.482V272.518H169.164V274H176.498ZM205.664 272.29C206.374 271.657 206.931 270.884 207.336 269.972C207.767 269.06 207.982 268.047 207.982 266.932C207.957 265.184 207.59 263.829 206.88 262.866C206.196 261.903 205.335 261.156 204.296 260.624C203.207 260.092 202.042 259.674 200.8 259.37C199.584 259.066 198.482 258.686 197.494 258.23C196.633 257.85 195.924 257.356 195.366 256.748C194.809 256.115 194.53 255.228 194.53 254.088C194.53 253.404 194.632 252.745 194.834 252.112C195.062 251.479 195.392 250.909 195.822 250.402C196.253 249.895 196.798 249.49 197.456 249.186C198.14 248.882 198.938 248.73 199.85 248.73C200.889 248.73 201.788 248.857 202.548 249.11C203.334 249.338 203.967 249.604 204.448 249.908V253.252H205.968V249.148C205.487 248.768 204.968 248.451 204.41 248.198C203.878 247.919 203.359 247.717 202.852 247.59C202.32 247.463 201.801 247.375 201.294 247.324C200.788 247.273 200.319 247.248 199.888 247.248C198.622 247.248 197.545 247.463 196.658 247.894C195.772 248.299 195.05 248.844 194.492 249.528C193.935 250.212 193.53 250.985 193.276 251.846C193.048 252.682 192.947 253.518 192.972 254.354C193.023 255.595 193.302 256.583 193.808 257.318C194.315 258.053 194.961 258.648 195.746 259.104C196.506 259.535 197.342 259.889 198.254 260.168C199.192 260.447 200.104 260.725 200.99 261.004C201.75 261.283 202.46 261.574 203.118 261.878C203.802 262.157 204.398 262.549 204.904 263.056C205.386 263.487 205.753 264.031 206.006 264.69C206.285 265.349 206.424 266.121 206.424 267.008C206.424 267.895 206.234 268.705 205.854 269.44C205.474 270.149 204.993 270.757 204.41 271.264C203.777 271.745 203.068 272.125 202.282 272.404C201.497 272.683 200.674 272.822 199.812 272.822C198.394 272.822 197.178 272.594 196.164 272.138C195.151 271.682 194.302 271.137 193.618 270.504V267.084H192.098V271.15C192.377 271.479 192.757 271.834 193.238 272.214C193.72 272.569 194.302 272.898 194.986 273.202C195.62 273.531 196.354 273.797 197.19 274C198.052 274.203 198.976 274.304 199.964 274.304C201.054 274.304 202.092 274.139 203.08 273.81C204.068 273.455 204.93 272.949 205.664 272.29ZM224.457 274V272.518H221.493V248.882H229.739V253.252H231.221V247.4H210.207V253.252H211.689V248.882H219.935V272.518H216.819V274H224.457ZM252.921 274V268.148H251.439V272.518H238.177V261.346H250.907V259.826H238.177V248.882H250.907V253.252H252.389V247.4H233.883V248.882H236.619V272.518H233.883V274H252.921ZM263.23 274V272.518H260.228V252.074C260.228 251.846 260.215 251.605 260.19 251.352C260.19 251.073 260.177 250.82 260.152 250.592C260.304 250.82 260.418 250.997 260.494 251.124C260.595 251.225 260.722 251.39 260.874 251.618L272.578 266.856L283.94 252.036C284.142 251.757 284.32 251.517 284.472 251.314C284.624 251.111 284.801 250.871 285.004 250.592C284.978 250.896 284.953 251.149 284.928 251.352C284.928 251.529 284.928 251.77 284.928 252.074V272.518H282.04V274H289.678V272.518H286.486V248.882H289.564V247.4H285.574C283.395 250.212 281.229 253.037 279.076 255.874C276.922 258.686 274.756 261.498 272.578 264.31C270.703 261.903 268.626 259.218 266.346 256.254C264.066 253.265 261.811 250.313 259.582 247.4H255.592V248.882H258.67V272.518H255.592V274H263.23ZM205.533 312V310.518H202.417V299.27H206.825V297.75H202.417V288.478H200.859V297.75H197.553V299.27H200.859V312H205.533ZM222.346 310.1C223.005 309.416 223.524 308.631 223.904 307.744C224.309 306.857 224.512 305.895 224.512 304.856C224.512 303.843 224.309 302.88 223.904 301.968C223.524 301.056 223.005 300.258 222.346 299.574C221.662 298.915 220.851 298.396 219.914 298.016C219.002 297.611 218.027 297.408 216.988 297.408C215.949 297.408 214.974 297.611 214.062 298.016C213.15 298.396 212.365 298.915 211.706 299.574C211.022 300.258 210.49 301.056 210.11 301.968C209.73 302.88 209.54 303.843 209.54 304.856C209.54 305.895 209.73 306.87 210.11 307.782C210.49 308.669 211.022 309.441 211.706 310.1C212.365 310.784 213.137 311.316 214.024 311.696C214.936 312.076 215.924 312.266 216.988 312.266C218.027 312.266 219.002 312.076 219.914 311.696C220.851 311.316 221.662 310.784 222.346 310.1ZM212.808 308.998C212.276 308.491 211.858 307.883 211.554 307.174C211.25 306.465 211.098 305.692 211.098 304.856C211.098 304.045 211.25 303.285 211.554 302.576C211.858 301.867 212.276 301.233 212.808 300.676C213.34 300.144 213.961 299.726 214.67 299.422C215.379 299.118 216.139 298.966 216.95 298.966C217.761 298.966 218.521 299.118 219.23 299.422C219.965 299.726 220.598 300.144 221.13 300.676C221.687 301.233 222.118 301.879 222.422 302.614C222.726 303.323 222.878 304.071 222.878 304.856C222.878 305.692 222.726 306.465 222.422 307.174C222.118 307.883 221.687 308.491 221.13 308.998C220.598 309.555 219.965 309.986 219.23 310.29C218.521 310.594 217.761 310.746 216.95 310.746C216.139 310.746 215.379 310.594 214.67 310.29C213.961 309.986 213.34 309.555 212.808 308.998ZM227.47 321.5H234.804V320.018H231.574V310.29C231.574 310.062 231.561 309.834 231.536 309.606C231.536 309.353 231.536 309.099 231.536 308.846C231.713 309.302 231.967 309.733 232.296 310.138C232.651 310.518 233.094 310.873 233.626 311.202C234.133 311.557 234.715 311.823 235.374 312C236.033 312.203 236.742 312.304 237.502 312.304C238.515 312.304 239.478 312.114 240.39 311.734C241.302 311.329 242.1 310.797 242.784 310.138C243.468 309.479 244 308.694 244.38 307.782C244.76 306.87 244.95 305.907 244.95 304.894C244.95 303.881 244.76 302.931 244.38 302.044C244 301.132 243.468 300.334 242.784 299.65C242.1 298.966 241.302 298.434 240.39 298.054C239.478 297.674 238.515 297.484 237.502 297.484C235.982 297.484 234.69 297.851 233.626 298.586C232.562 299.321 231.815 300.182 231.384 301.17C231.384 300.613 231.359 300.055 231.308 299.498C231.283 298.915 231.27 298.333 231.27 297.75H227.166V299.232H230.016V320.018H227.47V321.5ZM237.502 299.004C238.287 299.004 239.035 299.156 239.744 299.46C240.453 299.739 241.074 300.119 241.606 300.6C242.163 301.132 242.594 301.765 242.898 302.5C243.227 303.235 243.392 304.033 243.392 304.894C243.392 305.73 243.227 306.515 242.898 307.25C242.594 307.985 242.163 308.618 241.606 309.15C241.074 309.657 240.453 310.062 239.744 310.366C239.035 310.645 238.287 310.784 237.502 310.784C236.666 310.784 235.893 310.645 235.184 310.366C234.475 310.062 233.854 309.657 233.322 309.15C232.765 308.593 232.334 307.959 232.03 307.25C231.726 306.515 231.574 305.73 231.574 304.894C231.574 304.083 231.713 303.323 231.992 302.614C232.296 301.879 232.714 301.246 233.246 300.714C233.778 300.182 234.399 299.764 235.108 299.46C235.843 299.156 236.641 299.004 237.502 299.004ZM254.947 312V310.518H252.097V297.75H247.613V299.232H250.539V310.518H247.613V312H254.947ZM252.591 292.696C252.591 292.341 252.465 292.05 252.211 291.822C251.958 291.569 251.667 291.442 251.337 291.442C251.033 291.442 250.755 291.569 250.501 291.822C250.248 292.05 250.121 292.341 250.121 292.696C250.121 293.051 250.248 293.355 250.501 293.608C250.755 293.836 251.033 293.95 251.337 293.95C251.667 293.95 251.958 293.836 252.211 293.608C252.465 293.355 252.591 293.051 252.591 292.696ZM269.756 310.632L268.768 309.454C268.261 309.859 267.691 310.176 267.058 310.404C266.424 310.632 265.753 310.746 265.044 310.746C264.233 310.746 263.46 310.594 262.726 310.29C262.016 309.986 261.408 309.581 260.902 309.074C260.344 308.542 259.914 307.921 259.61 307.212C259.306 306.477 259.154 305.692 259.154 304.856C259.154 304.02 259.306 303.247 259.61 302.538C259.914 301.803 260.357 301.157 260.94 300.6C261.446 300.093 262.054 299.701 262.764 299.422C263.473 299.118 264.233 298.966 265.044 298.966C265.677 298.966 266.272 299.055 266.83 299.232C267.387 299.409 267.894 299.663 268.35 299.992V302.804H269.794V299.08C269.16 298.573 268.438 298.181 267.628 297.902C266.817 297.598 265.956 297.446 265.044 297.446C264.005 297.446 263.03 297.649 262.118 298.054C261.231 298.434 260.446 298.953 259.762 299.612C259.078 300.271 258.546 301.056 258.166 301.968C257.786 302.88 257.596 303.843 257.596 304.856C257.596 305.895 257.786 306.87 258.166 307.782C258.546 308.669 259.09 309.441 259.8 310.1C260.458 310.784 261.231 311.316 262.118 311.696C263.03 312.076 264.005 312.266 265.044 312.266C265.956 312.266 266.804 312.127 267.59 311.848C268.375 311.544 269.097 311.139 269.756 310.632ZM281.141 310.784C281.496 310.379 281.749 309.935 281.901 309.454C282.079 308.947 282.167 308.466 282.167 308.01C282.167 307.199 281.99 306.553 281.635 306.072C281.306 305.591 280.888 305.198 280.381 304.894C279.849 304.59 279.279 304.349 278.671 304.172C278.089 303.969 277.531 303.754 276.999 303.526C276.493 303.323 276.049 303.07 275.669 302.766C275.315 302.437 275.137 301.993 275.137 301.436C275.137 301.005 275.213 300.638 275.365 300.334C275.517 300.03 275.707 299.777 275.935 299.574C276.189 299.397 276.48 299.27 276.809 299.194C277.164 299.093 277.506 299.042 277.835 299.042C278.266 299.042 278.671 299.093 279.051 299.194C279.431 299.295 279.799 299.447 280.153 299.65V301.626H281.597V298.852C281.344 298.624 281.065 298.434 280.761 298.282C280.457 298.105 280.141 297.953 279.811 297.826C279.406 297.699 279.051 297.623 278.747 297.598C278.443 297.547 278.127 297.522 277.797 297.522C277.341 297.522 276.847 297.611 276.315 297.788C275.783 297.94 275.315 298.181 274.909 298.51C274.504 298.839 274.175 299.245 273.921 299.726C273.693 300.207 273.579 300.79 273.579 301.474C273.579 302.31 273.744 302.969 274.073 303.45C274.428 303.906 274.871 304.261 275.403 304.514C275.935 304.767 276.505 304.983 277.113 305.16C277.721 305.337 278.279 305.54 278.785 305.768C279.317 305.971 279.748 306.249 280.077 306.604C280.407 306.959 280.571 307.465 280.571 308.124C280.571 308.58 280.483 308.973 280.305 309.302C280.153 309.606 279.938 309.872 279.659 310.1C279.355 310.328 279.026 310.505 278.671 310.632C278.317 310.733 277.949 310.784 277.569 310.784C277.012 310.784 276.48 310.746 275.973 310.67C275.467 310.569 274.973 310.366 274.491 310.062V308.124H273.085V310.898C273.668 311.455 274.339 311.823 275.099 312C275.885 312.203 276.683 312.304 277.493 312.304C278.355 312.304 279.077 312.165 279.659 311.886C280.267 311.607 280.761 311.24 281.141 310.784ZM288.371 309.91C288.371 309.555 288.245 309.264 287.991 309.036C287.738 308.808 287.459 308.694 287.155 308.694C286.851 308.694 286.573 308.808 286.319 309.036C286.066 309.264 285.939 309.555 285.939 309.91C285.939 310.265 286.066 310.569 286.319 310.822C286.573 311.05 286.851 311.164 287.155 311.164C287.459 311.164 287.738 311.05 287.991 310.822C288.245 310.569 288.371 310.265 288.371 309.91ZM287.915 305.692V283.5H286.357V305.692H287.915Z" fill="white"/>
<path d="M15.1692 838V836.518H12.1672V816.074C12.1672 815.846 12.1545 815.605 12.1292 815.352C12.1292 815.073 12.1165 814.82 12.0912 814.592C12.2432 814.82 12.3572 814.997 12.4332 815.124C12.5345 815.225 12.6612 815.39 12.8132 815.618L24.5172 830.856L35.8792 816.036C36.0818 815.757 36.2592 815.517 36.4112 815.314C36.5632 815.111 36.7405 814.871 36.9432 814.592C36.9178 814.896 36.8925 815.149 36.8672 815.352C36.8672 815.529 36.8672 815.77 36.8672 816.074V836.518H33.9792V838H41.6172V836.518H38.4252V812.882H41.5032V811.4H37.5132C35.3345 814.212 33.1685 817.037 31.0152 819.874C28.8618 822.686 26.6958 825.498 24.5172 828.31C22.6425 825.903 20.5652 823.218 18.2852 820.254C16.0052 817.265 13.7505 814.313 11.5212 811.4H7.53117V812.882H10.6092V836.518H7.53117V838H15.1692ZM51.7175 824.966C52.7055 824.966 53.5921 825.245 54.3775 825.802C55.1881 826.334 55.8215 827.031 56.2775 827.892C54.5548 828.576 52.8321 829.26 51.1095 829.944C49.4121 830.603 47.7021 831.274 45.9795 831.958C45.8021 831.097 45.8148 830.261 46.0175 829.45C46.2201 828.614 46.5748 827.867 47.0815 827.208C47.6135 826.524 48.2721 825.979 49.0575 825.574C49.8681 825.169 50.7548 824.966 51.7175 824.966ZM56.6955 836.29L55.7455 835.15C55.2135 835.657 54.6055 836.049 53.9215 836.328C53.2375 836.607 52.5028 836.746 51.7175 836.746C50.5268 836.746 49.4628 836.442 48.5255 835.834C47.5881 835.226 46.8915 834.428 46.4355 833.44C48.4115 832.629 50.3748 831.844 52.3255 831.084C54.3015 830.324 56.2775 829.551 58.2535 828.766C58.0001 828.006 57.6708 827.309 57.2655 826.676C56.8601 826.017 56.3915 825.46 55.8595 825.004C55.3021 824.497 54.6688 824.117 53.9595 823.864C53.2501 823.585 52.5028 823.446 51.7175 823.446C50.6788 823.446 49.7035 823.649 48.7915 824.054C47.9048 824.434 47.1195 824.953 46.4355 825.612C45.7515 826.271 45.2195 827.056 44.8395 827.968C44.4595 828.88 44.2695 829.843 44.2695 830.856C44.2695 831.895 44.4595 832.857 44.8395 833.744C45.2195 834.631 45.7515 835.416 46.4355 836.1C47.1195 836.784 47.9048 837.316 48.7915 837.696C49.7035 838.076 50.6788 838.266 51.7175 838.266C52.7055 838.266 53.6175 838.089 54.4535 837.734C55.2895 837.379 56.0368 836.898 56.6955 836.29ZM68.4909 824.966C69.4789 824.966 70.3656 825.245 71.1509 825.802C71.9616 826.334 72.5949 827.031 73.0509 827.892C71.3282 828.576 69.6056 829.26 67.8829 829.944C66.1856 830.603 64.4756 831.274 62.7529 831.958C62.5756 831.097 62.5882 830.261 62.7909 829.45C62.9936 828.614 63.3482 827.867 63.8549 827.208C64.3869 826.524 65.0456 825.979 65.8309 825.574C66.6416 825.169 67.5282 824.966 68.4909 824.966ZM73.4689 836.29L72.5189 835.15C71.9869 835.657 71.3789 836.049 70.6949 836.328C70.0109 836.607 69.2762 836.746 68.4909 836.746C67.3002 836.746 66.2362 836.442 65.2989 835.834C64.3616 835.226 63.6649 834.428 63.2089 833.44C65.1849 832.629 67.1482 831.844 69.0989 831.084C71.0749 830.324 73.0509 829.551 75.0269 828.766C74.7736 828.006 74.4442 827.309 74.0389 826.676C73.6336 826.017 73.1649 825.46 72.6329 825.004C72.0756 824.497 71.4422 824.117 70.7329 823.864C70.0236 823.585 69.2762 823.446 68.4909 823.446C67.4522 823.446 66.4769 823.649 65.5649 824.054C64.6782 824.434 63.8929 824.953 63.2089 825.612C62.5249 826.271 61.9929 827.056 61.6129 827.968C61.2329 828.88 61.0429 829.843 61.0429 830.856C61.0429 831.895 61.2329 832.857 61.6129 833.744C61.9929 834.631 62.5249 835.416 63.2089 836.1C63.8929 836.784 64.6782 837.316 65.5649 837.696C66.4769 838.076 67.4522 838.266 68.4909 838.266C69.4789 838.266 70.3909 838.089 71.2269 837.734C72.0629 837.379 72.8102 836.898 73.4689 836.29ZM85.7963 838V836.518H82.6803V825.27H87.0883V823.75H82.6803V814.478H81.1223V823.75H77.8163V825.27H81.1223V838H85.7963ZM108.492 838V836.518H105.68V830.21C105.68 829.45 105.832 828.753 106.136 828.12C106.465 827.487 106.909 826.929 107.466 826.448C107.973 825.992 108.581 825.637 109.29 825.384C109.999 825.131 110.747 825.004 111.532 825.004C112.596 825.055 113.394 825.384 113.926 825.992C114.483 826.575 114.787 827.284 114.838 828.12V836.518H111.874V838H119.208V836.518H116.396V827.702C116.345 826.435 115.915 825.409 115.104 824.624C114.293 823.839 113.191 823.446 111.798 823.446C110.379 823.446 109.113 823.813 107.998 824.548C106.883 825.283 106.073 826.245 105.566 827.436C105.541 827.005 105.515 826.625 105.49 826.296C105.465 825.941 105.439 825.549 105.414 825.118L105.376 823.75H101.386V825.232H104.122V836.518H101.158V838H108.492ZM129.313 824.966C130.301 824.966 131.188 825.245 131.973 825.802C132.784 826.334 133.417 827.031 133.873 827.892C132.15 828.576 130.428 829.26 128.705 829.944C127.008 830.603 125.298 831.274 123.575 831.958C123.398 831.097 123.41 830.261 123.613 829.45C123.816 828.614 124.17 827.867 124.677 827.208C125.209 826.524 125.868 825.979 126.653 825.574C127.464 825.169 128.35 824.966 129.313 824.966ZM134.291 836.29L133.341 835.15C132.809 835.657 132.201 836.049 131.517 836.328C130.833 836.607 130.098 836.746 129.313 836.746C128.122 836.746 127.058 836.442 126.121 835.834C125.184 835.226 124.487 834.428 124.031 833.44C126.007 832.629 127.97 831.844 129.921 831.084C131.897 830.324 133.873 829.551 135.849 828.766C135.596 828.006 135.266 827.309 134.861 826.676C134.456 826.017 133.987 825.46 133.455 825.004C132.898 824.497 132.264 824.117 131.555 823.864C130.846 823.585 130.098 823.446 129.313 823.446C128.274 823.446 127.299 823.649 126.387 824.054C125.5 824.434 124.715 824.953 124.031 825.612C123.347 826.271 122.815 827.056 122.435 827.968C122.055 828.88 121.865 829.843 121.865 830.856C121.865 831.895 122.055 832.857 122.435 833.744C122.815 834.631 123.347 835.416 124.031 836.1C124.715 836.784 125.5 837.316 126.387 837.696C127.299 838.076 128.274 838.266 129.313 838.266C130.301 838.266 131.213 838.089 132.049 837.734C132.885 837.379 133.632 836.898 134.291 836.29ZM153.649 828.614L158.779 838.874C159.919 836.594 161.059 834.327 162.199 832.072C163.339 829.817 164.479 827.537 165.619 825.232H168.203V823.75H161.819V825.232H164.023C163.111 827.056 162.224 828.855 161.363 830.628C160.501 832.401 159.64 834.2 158.779 836.024C157.943 834.225 157.081 832.439 156.195 830.666C155.333 828.867 154.447 827.056 153.535 825.232H156.043V823.75H149.051V825.232H151.749L152.889 827.512C152.154 828.905 151.432 830.286 150.723 831.654C150.039 833.022 149.304 834.479 148.519 836.024C147.733 834.377 146.872 832.629 145.935 830.78C145.023 828.905 144.111 827.056 143.199 825.232H145.441V823.75H138.639V825.232H141.641C142.781 827.537 143.908 829.817 145.023 832.072C146.163 834.327 147.303 836.594 148.443 838.874L153.649 828.614ZM182.546 847.5H189.88V846.018H186.65V836.29C186.65 836.062 186.637 835.834 186.612 835.606C186.612 835.353 186.612 835.099 186.612 834.846C186.789 835.302 187.043 835.733 187.372 836.138C187.727 836.518 188.17 836.873 188.702 837.202C189.209 837.557 189.791 837.823 190.45 838C191.109 838.203 191.818 838.304 192.578 838.304C193.591 838.304 194.554 838.114 195.466 837.734C196.378 837.329 197.176 836.797 197.86 836.138C198.544 835.479 199.076 834.694 199.456 833.782C199.836 832.87 200.026 831.907 200.026 830.894C200.026 829.881 199.836 828.931 199.456 828.044C199.076 827.132 198.544 826.334 197.86 825.65C197.176 824.966 196.378 824.434 195.466 824.054C194.554 823.674 193.591 823.484 192.578 823.484C191.058 823.484 189.766 823.851 188.702 824.586C187.638 825.321 186.891 826.182 186.46 827.17C186.46 826.613 186.435 826.055 186.384 825.498C186.359 824.915 186.346 824.333 186.346 823.75H182.242V825.232H185.092V846.018H182.546V847.5ZM192.578 825.004C193.363 825.004 194.111 825.156 194.82 825.46C195.529 825.739 196.15 826.119 196.682 826.6C197.239 827.132 197.67 827.765 197.974 828.5C198.303 829.235 198.468 830.033 198.468 830.894C198.468 831.73 198.303 832.515 197.974 833.25C197.67 833.985 197.239 834.618 196.682 835.15C196.15 835.657 195.529 836.062 194.82 836.366C194.111 836.645 193.363 836.784 192.578 836.784C191.742 836.784 190.969 836.645 190.26 836.366C189.551 836.062 188.93 835.657 188.398 835.15C187.841 834.593 187.41 833.959 187.106 833.25C186.802 832.515 186.65 831.73 186.65 830.894C186.65 830.083 186.789 829.323 187.068 828.614C187.372 827.879 187.79 827.246 188.322 826.714C188.854 826.182 189.475 825.764 190.184 825.46C190.919 825.156 191.717 825.004 192.578 825.004ZM210.137 824.966C211.125 824.966 212.012 825.245 212.797 825.802C213.608 826.334 214.241 827.031 214.697 827.892C212.975 828.576 211.252 829.26 209.529 829.944C207.832 830.603 206.122 831.274 204.399 831.958C204.222 831.097 204.235 830.261 204.437 829.45C204.64 828.614 204.995 827.867 205.501 827.208C206.033 826.524 206.692 825.979 207.477 825.574C208.288 825.169 209.175 824.966 210.137 824.966ZM215.115 836.29L214.165 835.15C213.633 835.657 213.025 836.049 212.341 836.328C211.657 836.607 210.923 836.746 210.137 836.746C208.947 836.746 207.883 836.442 206.945 835.834C206.008 835.226 205.311 834.428 204.855 833.44C206.831 832.629 208.795 831.844 210.745 831.084C212.721 830.324 214.697 829.551 216.673 828.766C216.42 828.006 216.091 827.309 215.685 826.676C215.28 826.017 214.811 825.46 214.279 825.004C213.722 824.497 213.089 824.117 212.379 823.864C211.67 823.585 210.923 823.446 210.137 823.446C209.099 823.446 208.123 823.649 207.211 824.054C206.325 824.434 205.539 824.953 204.855 825.612C204.171 826.271 203.639 827.056 203.259 827.968C202.879 828.88 202.689 829.843 202.689 830.856C202.689 831.895 202.879 832.857 203.259 833.744C203.639 834.631 204.171 835.416 204.855 836.1C205.539 836.784 206.325 837.316 207.211 837.696C208.123 838.076 209.099 838.266 210.137 838.266C211.125 838.266 212.037 838.089 212.873 837.734C213.709 837.379 214.457 836.898 215.115 836.29ZM232.307 836.1C232.965 835.416 233.485 834.631 233.865 833.744C234.27 832.857 234.473 831.895 234.473 830.856C234.473 829.843 234.27 828.88 233.865 827.968C233.485 827.056 232.965 826.258 232.307 825.574C231.623 824.915 230.812 824.396 229.875 824.016C228.963 823.611 227.987 823.408 226.949 823.408C225.91 823.408 224.935 823.611 224.023 824.016C223.111 824.396 222.325 824.915 221.667 825.574C220.983 826.258 220.451 827.056 220.071 827.968C219.691 828.88 219.501 829.843 219.501 830.856C219.501 831.895 219.691 832.87 220.071 833.782C220.451 834.669 220.983 835.441 221.667 836.1C222.325 836.784 223.098 837.316 223.985 837.696C224.897 838.076 225.885 838.266 226.949 838.266C227.987 838.266 228.963 838.076 229.875 837.696C230.812 837.316 231.623 836.784 232.307 836.1ZM222.769 834.998C222.237 834.491 221.819 833.883 221.515 833.174C221.211 832.465 221.059 831.692 221.059 830.856C221.059 830.045 221.211 829.285 221.515 828.576C221.819 827.867 222.237 827.233 222.769 826.676C223.301 826.144 223.921 825.726 224.631 825.422C225.34 825.118 226.1 824.966 226.911 824.966C227.721 824.966 228.481 825.118 229.191 825.422C229.925 825.726 230.559 826.144 231.091 826.676C231.648 827.233 232.079 827.879 232.383 828.614C232.687 829.323 232.839 830.071 232.839 830.856C232.839 831.692 232.687 832.465 232.383 833.174C232.079 833.883 231.648 834.491 231.091 834.998C230.559 835.555 229.925 835.986 229.191 836.29C228.481 836.594 227.721 836.746 226.911 836.746C226.1 836.746 225.34 836.594 224.631 836.29C223.921 835.986 223.301 835.555 222.769 834.998ZM237.431 847.5H244.765V846.018H241.535V836.29C241.535 836.062 241.522 835.834 241.497 835.606C241.497 835.353 241.497 835.099 241.497 834.846C241.674 835.302 241.928 835.733 242.257 836.138C242.612 836.518 243.055 836.873 243.587 837.202C244.094 837.557 244.676 837.823 245.335 838C245.994 838.203 246.703 838.304 247.463 838.304C248.476 838.304 249.439 838.114 250.351 837.734C251.263 837.329 252.061 836.797 252.745 836.138C253.429 835.479 253.961 834.694 254.341 833.782C254.721 832.87 254.911 831.907 254.911 830.894C254.911 829.881 254.721 828.931 254.341 828.044C253.961 827.132 253.429 826.334 252.745 825.65C252.061 824.966 251.263 824.434 250.351 824.054C249.439 823.674 248.476 823.484 247.463 823.484C245.943 823.484 244.651 823.851 243.587 824.586C242.523 825.321 241.776 826.182 241.345 827.17C241.345 826.613 241.32 826.055 241.269 825.498C241.244 824.915 241.231 824.333 241.231 823.75H237.127V825.232H239.977V846.018H237.431V847.5ZM247.463 825.004C248.248 825.004 248.996 825.156 249.705 825.46C250.414 825.739 251.035 826.119 251.567 826.6C252.124 827.132 252.555 827.765 252.859 828.5C253.188 829.235 253.353 830.033 253.353 830.894C253.353 831.73 253.188 832.515 252.859 833.25C252.555 833.985 252.124 834.618 251.567 835.15C251.035 835.657 250.414 836.062 249.705 836.366C248.996 836.645 248.248 836.784 247.463 836.784C246.627 836.784 245.854 836.645 245.145 836.366C244.436 836.062 243.815 835.657 243.283 835.15C242.726 834.593 242.295 833.959 241.991 833.25C241.687 832.515 241.535 831.73 241.535 830.894C241.535 830.083 241.674 829.323 241.953 828.614C242.257 827.879 242.675 827.246 243.207 826.714C243.739 826.182 244.36 825.764 245.069 825.46C245.804 825.156 246.602 825.004 247.463 825.004ZM264.908 838V836.518H261.944V809.5H257.688V810.982H260.386V836.518H257.574V838H264.908ZM275.005 824.966C275.993 824.966 276.879 825.245 277.665 825.802C278.475 826.334 279.109 827.031 279.565 827.892C277.842 828.576 276.119 829.26 274.397 829.944C272.699 830.603 270.989 831.274 269.267 831.958C269.089 831.097 269.102 830.261 269.305 829.45C269.507 828.614 269.862 827.867 270.369 827.208C270.901 826.524 271.559 825.979 272.345 825.574C273.155 825.169 274.042 824.966 275.005 824.966ZM279.983 836.29L279.033 835.15C278.501 835.657 277.893 836.049 277.209 836.328C276.525 836.607 275.79 836.746 275.005 836.746C273.814 836.746 272.75 836.442 271.813 835.834C270.875 835.226 270.179 834.428 269.723 833.44C271.699 832.629 273.662 831.844 275.613 831.084C277.589 830.324 279.565 829.551 281.541 828.766C281.287 828.006 280.958 827.309 280.553 826.676C280.147 826.017 279.679 825.46 279.147 825.004C278.589 824.497 277.956 824.117 277.247 823.864C276.537 823.585 275.79 823.446 275.005 823.446C273.966 823.446 272.991 823.649 272.079 824.054C271.192 824.434 270.407 824.953 269.723 825.612C269.039 826.271 268.507 827.056 268.127 827.968C267.747 828.88 267.557 829.843 267.557 830.856C267.557 831.895 267.747 832.857 268.127 833.744C268.507 834.631 269.039 835.416 269.723 836.1C270.407 836.784 271.192 837.316 272.079 837.696C272.991 838.076 273.966 838.266 275.005 838.266C275.993 838.266 276.905 838.089 277.741 837.734C278.577 837.379 279.324 836.898 279.983 836.29ZM141.356 876V874.518H138.544V861.75H137.29C137.24 862.307 137.202 862.877 137.176 863.46C137.151 864.017 137.138 864.562 137.138 865.094C136.708 864.106 135.96 863.257 134.896 862.548C133.832 861.813 132.553 861.446 131.058 861.446C129.994 861.446 129.006 861.649 128.094 862.054C127.208 862.434 126.422 862.953 125.738 863.612C125.054 864.296 124.522 865.094 124.142 866.006C123.762 866.918 123.572 867.868 123.572 868.856C123.572 869.895 123.762 870.857 124.142 871.744C124.522 872.631 125.054 873.416 125.738 874.1C126.422 874.784 127.208 875.316 128.094 875.696C129.006 876.076 129.994 876.266 131.058 876.266C131.818 876.266 132.528 876.165 133.186 875.962C133.87 875.759 134.478 875.481 135.01 875.126C135.517 874.797 135.948 874.429 136.302 874.024C136.682 873.593 136.961 873.15 137.138 872.694C137.138 873.023 137.138 873.327 137.138 873.606C137.138 873.859 137.138 874.138 137.138 874.442V876H141.356ZM131.058 862.966C131.869 862.966 132.629 863.118 133.338 863.422C134.048 863.701 134.681 864.106 135.238 864.638C135.77 865.17 136.188 865.803 136.492 866.538C136.822 867.247 136.986 868.02 136.986 868.856C136.986 869.692 136.822 870.477 136.492 871.212C136.188 871.921 135.758 872.542 135.2 873.074C134.668 873.606 134.048 874.024 133.338 874.328C132.629 874.607 131.869 874.746 131.058 874.746C130.248 874.746 129.5 874.607 128.816 874.328C128.132 874.049 127.524 873.657 126.992 873.15C126.41 872.618 125.954 871.985 125.624 871.25C125.295 870.515 125.13 869.717 125.13 868.856C125.13 868.045 125.27 867.285 125.548 866.576C125.852 865.867 126.27 865.246 126.802 864.714C127.309 864.157 127.93 863.726 128.664 863.422C129.399 863.118 130.197 862.966 131.058 862.966ZM151.353 876V874.518H148.541V868.21C148.541 867.45 148.693 866.753 148.997 866.12C149.327 865.487 149.77 864.929 150.327 864.448C150.834 863.992 151.442 863.637 152.151 863.384C152.861 863.131 153.608 863.004 154.393 863.004C155.457 863.055 156.255 863.384 156.787 863.992C157.345 864.575 157.649 865.284 157.699 866.12V874.518H154.735V876H162.069V874.518H159.257V865.702C159.207 864.435 158.776 863.409 157.965 862.624C157.155 861.839 156.053 861.446 154.659 861.446C153.241 861.446 151.974 861.813 150.859 862.548C149.745 863.283 148.934 864.245 148.427 865.436C148.402 865.005 148.377 864.625 148.351 864.296C148.326 863.941 148.301 863.549 148.275 863.118L148.237 861.75H144.247V863.232H146.983V874.518H144.019V876H151.353ZM182.51 876V874.518H179.698V847.5H175.442V848.982H178.14V861.598C178.14 862.282 178.14 862.839 178.14 863.27C178.14 863.701 178.153 864.258 178.178 864.942C177.976 864.511 177.71 864.093 177.38 863.688C177.051 863.283 176.62 862.903 176.088 862.548C175.556 862.219 174.948 861.953 174.264 861.75C173.606 861.547 172.922 861.446 172.212 861.446C171.148 861.446 170.16 861.649 169.248 862.054C168.362 862.434 167.576 862.953 166.892 863.612C166.208 864.271 165.676 865.056 165.296 865.968C164.916 866.88 164.726 867.843 164.726 868.856C164.726 869.895 164.916 870.857 165.296 871.744C165.676 872.631 166.208 873.416 166.892 874.1C167.576 874.784 168.362 875.316 169.248 875.696C170.16 876.076 171.148 876.266 172.212 876.266C172.972 876.266 173.682 876.165 174.34 875.962C175.024 875.759 175.632 875.481 176.164 875.126C176.671 874.797 177.102 874.429 177.456 874.024C177.836 873.593 178.115 873.15 178.292 872.694C178.292 873.023 178.292 873.327 178.292 873.606C178.292 873.859 178.292 874.138 178.292 874.442V876H182.51ZM172.212 862.966C172.998 862.966 173.745 863.105 174.454 863.384C175.164 863.663 175.784 864.055 176.316 864.562C176.874 865.094 177.317 865.74 177.646 866.5C177.976 867.235 178.14 868.02 178.14 868.856C178.14 869.692 177.976 870.477 177.646 871.212C177.342 871.947 176.912 872.567 176.354 873.074C175.797 873.606 175.164 874.024 174.454 874.328C173.77 874.607 173.023 874.746 172.212 874.746C171.376 874.746 170.604 874.607 169.894 874.328C169.21 874.024 168.602 873.606 168.07 873.074C167.513 872.567 167.07 871.947 166.74 871.212C166.436 870.477 166.284 869.692 166.284 868.856C166.284 868.045 166.436 867.285 166.74 866.576C167.044 865.841 167.462 865.208 167.994 864.676C168.526 864.144 169.147 863.726 169.856 863.422C170.566 863.118 171.351 862.966 172.212 862.966ZM203.9 876V874.518H201.088V868.21C201.088 867.45 201.24 866.753 201.544 866.12C201.874 865.487 202.317 864.929 202.874 864.448C203.381 863.992 203.989 863.637 204.698 863.384C205.408 863.131 206.155 863.004 206.94 863.004C208.004 863.055 208.802 863.384 209.334 863.992C209.892 864.575 210.196 865.284 210.246 866.12V874.518H207.282V876H214.616V874.518H211.804V868.058C211.83 867.323 212.007 866.652 212.336 866.044C212.666 865.411 213.096 864.866 213.628 864.41C214.16 863.979 214.768 863.637 215.452 863.384C216.162 863.131 216.896 863.004 217.656 863.004C218.72 863.055 219.518 863.384 220.05 863.992C220.608 864.575 220.912 865.284 220.962 866.12V874.518H218.036V876H225.332V874.518H222.52V865.702C222.47 864.435 222.039 863.409 221.228 862.624C220.443 861.839 219.341 861.446 217.922 861.446C216.529 861.471 215.288 861.826 214.198 862.51C213.134 863.194 212.324 864.106 211.766 865.246C211.64 864.106 211.171 863.194 210.36 862.51C209.55 861.801 208.498 861.446 207.206 861.446C205.762 861.471 204.483 861.851 203.368 862.586C202.279 863.295 201.481 864.245 200.974 865.436C200.949 865.005 200.924 864.625 200.898 864.296C200.873 863.941 200.848 863.549 200.822 863.118L200.784 861.75H196.794V863.232H199.53V874.518H196.566V876H203.9ZM245.782 876V874.518H242.97V861.75H241.716C241.665 862.307 241.627 862.877 241.602 863.46C241.577 864.017 241.564 864.562 241.564 865.094C241.133 864.106 240.386 863.257 239.322 862.548C238.258 861.813 236.979 861.446 235.484 861.446C234.42 861.446 233.432 861.649 232.52 862.054C231.633 862.434 230.848 862.953 230.164 863.612C229.48 864.296 228.948 865.094 228.568 866.006C228.188 866.918 227.998 867.868 227.998 868.856C227.998 869.895 228.188 870.857 228.568 871.744C228.948 872.631 229.48 873.416 230.164 874.1C230.848 874.784 231.633 875.316 232.52 875.696C233.432 876.076 234.42 876.266 235.484 876.266C236.244 876.266 236.953 876.165 237.612 875.962C238.296 875.759 238.904 875.481 239.436 875.126C239.943 874.797 240.373 874.429 240.728 874.024C241.108 873.593 241.387 873.15 241.564 872.694C241.564 873.023 241.564 873.327 241.564 873.606C241.564 873.859 241.564 874.138 241.564 874.442V876H245.782ZM235.484 862.966C236.295 862.966 237.055 863.118 237.764 863.422C238.473 863.701 239.107 864.106 239.664 864.638C240.196 865.17 240.614 865.803 240.918 866.538C241.247 867.247 241.412 868.02 241.412 868.856C241.412 869.692 241.247 870.477 240.918 871.212C240.614 871.921 240.183 872.542 239.626 873.074C239.094 873.606 238.473 874.024 237.764 874.328C237.055 874.607 236.295 874.746 235.484 874.746C234.673 874.746 233.926 874.607 233.242 874.328C232.558 874.049 231.95 873.657 231.418 873.15C230.835 872.618 230.379 871.985 230.05 871.25C229.721 870.515 229.556 869.717 229.556 868.856C229.556 868.045 229.695 867.285 229.974 866.576C230.278 865.867 230.696 865.246 231.228 864.714C231.735 864.157 232.355 863.726 233.09 863.422C233.825 863.118 234.623 862.966 235.484 862.966ZM248.445 876H255.779V874.518H252.815V870.718L255.247 868.4C255.957 869.439 256.691 870.465 257.451 871.478C258.211 872.466 258.971 873.479 259.731 874.518H257.869V876H264.899V874.518H261.593C260.707 873.327 259.833 872.149 258.971 870.984C258.11 869.793 257.249 868.59 256.387 867.374C257.198 866.614 257.92 865.93 258.553 865.322C259.212 864.689 259.921 863.992 260.681 863.232H263.455V861.75H256.425V863.232H258.743L252.815 868.78V847.5H248.559V848.982H251.257V874.518H248.445V876ZM275.005 862.966C275.993 862.966 276.879 863.245 277.665 863.802C278.475 864.334 279.109 865.031 279.565 865.892C277.842 866.576 276.119 867.26 274.397 867.944C272.699 868.603 270.989 869.274 269.267 869.958C269.089 869.097 269.102 868.261 269.305 867.45C269.507 866.614 269.862 865.867 270.369 865.208C270.901 864.524 271.559 863.979 272.345 863.574C273.155 863.169 274.042 862.966 275.005 862.966ZM279.983 874.29L279.033 873.15C278.501 873.657 277.893 874.049 277.209 874.328C276.525 874.607 275.79 874.746 275.005 874.746C273.814 874.746 272.75 874.442 271.813 873.834C270.875 873.226 270.179 872.428 269.723 871.44C271.699 870.629 273.662 869.844 275.613 869.084C277.589 868.324 279.565 867.551 281.541 866.766C281.287 866.006 280.958 865.309 280.553 864.676C280.147 864.017 279.679 863.46 279.147 863.004C278.589 862.497 277.956 862.117 277.247 861.864C276.537 861.585 275.79 861.446 275.005 861.446C273.966 861.446 272.991 861.649 272.079 862.054C271.192 862.434 270.407 862.953 269.723 863.612C269.039 864.271 268.507 865.056 268.127 865.968C267.747 866.88 267.557 867.843 267.557 868.856C267.557 869.895 267.747 870.857 268.127 871.744C268.507 872.631 269.039 873.416 269.723 874.1C270.407 874.784 271.192 875.316 272.079 875.696C272.991 876.076 273.966 876.266 275.005 876.266C275.993 876.266 276.905 876.089 277.741 875.734C278.577 875.379 279.324 874.898 279.983 874.29ZM179.334 914V912.518H175.876V901.27H180.626V899.75H175.876V894.278C175.876 893.138 176.041 892.125 176.37 891.238C176.699 890.351 177.155 889.591 177.738 888.958C178.295 888.325 178.954 887.843 179.714 887.514C180.499 887.185 181.323 887.007 182.184 886.982V885.5C181.069 885.551 180.031 885.779 179.068 886.184C178.131 886.564 177.307 887.121 176.598 887.856C175.889 888.591 175.331 889.503 174.926 890.592C174.521 891.681 174.318 892.923 174.318 894.316V899.75H172V901.27H174.318V912.518H172V914H179.334ZM190.838 914V912.518H188.026V906.21C188.026 905.425 188.19 904.703 188.52 904.044C188.849 903.36 189.305 902.803 189.888 902.372C190.394 901.941 190.977 901.612 191.636 901.384C192.32 901.131 193.042 901.004 193.802 901.004L193.878 899.446C193.295 899.471 192.712 899.573 192.13 899.75C191.572 899.927 191.028 900.181 190.496 900.51C189.938 900.839 189.432 901.257 188.976 901.764C188.545 902.245 188.19 902.803 187.912 903.436C187.886 903.005 187.874 902.727 187.874 902.6C187.874 902.473 187.861 902.195 187.836 901.764L187.722 899.75H183.732V901.232H186.468V912.518H183.504V914H190.838ZM203.863 914V912.518H201.013V899.75H196.529V901.232H199.455V912.518H196.529V914H203.863ZM201.507 894.696C201.507 894.341 201.381 894.05 201.127 893.822C200.874 893.569 200.583 893.442 200.253 893.442C199.949 893.442 199.671 893.569 199.417 893.822C199.164 894.05 199.037 894.341 199.037 894.696C199.037 895.051 199.164 895.355 199.417 895.608C199.671 895.836 199.949 895.95 200.253 895.95C200.583 895.95 200.874 895.836 201.127 895.608C201.381 895.355 201.507 895.051 201.507 894.696ZM213.96 900.966C214.948 900.966 215.834 901.245 216.62 901.802C217.43 902.334 218.064 903.031 218.52 903.892C216.797 904.576 215.074 905.26 213.352 905.944C211.654 906.603 209.944 907.274 208.222 907.958C208.044 907.097 208.057 906.261 208.26 905.45C208.462 904.614 208.817 903.867 209.324 903.208C209.856 902.524 210.514 901.979 211.3 901.574C212.11 901.169 212.997 900.966 213.96 900.966ZM218.938 912.29L217.988 911.15C217.456 911.657 216.848 912.049 216.164 912.328C215.48 912.607 214.745 912.746 213.96 912.746C212.769 912.746 211.705 912.442 210.768 911.834C209.83 911.226 209.134 910.428 208.678 909.44C210.654 908.629 212.617 907.844 214.568 907.084C216.544 906.324 218.52 905.551 220.496 904.766C220.242 904.006 219.913 903.309 219.508 902.676C219.102 902.017 218.634 901.46 218.102 901.004C217.544 900.497 216.911 900.117 216.202 899.864C215.492 899.585 214.745 899.446 213.96 899.446C212.921 899.446 211.946 899.649 211.034 900.054C210.147 900.434 209.362 900.953 208.678 901.612C207.994 902.271 207.462 903.056 207.082 903.968C206.702 904.88 206.512 905.843 206.512 906.856C206.512 907.895 206.702 908.857 207.082 909.744C207.462 910.631 207.994 911.416 208.678 912.1C209.362 912.784 210.147 913.316 211.034 913.696C211.946 914.076 212.921 914.266 213.96 914.266C214.948 914.266 215.86 914.089 216.696 913.734C217.532 913.379 218.279 912.898 218.938 912.29ZM230.619 914V912.518H227.807V906.21C227.807 905.45 227.959 904.753 228.263 904.12C228.592 903.487 229.036 902.929 229.593 902.448C230.1 901.992 230.708 901.637 231.417 901.384C232.126 901.131 232.874 901.004 233.659 901.004C234.723 901.055 235.521 901.384 236.053 901.992C236.61 902.575 236.914 903.284 236.965 904.12V912.518H234.001V914H241.335V912.518H238.523V903.702C238.472 902.435 238.042 901.409 237.231 900.624C236.42 899.839 235.318 899.446 233.925 899.446C232.506 899.446 231.24 899.813 230.125 900.548C229.01 901.283 228.2 902.245 227.693 903.436C227.668 903.005 227.642 902.625 227.617 902.296C227.592 901.941 227.566 901.549 227.541 901.118L227.503 899.75H223.513V901.232H226.249V912.518H223.285V914H230.619ZM261.776 914V912.518H258.964V885.5H254.708V886.982H257.406V899.598C257.406 900.282 257.406 900.839 257.406 901.27C257.406 901.701 257.419 902.258 257.444 902.942C257.241 902.511 256.975 902.093 256.646 901.688C256.317 901.283 255.886 900.903 255.354 900.548C254.822 900.219 254.214 899.953 253.53 899.75C252.871 899.547 252.187 899.446 251.478 899.446C250.414 899.446 249.426 899.649 248.514 900.054C247.627 900.434 246.842 900.953 246.158 901.612C245.474 902.271 244.942 903.056 244.562 903.968C244.182 904.88 243.992 905.843 243.992 906.856C243.992 907.895 244.182 908.857 244.562 909.744C244.942 910.631 245.474 911.416 246.158 912.1C246.842 912.784 247.627 913.316 248.514 913.696C249.426 914.076 250.414 914.266 251.478 914.266C252.238 914.266 252.947 914.165 253.606 913.962C254.29 913.759 254.898 913.481 255.43 913.126C255.937 912.797 256.367 912.429 256.722 912.024C257.102 911.593 257.381 911.15 257.558 910.694C257.558 911.023 257.558 911.327 257.558 911.606C257.558 911.859 257.558 912.138 257.558 912.442V914H261.776ZM251.478 900.966C252.263 900.966 253.011 901.105 253.72 901.384C254.429 901.663 255.05 902.055 255.582 902.562C256.139 903.094 256.583 903.74 256.912 904.5C257.241 905.235 257.406 906.02 257.406 906.856C257.406 907.692 257.241 908.477 256.912 909.212C256.608 909.947 256.177 910.567 255.62 911.074C255.063 911.606 254.429 912.024 253.72 912.328C253.036 912.607 252.289 912.746 251.478 912.746C250.642 912.746 249.869 912.607 249.16 912.328C248.476 912.024 247.868 911.606 247.336 911.074C246.779 910.567 246.335 909.947 246.006 909.212C245.702 908.477 245.55 907.692 245.55 906.856C245.55 906.045 245.702 905.285 246.006 904.576C246.31 903.841 246.728 903.208 247.26 902.676C247.792 902.144 248.413 901.726 249.122 901.422C249.831 901.118 250.617 900.966 251.478 900.966ZM273.141 912.784C273.496 912.379 273.749 911.935 273.901 911.454C274.079 910.947 274.167 910.466 274.167 910.01C274.167 909.199 273.99 908.553 273.635 908.072C273.306 907.591 272.888 907.198 272.381 906.894C271.849 906.59 271.279 906.349 270.671 906.172C270.089 905.969 269.531 905.754 268.999 905.526C268.493 905.323 268.049 905.07 267.669 904.766C267.315 904.437 267.137 903.993 267.137 903.436C267.137 903.005 267.213 902.638 267.365 902.334C267.517 902.03 267.707 901.777 267.935 901.574C268.189 901.397 268.48 901.27 268.809 901.194C269.164 901.093 269.506 901.042 269.835 901.042C270.266 901.042 270.671 901.093 271.051 901.194C271.431 901.295 271.799 901.447 272.153 901.65V903.626H273.597V900.852C273.344 900.624 273.065 900.434 272.761 900.282C272.457 900.105 272.141 899.953 271.811 899.826C271.406 899.699 271.051 899.623 270.747 899.598C270.443 899.547 270.127 899.522 269.797 899.522C269.341 899.522 268.847 899.611 268.315 899.788C267.783 899.94 267.315 900.181 266.909 900.51C266.504 900.839 266.175 901.245 265.921 901.726C265.693 902.207 265.579 902.79 265.579 903.474C265.579 904.31 265.744 904.969 266.073 905.45C266.428 905.906 266.871 906.261 267.403 906.514C267.935 906.767 268.505 906.983 269.113 907.16C269.721 907.337 270.279 907.54 270.785 907.768C271.317 907.971 271.748 908.249 272.077 908.604C272.407 908.959 272.571 909.465 272.571 910.124C272.571 910.58 272.483 910.973 272.305 911.302C272.153 911.606 271.938 911.872 271.659 912.1C271.355 912.328 271.026 912.505 270.671 912.632C270.317 912.733 269.949 912.784 269.569 912.784C269.012 912.784 268.48 912.746 267.973 912.67C267.467 912.569 266.973 912.366 266.491 912.062V910.124H265.085V912.898C265.668 913.455 266.339 913.823 267.099 914C267.885 914.203 268.683 914.304 269.493 914.304C270.355 914.304 271.077 914.165 271.659 913.886C272.267 913.607 272.761 913.24 273.141 912.784ZM280.371 911.91C280.371 911.555 280.245 911.264 279.991 911.036C279.738 910.808 279.459 910.694 279.155 910.694C278.851 910.694 278.573 910.808 278.319 911.036C278.066 911.264 277.939 911.555 277.939 911.91C277.939 912.265 278.066 912.569 278.319 912.822C278.573 913.05 278.851 913.164 279.155 913.164C279.459 913.164 279.738 913.05 279.991 912.822C280.245 912.569 280.371 912.265 280.371 911.91ZM279.915 907.692V885.5H278.357V907.692H279.915Z" fill="white"/>
<path d="M463.968 546V544.518H460.206V533.46H464.424C467.008 533.46 468.997 532.827 470.39 531.56C471.783 530.268 472.48 528.533 472.48 526.354C472.48 525.113 472.201 524.049 471.644 523.162C471.087 522.275 470.403 521.553 469.592 520.996C468.781 520.439 467.895 520.033 466.932 519.78C465.995 519.527 465.133 519.4 464.348 519.4H456.33V520.882H458.648V544.518H456.33V546H463.968ZM460.206 520.882H464.196C465.159 520.882 466.045 521.034 466.856 521.338C467.667 521.642 468.389 522.035 469.022 522.516C469.605 523.023 470.061 523.605 470.39 524.264C470.745 524.923 470.922 525.619 470.922 526.354C470.922 526.962 470.821 527.595 470.618 528.254C470.415 528.913 470.061 529.508 469.554 530.04C469.022 530.597 468.313 531.066 467.426 531.446C466.565 531.801 465.475 531.978 464.158 531.978H460.206V520.882ZM492.928 546V544.518H490.116V531.75H488.862C488.812 532.307 488.774 532.877 488.748 533.46C488.723 534.017 488.71 534.562 488.71 535.094C488.28 534.106 487.532 533.257 486.468 532.548C485.404 531.813 484.125 531.446 482.63 531.446C481.566 531.446 480.578 531.649 479.666 532.054C478.78 532.434 477.994 532.953 477.31 533.612C476.626 534.296 476.094 535.094 475.714 536.006C475.334 536.918 475.144 537.868 475.144 538.856C475.144 539.895 475.334 540.857 475.714 541.744C476.094 542.631 476.626 543.416 477.31 544.1C477.994 544.784 478.78 545.316 479.666 545.696C480.578 546.076 481.566 546.266 482.63 546.266C483.39 546.266 484.1 546.165 484.758 545.962C485.442 545.759 486.05 545.481 486.582 545.126C487.089 544.797 487.52 544.429 487.874 544.024C488.254 543.593 488.533 543.15 488.71 542.694C488.71 543.023 488.71 543.327 488.71 543.606C488.71 543.859 488.71 544.138 488.71 544.442V546H492.928ZM482.63 532.966C483.441 532.966 484.201 533.118 484.91 533.422C485.62 533.701 486.253 534.106 486.81 534.638C487.342 535.17 487.76 535.803 488.064 536.538C488.394 537.247 488.558 538.02 488.558 538.856C488.558 539.692 488.394 540.477 488.064 541.212C487.76 541.921 487.33 542.542 486.772 543.074C486.24 543.606 485.62 544.024 484.91 544.328C484.201 544.607 483.441 544.746 482.63 544.746C481.82 544.746 481.072 544.607 480.388 544.328C479.704 544.049 479.096 543.657 478.564 543.15C477.982 542.618 477.526 541.985 477.196 541.25C476.867 540.515 476.702 539.717 476.702 538.856C476.702 538.045 476.842 537.285 477.12 536.576C477.424 535.867 477.842 535.246 478.374 534.714C478.881 534.157 479.502 533.726 480.236 533.422C480.971 533.118 481.769 532.966 482.63 532.966ZM502.926 546V544.518H500.114V538.21C500.114 537.425 500.278 536.703 500.608 536.044C500.937 535.36 501.393 534.803 501.976 534.372C502.482 533.941 503.065 533.612 503.724 533.384C504.408 533.131 505.13 533.004 505.89 533.004L505.966 531.446C505.383 531.471 504.8 531.573 504.218 531.75C503.66 531.927 503.116 532.181 502.584 532.51C502.026 532.839 501.52 533.257 501.064 533.764C500.633 534.245 500.278 534.803 500 535.436C499.974 535.005 499.962 534.727 499.962 534.6C499.962 534.473 499.949 534.195 499.924 533.764L499.81 531.75H495.82V533.232H498.556V544.518H495.592V546H502.926ZM516.597 546V544.518H513.481V533.27H517.889V531.75H513.481V522.478H511.923V531.75H508.617V533.27H511.923V546H516.597ZM527.9 546V544.518H525.05V531.75H520.566V533.232H523.492V544.518H520.566V546H527.9ZM525.544 526.696C525.544 526.341 525.418 526.05 525.164 525.822C524.911 525.569 524.62 525.442 524.29 525.442C523.986 525.442 523.708 525.569 523.454 525.822C523.201 526.05 523.074 526.341 523.074 526.696C523.074 527.051 523.201 527.355 523.454 527.608C523.708 527.836 523.986 527.95 524.29 527.95C524.62 527.95 524.911 527.836 525.164 527.608C525.418 527.355 525.544 527.051 525.544 526.696ZM542.709 544.632L541.721 543.454C541.214 543.859 540.644 544.176 540.011 544.404C539.377 544.632 538.706 544.746 537.997 544.746C537.186 544.746 536.413 544.594 535.679 544.29C534.969 543.986 534.361 543.581 533.855 543.074C533.297 542.542 532.867 541.921 532.563 541.212C532.259 540.477 532.107 539.692 532.107 538.856C532.107 538.02 532.259 537.247 532.563 536.538C532.867 535.803 533.31 535.157 533.893 534.6C534.399 534.093 535.007 533.701 535.717 533.422C536.426 533.118 537.186 532.966 537.997 532.966C538.63 532.966 539.225 533.055 539.783 533.232C540.34 533.409 540.847 533.663 541.303 533.992V536.804H542.747V533.08C542.113 532.573 541.391 532.181 540.581 531.902C539.77 531.598 538.909 531.446 537.997 531.446C536.958 531.446 535.983 531.649 535.071 532.054C534.184 532.434 533.399 532.953 532.715 533.612C532.031 534.271 531.499 535.056 531.119 535.968C530.739 536.88 530.549 537.843 530.549 538.856C530.549 539.895 530.739 540.87 531.119 541.782C531.499 542.669 532.043 543.441 532.753 544.1C533.411 544.784 534.184 545.316 535.071 545.696C535.983 546.076 536.958 546.266 537.997 546.266C538.909 546.266 539.757 546.127 540.543 545.848C541.328 545.544 542.05 545.139 542.709 544.632ZM552.727 546V544.518H549.877V531.75H545.393V533.232H548.319V544.518H545.393V546H552.727ZM550.371 526.696C550.371 526.341 550.244 526.05 549.991 525.822C549.737 525.569 549.446 525.442 549.117 525.442C548.813 525.442 548.534 525.569 548.281 525.822C548.027 526.05 547.901 526.341 547.901 526.696C547.901 527.051 548.027 527.355 548.281 527.608C548.534 527.836 548.813 527.95 549.117 527.95C549.446 527.95 549.737 527.836 549.991 527.608C550.244 527.355 550.371 527.051 550.371 526.696ZM555.679 555.5H563.013V554.018H559.783V544.29C559.783 544.062 559.77 543.834 559.745 543.606C559.745 543.353 559.745 543.099 559.745 542.846C559.922 543.302 560.176 543.733 560.505 544.138C560.86 544.518 561.303 544.873 561.835 545.202C562.342 545.557 562.924 545.823 563.583 546C564.242 546.203 564.951 546.304 565.711 546.304C566.724 546.304 567.687 546.114 568.599 545.734C569.511 545.329 570.309 544.797 570.993 544.138C571.677 543.479 572.209 542.694 572.589 541.782C572.969 540.87 573.159 539.907 573.159 538.894C573.159 537.881 572.969 536.931 572.589 536.044C572.209 535.132 571.677 534.334 570.993 533.65C570.309 532.966 569.511 532.434 568.599 532.054C567.687 531.674 566.724 531.484 565.711 531.484C564.191 531.484 562.899 531.851 561.835 532.586C560.771 533.321 560.024 534.182 559.593 535.17C559.593 534.613 559.568 534.055 559.517 533.498C559.492 532.915 559.479 532.333 559.479 531.75H555.375V533.232H558.225V554.018H555.679V555.5ZM565.711 533.004C566.496 533.004 567.244 533.156 567.953 533.46C568.662 533.739 569.283 534.119 569.815 534.6C570.372 535.132 570.803 535.765 571.107 536.5C571.436 537.235 571.601 538.033 571.601 538.894C571.601 539.73 571.436 540.515 571.107 541.25C570.803 541.985 570.372 542.618 569.815 543.15C569.283 543.657 568.662 544.062 567.953 544.366C567.244 544.645 566.496 544.784 565.711 544.784C564.875 544.784 564.102 544.645 563.393 544.366C562.684 544.062 562.063 543.657 561.531 543.15C560.974 542.593 560.543 541.959 560.239 541.25C559.935 540.515 559.783 539.73 559.783 538.894C559.783 538.083 559.922 537.323 560.201 536.614C560.505 535.879 560.923 535.246 561.455 534.714C561.987 534.182 562.608 533.764 563.317 533.46C564.052 533.156 564.85 533.004 565.711 533.004ZM593.606 546V544.518H590.794V531.75H589.54C589.49 532.307 589.452 532.877 589.426 533.46C589.401 534.017 589.388 534.562 589.388 535.094C588.958 534.106 588.21 533.257 587.146 532.548C586.082 531.813 584.803 531.446 583.308 531.446C582.244 531.446 581.256 531.649 580.344 532.054C579.458 532.434 578.672 532.953 577.988 533.612C577.304 534.296 576.772 535.094 576.392 536.006C576.012 536.918 575.822 537.868 575.822 538.856C575.822 539.895 576.012 540.857 576.392 541.744C576.772 542.631 577.304 543.416 577.988 544.1C578.672 544.784 579.458 545.316 580.344 545.696C581.256 546.076 582.244 546.266 583.308 546.266C584.068 546.266 584.778 546.165 585.436 545.962C586.12 545.759 586.728 545.481 587.26 545.126C587.767 544.797 588.198 544.429 588.552 544.024C588.932 543.593 589.211 543.15 589.388 542.694C589.388 543.023 589.388 543.327 589.388 543.606C589.388 543.859 589.388 544.138 589.388 544.442V546H593.606ZM583.308 532.966C584.119 532.966 584.879 533.118 585.588 533.422C586.298 533.701 586.931 534.106 587.488 534.638C588.02 535.17 588.438 535.803 588.742 536.538C589.072 537.247 589.236 538.02 589.236 538.856C589.236 539.692 589.072 540.477 588.742 541.212C588.438 541.921 588.008 542.542 587.45 543.074C586.918 543.606 586.298 544.024 585.588 544.328C584.879 544.607 584.119 544.746 583.308 544.746C582.498 544.746 581.75 544.607 581.066 544.328C580.382 544.049 579.774 543.657 579.242 543.15C578.66 542.618 578.204 541.985 577.874 541.25C577.545 540.515 577.38 539.717 577.38 538.856C577.38 538.045 577.52 537.285 577.798 536.576C578.102 535.867 578.52 535.246 579.052 534.714C579.559 534.157 580.18 533.726 580.914 533.422C581.649 533.118 582.447 532.966 583.308 532.966ZM604.249 546V544.518H601.133V533.27H605.541V531.75H601.133V522.478H599.575V531.75H596.269V533.27H599.575V546H604.249ZM615.667 532.966C616.655 532.966 617.541 533.245 618.327 533.802C619.137 534.334 619.771 535.031 620.227 535.892C618.504 536.576 616.781 537.26 615.059 537.944C613.361 538.603 611.651 539.274 609.929 539.958C609.751 539.097 609.764 538.261 609.967 537.45C610.169 536.614 610.524 535.867 611.031 535.208C611.563 534.524 612.221 533.979 613.007 533.574C613.817 533.169 614.704 532.966 615.667 532.966ZM620.645 544.29L619.695 543.15C619.163 543.657 618.555 544.049 617.871 544.328C617.187 544.607 616.452 544.746 615.667 544.746C614.476 544.746 613.412 544.442 612.475 543.834C611.537 543.226 610.841 542.428 610.385 541.44C612.361 540.629 614.324 539.844 616.275 539.084C618.251 538.324 620.227 537.551 622.203 536.766C621.949 536.006 621.62 535.309 621.215 534.676C620.809 534.017 620.341 533.46 619.809 533.004C619.251 532.497 618.618 532.117 617.909 531.864C617.199 531.585 616.452 531.446 615.667 531.446C614.628 531.446 613.653 531.649 612.741 532.054C611.854 532.434 611.069 532.953 610.385 533.612C609.701 534.271 609.169 535.056 608.789 535.968C608.409 536.88 608.219 537.843 608.219 538.856C608.219 539.895 608.409 540.857 608.789 541.744C609.169 542.631 609.701 543.416 610.385 544.1C611.069 544.784 611.854 545.316 612.741 545.696C613.653 546.076 614.628 546.266 615.667 546.266C616.655 546.266 617.567 546.089 618.403 545.734C619.239 545.379 619.986 544.898 620.645 544.29ZM654.169 546V544.518H651.357V531.75H650.103C650.052 532.307 650.014 532.877 649.989 533.46C649.963 534.017 649.951 534.562 649.951 535.094C649.52 534.106 648.773 533.257 647.709 532.548C646.645 531.813 645.365 531.446 643.871 531.446C642.807 531.446 641.819 531.649 640.907 532.054C640.02 532.434 639.235 532.953 638.551 533.612C637.867 534.296 637.335 535.094 636.955 536.006C636.575 536.918 636.385 537.868 636.385 538.856C636.385 539.895 636.575 540.857 636.955 541.744C637.335 542.631 637.867 543.416 638.551 544.1C639.235 544.784 640.02 545.316 640.907 545.696C641.819 546.076 642.807 546.266 643.871 546.266C644.631 546.266 645.34 546.165 645.999 545.962C646.683 545.759 647.291 545.481 647.823 545.126C648.329 544.797 648.76 544.429 649.115 544.024C649.495 543.593 649.773 543.15 649.951 542.694C649.951 543.023 649.951 543.327 649.951 543.606C649.951 543.859 649.951 544.138 649.951 544.442V546H654.169ZM643.871 532.966C644.681 532.966 645.441 533.118 646.151 533.422C646.86 533.701 647.493 534.106 648.051 534.638C648.583 535.17 649.001 535.803 649.305 536.538C649.634 537.247 649.799 538.02 649.799 538.856C649.799 539.692 649.634 540.477 649.305 541.212C649.001 541.921 648.57 542.542 648.013 543.074C647.481 543.606 646.86 544.024 646.151 544.328C645.441 544.607 644.681 544.746 643.871 544.746C643.06 544.746 642.313 544.607 641.629 544.328C640.945 544.049 640.337 543.657 639.805 543.15C639.222 542.618 638.766 541.985 638.437 541.25C638.107 540.515 637.943 539.717 637.943 538.856C637.943 538.045 638.082 537.285 638.361 536.576C638.665 535.867 639.083 535.246 639.615 534.714C640.121 534.157 640.742 533.726 641.477 533.422C642.211 533.118 643.009 532.966 643.871 532.966ZM664.166 546V544.518H661.354V538.21C661.354 537.45 661.506 536.753 661.81 536.12C662.139 535.487 662.583 534.929 663.14 534.448C663.647 533.992 664.255 533.637 664.964 533.384C665.673 533.131 666.421 533.004 667.206 533.004C668.27 533.055 669.068 533.384 669.6 533.992C670.157 534.575 670.461 535.284 670.512 536.12V544.518H667.548V546H674.882V544.518H672.07V535.702C672.019 534.435 671.589 533.409 670.778 532.624C669.967 531.839 668.865 531.446 667.472 531.446C666.053 531.446 664.787 531.813 663.672 532.548C662.557 533.283 661.747 534.245 661.24 535.436C661.215 535.005 661.189 534.625 661.164 534.296C661.139 533.941 661.113 533.549 661.088 533.118L661.05 531.75H657.06V533.232H659.796V544.518H656.832V546H664.166ZM695.323 546V544.518H692.511V517.5H688.255V518.982H690.953V531.598C690.953 532.282 690.953 532.839 690.953 533.27C690.953 533.701 690.966 534.258 690.991 534.942C690.788 534.511 690.522 534.093 690.193 533.688C689.864 533.283 689.433 532.903 688.901 532.548C688.369 532.219 687.761 531.953 687.077 531.75C686.418 531.547 685.734 531.446 685.025 531.446C683.961 531.446 682.973 531.649 682.061 532.054C681.174 532.434 680.389 532.953 679.705 533.612C679.021 534.271 678.489 535.056 678.109 535.968C677.729 536.88 677.539 537.843 677.539 538.856C677.539 539.895 677.729 540.857 678.109 541.744C678.489 542.631 679.021 543.416 679.705 544.1C680.389 544.784 681.174 545.316 682.061 545.696C682.973 546.076 683.961 546.266 685.025 546.266C685.785 546.266 686.494 546.165 687.153 545.962C687.837 545.759 688.445 545.481 688.977 545.126C689.484 544.797 689.914 544.429 690.269 544.024C690.649 543.593 690.928 543.15 691.105 542.694C691.105 543.023 691.105 543.327 691.105 543.606C691.105 543.859 691.105 544.138 691.105 544.442V546H695.323ZM685.025 532.966C685.81 532.966 686.558 533.105 687.267 533.384C687.976 533.663 688.597 534.055 689.129 534.562C689.686 535.094 690.13 535.74 690.459 536.5C690.788 537.235 690.953 538.02 690.953 538.856C690.953 539.692 690.788 540.477 690.459 541.212C690.155 541.947 689.724 542.567 689.167 543.074C688.61 543.606 687.976 544.024 687.267 544.328C686.583 544.607 685.836 544.746 685.025 544.746C684.189 544.746 683.416 544.607 682.707 544.328C682.023 544.024 681.415 543.606 680.883 543.074C680.326 542.567 679.882 541.947 679.553 541.212C679.249 540.477 679.097 539.692 679.097 538.856C679.097 538.045 679.249 537.285 679.553 536.576C679.857 535.841 680.275 535.208 680.807 534.676C681.339 534.144 681.96 533.726 682.669 533.422C683.378 533.118 684.164 532.966 685.025 532.966ZM724.389 536.614L729.519 546.874C730.659 544.594 731.799 542.327 732.939 540.072C734.079 537.817 735.219 535.537 736.359 533.232H738.943V531.75H732.559V533.232H734.763C733.851 535.056 732.964 536.855 732.103 538.628C731.241 540.401 730.38 542.2 729.519 544.024C728.683 542.225 727.821 540.439 726.935 538.666C726.073 536.867 725.187 535.056 724.275 533.232H726.783V531.75H719.791V533.232H722.489L723.629 535.512C722.894 536.905 722.172 538.286 721.463 539.654C720.779 541.022 720.044 542.479 719.259 544.024C718.473 542.377 717.612 540.629 716.675 538.78C715.763 536.905 714.851 535.056 713.939 533.232H716.181V531.75H709.379V533.232H712.381C713.521 535.537 714.648 537.817 715.763 540.072C716.903 542.327 718.043 544.594 719.183 546.874L724.389 536.614ZM748.924 546V544.518H746.074V531.75H741.59V533.232H744.516V544.518H741.59V546H748.924ZM746.568 526.696C746.568 526.341 746.441 526.05 746.188 525.822C745.934 525.569 745.643 525.442 745.314 525.442C745.01 525.442 744.731 525.569 744.478 525.822C744.224 526.05 744.098 526.341 744.098 526.696C744.098 527.051 744.224 527.355 744.478 527.608C744.731 527.836 745.01 527.95 745.314 527.95C745.643 527.95 745.934 527.836 746.188 527.608C746.441 527.355 746.568 527.051 746.568 526.696ZM758.906 546V544.518H756.094V538.21C756.094 537.45 756.246 536.753 756.55 536.12C756.88 535.487 757.323 534.929 757.88 534.448C758.387 533.992 758.995 533.637 759.704 533.384C760.414 533.131 761.161 533.004 761.946 533.004C763.01 533.055 763.808 533.384 764.34 533.992C764.898 534.575 765.202 535.284 765.252 536.12V544.518H762.288V546H769.622V544.518H766.81V535.702C766.76 534.435 766.329 533.409 765.518 532.624C764.708 531.839 763.606 531.446 762.212 531.446C760.794 531.446 759.527 531.813 758.412 532.548C757.298 533.283 756.487 534.245 755.98 535.436C755.955 535.005 755.93 534.625 755.904 534.296C755.879 533.941 755.854 533.549 755.828 533.118L755.79 531.75H751.8V533.232H754.536V544.518H751.572V546H758.906ZM463.664 584V582.518H460.814V569.75H456.33V571.232H459.256V582.518H456.33V584H463.664ZM461.308 564.696C461.308 564.341 461.181 564.05 460.928 563.822C460.675 563.569 460.383 563.442 460.054 563.442C459.75 563.442 459.471 563.569 459.218 563.822C458.965 564.05 458.838 564.341 458.838 564.696C458.838 565.051 458.965 565.355 459.218 565.608C459.471 565.836 459.75 565.95 460.054 565.95C460.383 565.95 460.675 565.836 460.928 565.608C461.181 565.355 461.308 565.051 461.308 564.696ZM473.646 584V582.518H470.834V576.21C470.834 575.45 470.986 574.753 471.29 574.12C471.62 573.487 472.063 572.929 472.62 572.448C473.127 571.992 473.735 571.637 474.444 571.384C475.154 571.131 475.901 571.004 476.686 571.004C477.75 571.055 478.548 571.384 479.08 571.992C479.638 572.575 479.942 573.284 479.992 574.12V582.518H477.028V584H484.362V582.518H481.55V573.702C481.5 572.435 481.069 571.409 480.258 570.624C479.448 569.839 478.346 569.446 476.952 569.446C475.534 569.446 474.267 569.813 473.152 570.548C472.038 571.283 471.227 572.245 470.72 573.436C470.695 573.005 470.67 572.625 470.644 572.296C470.619 571.941 470.594 571.549 470.568 571.118L470.53 569.75H466.54V571.232H469.276V582.518H466.312V584H473.646ZM506.392 584V582.518H503.276V571.27H507.684V569.75H503.276V560.478H501.718V569.75H498.412V571.27H501.718V584H506.392ZM523.205 582.1C523.864 581.416 524.383 580.631 524.763 579.744C525.169 578.857 525.371 577.895 525.371 576.856C525.371 575.843 525.169 574.88 524.763 573.968C524.383 573.056 523.864 572.258 523.205 571.574C522.521 570.915 521.711 570.396 520.773 570.016C519.861 569.611 518.886 569.408 517.847 569.408C516.809 569.408 515.833 569.611 514.921 570.016C514.009 570.396 513.224 570.915 512.565 571.574C511.881 572.258 511.349 573.056 510.969 573.968C510.589 574.88 510.399 575.843 510.399 576.856C510.399 577.895 510.589 578.87 510.969 579.782C511.349 580.669 511.881 581.441 512.565 582.1C513.224 582.784 513.997 583.316 514.883 583.696C515.795 584.076 516.783 584.266 517.847 584.266C518.886 584.266 519.861 584.076 520.773 583.696C521.711 583.316 522.521 582.784 523.205 582.1ZM513.667 580.998C513.135 580.491 512.717 579.883 512.413 579.174C512.109 578.465 511.957 577.692 511.957 576.856C511.957 576.045 512.109 575.285 512.413 574.576C512.717 573.867 513.135 573.233 513.667 572.676C514.199 572.144 514.82 571.726 515.529 571.422C516.239 571.118 516.999 570.966 517.809 570.966C518.62 570.966 519.38 571.118 520.089 571.422C520.824 571.726 521.457 572.144 521.989 572.676C522.547 573.233 522.977 573.879 523.281 574.614C523.585 575.323 523.737 576.071 523.737 576.856C523.737 577.692 523.585 578.465 523.281 579.174C522.977 579.883 522.547 580.491 521.989 580.998C521.457 581.555 520.824 581.986 520.089 582.29C519.38 582.594 518.62 582.746 517.809 582.746C516.999 582.746 516.239 582.594 515.529 582.29C514.82 581.986 514.199 581.555 513.667 580.998ZM541.667 580.314V582.024L541.743 584H545.809V582.632H543.111V569.75H538.741V571.232H541.553V577.54C541.553 578.3 541.389 579.009 541.059 579.668C540.755 580.301 540.337 580.833 539.805 581.264C539.248 581.745 538.615 582.113 537.905 582.366C537.221 582.619 536.487 582.746 535.701 582.746C534.637 582.695 533.827 582.379 533.269 581.796C532.737 581.188 532.446 580.466 532.395 579.63V569.75H528.025V571.232H530.837V580.048C530.888 581.315 531.319 582.341 532.129 583.126C532.94 583.911 534.042 584.304 535.435 584.304C536.829 584.304 538.083 583.949 539.197 583.24C540.337 582.505 541.161 581.53 541.667 580.314ZM555.807 584V582.518H552.995V576.21C552.995 575.425 553.159 574.703 553.489 574.044C553.818 573.36 554.274 572.803 554.857 572.372C555.363 571.941 555.946 571.612 556.605 571.384C557.289 571.131 558.011 571.004 558.771 571.004L558.847 569.446C558.264 569.471 557.681 569.573 557.099 569.75C556.541 569.927 555.997 570.181 555.465 570.51C554.907 570.839 554.401 571.257 553.945 571.764C553.514 572.245 553.159 572.803 552.881 573.436C552.855 573.005 552.843 572.727 552.843 572.6C552.843 572.473 552.83 572.195 552.805 571.764L552.691 569.75H548.701V571.232H551.437V582.518H548.473V584H555.807ZM568.832 584V582.518H566.02V576.21C566.02 575.45 566.172 574.753 566.476 574.12C566.805 573.487 567.249 572.929 567.806 572.448C568.313 571.992 568.921 571.637 569.63 571.384C570.339 571.131 571.087 571.004 571.872 571.004C572.936 571.055 573.734 571.384 574.266 571.992C574.823 572.575 575.127 573.284 575.178 574.12V582.518H572.214V584H579.548V582.518H576.736V573.702C576.685 572.435 576.255 571.409 575.444 570.624C574.633 569.839 573.531 569.446 572.138 569.446C570.719 569.446 569.453 569.813 568.338 570.548C567.223 571.283 566.413 572.245 565.906 573.436C565.881 573.005 565.855 572.625 565.83 572.296C565.805 571.941 565.779 571.549 565.754 571.118L565.716 569.75H561.726V571.232H564.462V582.518H561.498V584H568.832ZM599.989 584V582.518H597.177V569.75H595.923C595.872 570.307 595.834 570.877 595.809 571.46C595.784 572.017 595.771 572.562 595.771 573.094C595.34 572.106 594.593 571.257 593.529 570.548C592.465 569.813 591.186 569.446 589.691 569.446C588.627 569.446 587.639 569.649 586.727 570.054C585.84 570.434 585.055 570.953 584.371 571.612C583.687 572.296 583.155 573.094 582.775 574.006C582.395 574.918 582.205 575.868 582.205 576.856C582.205 577.895 582.395 578.857 582.775 579.744C583.155 580.631 583.687 581.416 584.371 582.1C585.055 582.784 585.84 583.316 586.727 583.696C587.639 584.076 588.627 584.266 589.691 584.266C590.451 584.266 591.16 584.165 591.819 583.962C592.503 583.759 593.111 583.481 593.643 583.126C594.15 582.797 594.58 582.429 594.935 582.024C595.315 581.593 595.594 581.15 595.771 580.694C595.771 581.023 595.771 581.327 595.771 581.606C595.771 581.859 595.771 582.138 595.771 582.442V584H599.989ZM589.691 570.966C590.502 570.966 591.262 571.118 591.971 571.422C592.68 571.701 593.314 572.106 593.871 572.638C594.403 573.17 594.821 573.803 595.125 574.538C595.454 575.247 595.619 576.02 595.619 576.856C595.619 577.692 595.454 578.477 595.125 579.212C594.821 579.921 594.39 580.542 593.833 581.074C593.301 581.606 592.68 582.024 591.971 582.328C591.262 582.607 590.502 582.746 589.691 582.746C588.88 582.746 588.133 582.607 587.449 582.328C586.765 582.049 586.157 581.657 585.625 581.15C585.042 580.618 584.586 579.985 584.257 579.25C583.928 578.515 583.763 577.717 583.763 576.856C583.763 576.045 583.902 575.285 584.181 574.576C584.485 573.867 584.903 573.246 585.435 572.714C585.942 572.157 586.562 571.726 587.297 571.422C588.032 571.118 588.83 570.966 589.691 570.966ZM609.986 584V582.518H607.174V576.21C607.174 575.45 607.326 574.753 607.63 574.12C607.96 573.487 608.403 572.929 608.96 572.448C609.467 571.992 610.075 571.637 610.784 571.384C611.494 571.131 612.241 571.004 613.026 571.004C614.09 571.055 614.888 571.384 615.42 571.992C615.978 572.575 616.282 573.284 616.332 574.12V582.518H613.368V584H620.702V582.518H617.89V576.058C617.916 575.323 618.093 574.652 618.422 574.044C618.752 573.411 619.182 572.866 619.714 572.41C620.246 571.979 620.854 571.637 621.538 571.384C622.248 571.131 622.982 571.004 623.742 571.004C624.806 571.055 625.604 571.384 626.136 571.992C626.694 572.575 626.998 573.284 627.048 574.12V582.518H624.122V584H631.418V582.518H628.606V573.702C628.556 572.435 628.125 571.409 627.314 570.624C626.529 569.839 625.427 569.446 624.008 569.446C622.615 569.471 621.374 569.826 620.284 570.51C619.22 571.194 618.41 572.106 617.852 573.246C617.726 572.106 617.257 571.194 616.446 570.51C615.636 569.801 614.584 569.446 613.292 569.446C611.848 569.471 610.569 569.851 609.454 570.586C608.365 571.295 607.567 572.245 607.06 573.436C607.035 573.005 607.01 572.625 606.984 572.296C606.959 571.941 606.934 571.549 606.908 571.118L606.87 569.75H602.88V571.232H605.616V582.518H602.652V584H609.986ZM641.532 570.966C642.52 570.966 643.407 571.245 644.192 571.802C645.003 572.334 645.636 573.031 646.092 573.892C644.369 574.576 642.647 575.26 640.924 575.944C639.227 576.603 637.517 577.274 635.794 577.958C635.617 577.097 635.629 576.261 635.832 575.45C636.035 574.614 636.389 573.867 636.896 573.208C637.428 572.524 638.087 571.979 638.872 571.574C639.683 571.169 640.569 570.966 641.532 570.966ZM646.51 582.29L645.56 581.15C645.028 581.657 644.42 582.049 643.736 582.328C643.052 582.607 642.317 582.746 641.532 582.746C640.341 582.746 639.277 582.442 638.34 581.834C637.403 581.226 636.706 580.428 636.25 579.44C638.226 578.629 640.189 577.844 642.14 577.084C644.116 576.324 646.092 575.551 648.068 574.766C647.815 574.006 647.485 573.309 647.08 572.676C646.675 572.017 646.206 571.46 645.674 571.004C645.117 570.497 644.483 570.117 643.774 569.864C643.065 569.585 642.317 569.446 641.532 569.446C640.493 569.446 639.518 569.649 638.606 570.054C637.719 570.434 636.934 570.953 636.25 571.612C635.566 572.271 635.034 573.056 634.654 573.968C634.274 574.88 634.084 575.843 634.084 576.856C634.084 577.895 634.274 578.857 634.654 579.744C635.034 580.631 635.566 581.416 636.25 582.1C636.934 582.784 637.719 583.316 638.606 583.696C639.518 584.076 640.493 584.266 641.532 584.266C642.52 584.266 643.432 584.089 644.268 583.734C645.104 583.379 645.851 582.898 646.51 582.29ZM658.191 584V582.518H655.379V576.21C655.379 575.45 655.531 574.753 655.835 574.12C656.165 573.487 656.608 572.929 657.165 572.448C657.672 571.992 658.28 571.637 658.989 571.384C659.699 571.131 660.446 571.004 661.231 571.004C662.295 571.055 663.093 571.384 663.625 571.992C664.183 572.575 664.487 573.284 664.537 574.12V582.518H661.573V584H668.907V582.518H666.095V573.702C666.045 572.435 665.614 571.409 664.803 570.624C663.993 569.839 662.891 569.446 661.497 569.446C660.079 569.446 658.812 569.813 657.697 570.548C656.583 571.283 655.772 572.245 655.265 573.436C655.24 573.005 655.215 572.625 655.189 572.296C655.164 571.941 655.139 571.549 655.113 571.118L655.075 569.75H651.085V571.232H653.821V582.518H650.857V584H658.191ZM679.544 584V582.518H676.428V571.27H680.836V569.75H676.428V560.478H674.87V569.75H671.564V571.27H674.87V584H679.544ZM692.216 582.784C692.57 582.379 692.824 581.935 692.976 581.454C693.153 580.947 693.242 580.466 693.242 580.01C693.242 579.199 693.064 578.553 692.71 578.072C692.38 577.591 691.962 577.198 691.456 576.894C690.924 576.59 690.354 576.349 689.746 576.172C689.163 575.969 688.606 575.754 688.074 575.526C687.567 575.323 687.124 575.07 686.744 574.766C686.389 574.437 686.212 573.993 686.212 573.436C686.212 573.005 686.288 572.638 686.44 572.334C686.592 572.03 686.782 571.777 687.01 571.574C687.263 571.397 687.554 571.27 687.884 571.194C688.238 571.093 688.58 571.042 688.91 571.042C689.34 571.042 689.746 571.093 690.126 571.194C690.506 571.295 690.873 571.447 691.228 571.65V573.626H692.672V570.852C692.418 570.624 692.14 570.434 691.836 570.282C691.532 570.105 691.215 569.953 690.886 569.826C690.48 569.699 690.126 569.623 689.822 569.598C689.518 569.547 689.201 569.522 688.872 569.522C688.416 569.522 687.922 569.611 687.39 569.788C686.858 569.94 686.389 570.181 685.984 570.51C685.578 570.839 685.249 571.245 684.996 571.726C684.768 572.207 684.654 572.79 684.654 573.474C684.654 574.31 684.818 574.969 685.148 575.45C685.502 575.906 685.946 576.261 686.478 576.514C687.01 576.767 687.58 576.983 688.188 577.16C688.796 577.337 689.353 577.54 689.86 577.768C690.392 577.971 690.822 578.249 691.152 578.604C691.481 578.959 691.646 579.465 691.646 580.124C691.646 580.58 691.557 580.973 691.38 581.302C691.228 581.606 691.012 581.872 690.734 582.1C690.43 582.328 690.1 582.505 689.746 582.632C689.391 582.733 689.024 582.784 688.644 582.784C688.086 582.784 687.554 582.746 687.048 582.67C686.541 582.569 686.047 582.366 685.566 582.062V580.124H684.16V582.898C684.742 583.455 685.414 583.823 686.174 584C686.959 584.203 687.757 584.304 688.568 584.304C689.429 584.304 690.151 584.165 690.734 583.886C691.342 583.607 691.836 583.24 692.216 582.784ZM699.446 581.91C699.446 581.555 699.319 581.264 699.066 581.036C698.812 580.808 698.534 580.694 698.23 580.694C697.926 580.694 697.647 580.808 697.394 581.036C697.14 581.264 697.014 581.555 697.014 581.91C697.014 582.265 697.14 582.569 697.394 582.822C697.647 583.05 697.926 583.164 698.23 583.164C698.534 583.164 698.812 583.05 699.066 582.822C699.319 582.569 699.446 582.265 699.446 581.91ZM698.99 577.692V555.5H697.432V577.692H698.99Z" fill="white"/>
<line x1="313" y1="131" x2="372" y2="131" stroke="#FFC727" stroke-width="8"/>
<line x1="307" y1="750" x2="366" y2="750" stroke="#FFC727" stroke-width="8"/>
<line x1="371" y1="452" x2="430" y2="452" stroke="#FFC727" stroke-width="8"/>
<path d="M525.566 428.384H512.697C512.381 427.26 511.993 426.154 511.535 425.068C511.31 424.537 510.79 424.192 510.214 424.192H471.649C471.073 424.192 470.553 424.537 470.328 425.068C469.87 426.154 469.482 427.26 469.166 428.384H456.434C455.642 428.384 455 429.027 455 429.819C455 435.62 456.888 441.086 460.315 445.209C463.688 449.266 468.156 451.562 472.945 451.713C473.075 451.904 473.206 452.095 473.341 452.283C476.481 456.678 480.744 460.031 485.716 462.029V465.375H483.931C483.139 465.375 482.497 466.017 482.497 466.809C482.497 467.601 483.139 468.244 483.931 468.244H485.716V470.8H483.931C483.139 470.8 482.497 471.443 482.497 472.235C482.497 473.027 483.139 473.669 483.931 473.669H485.716V477.048H481.972C477.691 477.048 474.208 480.531 474.208 484.812V486.373C474.208 487.165 474.85 487.808 475.642 487.808H506.221C507.013 487.808 507.655 487.165 507.655 486.373V484.812C507.655 480.531 504.173 477.048 499.892 477.048H496.147V473.669H498.069C498.861 473.669 499.504 473.027 499.504 472.235C499.504 471.443 498.861 470.8 498.069 470.8H496.147V468.244H498.069C498.861 468.244 499.504 467.601 499.504 466.809C499.504 466.017 498.861 465.375 498.069 465.375H496.147V462.029C501.119 460.031 505.382 456.678 508.522 452.283C511.935 447.508 513.738 441.872 513.738 435.984C513.738 434.384 513.604 432.805 513.341 431.253H524.087C523.664 437.973 520.296 444.048 515.265 446.994C514.582 447.395 514.352 448.273 514.752 448.957C515.019 449.413 515.499 449.666 515.991 449.666C516.238 449.666 516.487 449.603 516.715 449.47C519.772 447.679 522.351 444.919 524.171 441.488C526.022 437.999 527 433.964 527 429.819C527 429.027 526.358 428.384 525.566 428.384ZM457.912 431.253H468.522C468.259 432.805 468.125 434.384 468.125 435.984C468.125 440.435 469.156 444.742 471.134 448.642C464.016 447.341 458.457 440.138 457.912 431.253ZM499.891 479.916C502.591 479.916 504.787 482.112 504.787 484.812V484.939H477.076V484.812C477.076 482.112 479.272 479.916 481.971 479.916H499.891ZM493.278 473.669V477.048H488.584V473.669H493.278ZM488.584 470.8V468.244H493.278V470.8H488.584ZM494.226 459.692C493.657 459.897 493.279 460.436 493.279 461.041V465.375H488.585V461.041C488.585 460.436 488.206 459.897 487.637 459.692C477.682 456.099 470.994 446.571 470.994 435.984C470.994 434.09 471.201 432.228 471.611 430.412C471.686 430.249 471.73 430.069 471.738 429.88C471.976 428.926 472.269 427.985 472.62 427.061H509.244C510.323 429.907 510.87 432.904 510.87 435.984C510.87 446.571 504.181 456.099 494.226 459.692Z" fill="#FFC727"/>
<path d="M484.898 452.43C481.814 450.726 479.273 447.755 477.745 444.067C477.442 443.335 476.602 442.987 475.871 443.291C475.139 443.594 474.791 444.433 475.095 445.165C476.871 449.451 479.86 452.923 483.511 454.941C483.731 455.062 483.968 455.12 484.203 455.12C484.708 455.12 485.198 454.853 485.46 454.379C485.843 453.686 485.591 452.814 484.898 452.43Z" fill="#FFC727"/>
<path d="M475.293 441.261C476.074 441.128 476.6 440.388 476.467 439.607C476.262 438.402 476.158 437.161 476.158 435.919C476.158 435.127 475.516 434.485 474.724 434.485C473.932 434.485 473.29 435.127 473.29 435.919C473.29 437.322 473.407 438.724 473.639 440.088C473.758 440.787 474.365 441.282 475.051 441.282C475.131 441.282 475.212 441.275 475.293 441.261Z" fill="#FFC727"/>
<defs>
<clipPath id="clip0_19_310">
<rect width="72" height="72" fill="white" transform="translate(213 713)"/>
</clipPath>
</defs>
</svg>
